%TF.GenerationSoftware,KiCad,Pcbnew,(6.0.6)*%
%TF.CreationDate,2024-02-28T23:36:51-08:00*%
%TF.ProjectId,Interface-PCBA,496e7465-7266-4616-9365-2d504342412e,rev?*%
%TF.SameCoordinates,PX43d3480PY49e1930*%
%TF.FileFunction,Legend,Top*%
%TF.FilePolarity,Positive*%
%FSLAX46Y46*%
G04 Gerber Fmt 4.6, Leading zero omitted, Abs format (unit mm)*
G04 Created by KiCad (PCBNEW (6.0.6)) date 2024-02-28 23:36:51*
%MOMM*%
%LPD*%
G01*
G04 APERTURE LIST*
%ADD10C,0.150000*%
%ADD11C,0.120000*%
%ADD12C,0.127000*%
%ADD13C,0.200000*%
G04 APERTURE END LIST*
D10*
X61295595Y-15477380D02*
X61295595Y-14477380D01*
X61628928Y-15191666D01*
X61962261Y-14477380D01*
X61962261Y-15477380D01*
X62581309Y-15477380D02*
X62486071Y-15429761D01*
X62438452Y-15382142D01*
X62390833Y-15286904D01*
X62390833Y-15001190D01*
X62438452Y-14905952D01*
X62486071Y-14858333D01*
X62581309Y-14810714D01*
X62724166Y-14810714D01*
X62819404Y-14858333D01*
X62867023Y-14905952D01*
X62914642Y-15001190D01*
X62914642Y-15286904D01*
X62867023Y-15382142D01*
X62819404Y-15429761D01*
X62724166Y-15477380D01*
X62581309Y-15477380D01*
X63343214Y-15477380D02*
X63343214Y-14477380D01*
X63343214Y-14858333D02*
X63438452Y-14810714D01*
X63628928Y-14810714D01*
X63724166Y-14858333D01*
X63771785Y-14905952D01*
X63819404Y-15001190D01*
X63819404Y-15286904D01*
X63771785Y-15382142D01*
X63724166Y-15429761D01*
X63628928Y-15477380D01*
X63438452Y-15477380D01*
X63343214Y-15429761D01*
X64247976Y-15477380D02*
X64247976Y-14810714D01*
X64247976Y-14477380D02*
X64200357Y-14525000D01*
X64247976Y-14572619D01*
X64295595Y-14525000D01*
X64247976Y-14477380D01*
X64247976Y-14572619D01*
X64867023Y-15477380D02*
X64771785Y-15429761D01*
X64724166Y-15334523D01*
X64724166Y-14477380D01*
X65628928Y-15429761D02*
X65533690Y-15477380D01*
X65343214Y-15477380D01*
X65247976Y-15429761D01*
X65200357Y-15334523D01*
X65200357Y-14953571D01*
X65247976Y-14858333D01*
X65343214Y-14810714D01*
X65533690Y-14810714D01*
X65628928Y-14858333D01*
X65676547Y-14953571D01*
X65676547Y-15048809D01*
X65200357Y-15144047D01*
X67438452Y-15477380D02*
X67105119Y-15001190D01*
X66867023Y-15477380D02*
X66867023Y-14477380D01*
X67247976Y-14477380D01*
X67343214Y-14525000D01*
X67390833Y-14572619D01*
X67438452Y-14667857D01*
X67438452Y-14810714D01*
X67390833Y-14905952D01*
X67343214Y-14953571D01*
X67247976Y-15001190D01*
X66867023Y-15001190D01*
X68009880Y-15477380D02*
X67914642Y-15429761D01*
X67867023Y-15382142D01*
X67819404Y-15286904D01*
X67819404Y-15001190D01*
X67867023Y-14905952D01*
X67914642Y-14858333D01*
X68009880Y-14810714D01*
X68152738Y-14810714D01*
X68247976Y-14858333D01*
X68295595Y-14905952D01*
X68343214Y-15001190D01*
X68343214Y-15286904D01*
X68295595Y-15382142D01*
X68247976Y-15429761D01*
X68152738Y-15477380D01*
X68009880Y-15477380D01*
X68771785Y-15477380D02*
X68771785Y-14477380D01*
X68771785Y-14858333D02*
X68867023Y-14810714D01*
X69057500Y-14810714D01*
X69152738Y-14858333D01*
X69200357Y-14905952D01*
X69247976Y-15001190D01*
X69247976Y-15286904D01*
X69200357Y-15382142D01*
X69152738Y-15429761D01*
X69057500Y-15477380D01*
X68867023Y-15477380D01*
X68771785Y-15429761D01*
X69819404Y-15477380D02*
X69724166Y-15429761D01*
X69676547Y-15382142D01*
X69628928Y-15286904D01*
X69628928Y-15001190D01*
X69676547Y-14905952D01*
X69724166Y-14858333D01*
X69819404Y-14810714D01*
X69962261Y-14810714D01*
X70057500Y-14858333D01*
X70105119Y-14905952D01*
X70152738Y-15001190D01*
X70152738Y-15286904D01*
X70105119Y-15382142D01*
X70057500Y-15429761D01*
X69962261Y-15477380D01*
X69819404Y-15477380D01*
X70438452Y-14810714D02*
X70819404Y-14810714D01*
X70581309Y-14477380D02*
X70581309Y-15334523D01*
X70628928Y-15429761D01*
X70724166Y-15477380D01*
X70819404Y-15477380D01*
X71771785Y-14477380D02*
X72343214Y-14477380D01*
X72057500Y-15477380D02*
X72057500Y-14477380D01*
X73057500Y-15429761D02*
X72962261Y-15477380D01*
X72771785Y-15477380D01*
X72676547Y-15429761D01*
X72628928Y-15334523D01*
X72628928Y-14953571D01*
X72676547Y-14858333D01*
X72771785Y-14810714D01*
X72962261Y-14810714D01*
X73057500Y-14858333D01*
X73105119Y-14953571D01*
X73105119Y-15048809D01*
X72628928Y-15144047D01*
X73962261Y-15477380D02*
X73962261Y-14953571D01*
X73914642Y-14858333D01*
X73819404Y-14810714D01*
X73628928Y-14810714D01*
X73533690Y-14858333D01*
X73962261Y-15429761D02*
X73867023Y-15477380D01*
X73628928Y-15477380D01*
X73533690Y-15429761D01*
X73486071Y-15334523D01*
X73486071Y-15239285D01*
X73533690Y-15144047D01*
X73628928Y-15096428D01*
X73867023Y-15096428D01*
X73962261Y-15048809D01*
X74438452Y-15477380D02*
X74438452Y-14810714D01*
X74438452Y-14905952D02*
X74486071Y-14858333D01*
X74581309Y-14810714D01*
X74724166Y-14810714D01*
X74819404Y-14858333D01*
X74867023Y-14953571D01*
X74867023Y-15477380D01*
X74867023Y-14953571D02*
X74914642Y-14858333D01*
X75009880Y-14810714D01*
X75152738Y-14810714D01*
X75247976Y-14858333D01*
X75295595Y-14953571D01*
X75295595Y-15477380D01*
X75771785Y-15382142D02*
X75819404Y-15429761D01*
X75771785Y-15477380D01*
X75724166Y-15429761D01*
X75771785Y-15382142D01*
X75771785Y-15477380D01*
X75771785Y-14858333D02*
X75819404Y-14905952D01*
X75771785Y-14953571D01*
X75724166Y-14905952D01*
X75771785Y-14858333D01*
X75771785Y-14953571D01*
X61295595Y-16706428D02*
X62057500Y-16706428D01*
X63295595Y-16563571D02*
X63628928Y-16563571D01*
X63771785Y-17087380D02*
X63295595Y-17087380D01*
X63295595Y-16087380D01*
X63771785Y-16087380D01*
X64343214Y-17087380D02*
X64247976Y-17039761D01*
X64200357Y-16944523D01*
X64200357Y-16087380D01*
X64867023Y-17087380D02*
X64771785Y-17039761D01*
X64724166Y-16944523D01*
X64724166Y-16087380D01*
X65247976Y-17087380D02*
X65247976Y-16420714D01*
X65247976Y-16087380D02*
X65200357Y-16135000D01*
X65247976Y-16182619D01*
X65295595Y-16135000D01*
X65247976Y-16087380D01*
X65247976Y-16182619D01*
X66105119Y-17039761D02*
X66009880Y-17087380D01*
X65819404Y-17087380D01*
X65724166Y-17039761D01*
X65676547Y-16944523D01*
X65676547Y-16563571D01*
X65724166Y-16468333D01*
X65819404Y-16420714D01*
X66009880Y-16420714D01*
X66105119Y-16468333D01*
X66152738Y-16563571D01*
X66152738Y-16658809D01*
X65676547Y-16754047D01*
X67343214Y-17087380D02*
X67343214Y-16087380D01*
X67914642Y-17087380D02*
X67486071Y-16515952D01*
X67914642Y-16087380D02*
X67343214Y-16658809D01*
X68486071Y-17087380D02*
X68390833Y-17039761D01*
X68343214Y-16992142D01*
X68295595Y-16896904D01*
X68295595Y-16611190D01*
X68343214Y-16515952D01*
X68390833Y-16468333D01*
X68486071Y-16420714D01*
X68628928Y-16420714D01*
X68724166Y-16468333D01*
X68771785Y-16515952D01*
X68819404Y-16611190D01*
X68819404Y-16896904D01*
X68771785Y-16992142D01*
X68724166Y-17039761D01*
X68628928Y-17087380D01*
X68486071Y-17087380D01*
X61295595Y-18316428D02*
X62057500Y-18316428D01*
X63247976Y-18649761D02*
X63390833Y-18697380D01*
X63628928Y-18697380D01*
X63724166Y-18649761D01*
X63771785Y-18602142D01*
X63819404Y-18506904D01*
X63819404Y-18411666D01*
X63771785Y-18316428D01*
X63724166Y-18268809D01*
X63628928Y-18221190D01*
X63438452Y-18173571D01*
X63343214Y-18125952D01*
X63295595Y-18078333D01*
X63247976Y-17983095D01*
X63247976Y-17887857D01*
X63295595Y-17792619D01*
X63343214Y-17745000D01*
X63438452Y-17697380D01*
X63676547Y-17697380D01*
X63819404Y-17745000D01*
X64390833Y-18697380D02*
X64295595Y-18649761D01*
X64247976Y-18602142D01*
X64200357Y-18506904D01*
X64200357Y-18221190D01*
X64247976Y-18125952D01*
X64295595Y-18078333D01*
X64390833Y-18030714D01*
X64533690Y-18030714D01*
X64628928Y-18078333D01*
X64676547Y-18125952D01*
X64724166Y-18221190D01*
X64724166Y-18506904D01*
X64676547Y-18602142D01*
X64628928Y-18649761D01*
X64533690Y-18697380D01*
X64390833Y-18697380D01*
X65009880Y-18030714D02*
X65390833Y-18030714D01*
X65152738Y-18697380D02*
X65152738Y-17840238D01*
X65200357Y-17745000D01*
X65295595Y-17697380D01*
X65390833Y-17697380D01*
X65724166Y-18697380D02*
X65724166Y-18030714D01*
X65724166Y-17697380D02*
X65676547Y-17745000D01*
X65724166Y-17792619D01*
X65771785Y-17745000D01*
X65724166Y-17697380D01*
X65724166Y-17792619D01*
X66628928Y-18697380D02*
X66628928Y-18173571D01*
X66581309Y-18078333D01*
X66486071Y-18030714D01*
X66295595Y-18030714D01*
X66200357Y-18078333D01*
X66628928Y-18649761D02*
X66533690Y-18697380D01*
X66295595Y-18697380D01*
X66200357Y-18649761D01*
X66152738Y-18554523D01*
X66152738Y-18459285D01*
X66200357Y-18364047D01*
X66295595Y-18316428D01*
X66533690Y-18316428D01*
X66628928Y-18268809D01*
X68343214Y-18697380D02*
X67867023Y-18697380D01*
X67867023Y-17697380D01*
X68819404Y-18697380D02*
X68724166Y-18649761D01*
X68676547Y-18602142D01*
X68628928Y-18506904D01*
X68628928Y-18221190D01*
X68676547Y-18125952D01*
X68724166Y-18078333D01*
X68819404Y-18030714D01*
X68962261Y-18030714D01*
X69057500Y-18078333D01*
X69105119Y-18125952D01*
X69152738Y-18221190D01*
X69152738Y-18506904D01*
X69105119Y-18602142D01*
X69057500Y-18649761D01*
X68962261Y-18697380D01*
X68819404Y-18697380D01*
X69581309Y-18030714D02*
X69581309Y-19030714D01*
X69581309Y-18078333D02*
X69676547Y-18030714D01*
X69867023Y-18030714D01*
X69962261Y-18078333D01*
X70009880Y-18125952D01*
X70057500Y-18221190D01*
X70057500Y-18506904D01*
X70009880Y-18602142D01*
X69962261Y-18649761D01*
X69867023Y-18697380D01*
X69676547Y-18697380D01*
X69581309Y-18649761D01*
X70867023Y-18649761D02*
X70771785Y-18697380D01*
X70581309Y-18697380D01*
X70486071Y-18649761D01*
X70438452Y-18554523D01*
X70438452Y-18173571D01*
X70486071Y-18078333D01*
X70581309Y-18030714D01*
X70771785Y-18030714D01*
X70867023Y-18078333D01*
X70914642Y-18173571D01*
X70914642Y-18268809D01*
X70438452Y-18364047D01*
X71247976Y-18030714D02*
X71771785Y-18030714D01*
X71247976Y-18697380D01*
X71771785Y-18697380D01*
X61295595Y-19926428D02*
X62057500Y-19926428D01*
X63771785Y-20307380D02*
X63295595Y-20307380D01*
X63295595Y-19307380D01*
X64105119Y-20307380D02*
X64105119Y-19640714D01*
X64105119Y-19307380D02*
X64057500Y-19355000D01*
X64105119Y-19402619D01*
X64152738Y-19355000D01*
X64105119Y-19307380D01*
X64105119Y-19402619D01*
X65009880Y-20307380D02*
X65009880Y-19783571D01*
X64962261Y-19688333D01*
X64867023Y-19640714D01*
X64676547Y-19640714D01*
X64581309Y-19688333D01*
X65009880Y-20259761D02*
X64914642Y-20307380D01*
X64676547Y-20307380D01*
X64581309Y-20259761D01*
X64533690Y-20164523D01*
X64533690Y-20069285D01*
X64581309Y-19974047D01*
X64676547Y-19926428D01*
X64914642Y-19926428D01*
X65009880Y-19878809D01*
X65486071Y-20307380D02*
X65486071Y-19640714D01*
X65486071Y-19735952D02*
X65533690Y-19688333D01*
X65628928Y-19640714D01*
X65771785Y-19640714D01*
X65867023Y-19688333D01*
X65914642Y-19783571D01*
X65914642Y-20307380D01*
X65914642Y-19783571D02*
X65962261Y-19688333D01*
X66057500Y-19640714D01*
X66200357Y-19640714D01*
X66295595Y-19688333D01*
X66343214Y-19783571D01*
X66343214Y-20307380D01*
X67581309Y-20307380D02*
X67581309Y-19307380D01*
X67962261Y-19307380D01*
X68057500Y-19355000D01*
X68105119Y-19402619D01*
X68152738Y-19497857D01*
X68152738Y-19640714D01*
X68105119Y-19735952D01*
X68057500Y-19783571D01*
X67962261Y-19831190D01*
X67581309Y-19831190D01*
X69009880Y-20307380D02*
X69009880Y-19783571D01*
X68962261Y-19688333D01*
X68867023Y-19640714D01*
X68676547Y-19640714D01*
X68581309Y-19688333D01*
X69009880Y-20259761D02*
X68914642Y-20307380D01*
X68676547Y-20307380D01*
X68581309Y-20259761D01*
X68533690Y-20164523D01*
X68533690Y-20069285D01*
X68581309Y-19974047D01*
X68676547Y-19926428D01*
X68914642Y-19926428D01*
X69009880Y-19878809D01*
X69486071Y-20307380D02*
X69486071Y-19640714D01*
X69486071Y-19831190D02*
X69533690Y-19735952D01*
X69581309Y-19688333D01*
X69676547Y-19640714D01*
X69771785Y-19640714D01*
X70105119Y-20307380D02*
X70105119Y-19640714D01*
X70105119Y-19831190D02*
X70152738Y-19735952D01*
X70200357Y-19688333D01*
X70295595Y-19640714D01*
X70390833Y-19640714D01*
X70724166Y-20307380D02*
X70724166Y-19640714D01*
X70724166Y-19307380D02*
X70676547Y-19355000D01*
X70724166Y-19402619D01*
X70771785Y-19355000D01*
X70724166Y-19307380D01*
X70724166Y-19402619D01*
X71152738Y-20259761D02*
X71247976Y-20307380D01*
X71438452Y-20307380D01*
X71533690Y-20259761D01*
X71581309Y-20164523D01*
X71581309Y-20116904D01*
X71533690Y-20021666D01*
X71438452Y-19974047D01*
X71295595Y-19974047D01*
X71200357Y-19926428D01*
X71152738Y-19831190D01*
X71152738Y-19783571D01*
X71200357Y-19688333D01*
X71295595Y-19640714D01*
X71438452Y-19640714D01*
X71533690Y-19688333D01*
X72009880Y-20307380D02*
X72009880Y-19307380D01*
X72438452Y-20307380D02*
X72438452Y-19783571D01*
X72390833Y-19688333D01*
X72295595Y-19640714D01*
X72152738Y-19640714D01*
X72057500Y-19688333D01*
X72009880Y-19735952D01*
X61295595Y-21536428D02*
X62057500Y-21536428D01*
X63247976Y-21631666D02*
X63724166Y-21631666D01*
X63152738Y-21917380D02*
X63486071Y-20917380D01*
X63819404Y-21917380D01*
X64581309Y-21250714D02*
X64581309Y-21917380D01*
X64152738Y-21250714D02*
X64152738Y-21774523D01*
X64200357Y-21869761D01*
X64295595Y-21917380D01*
X64438452Y-21917380D01*
X64533690Y-21869761D01*
X64581309Y-21822142D01*
X65009880Y-21869761D02*
X65105119Y-21917380D01*
X65295595Y-21917380D01*
X65390833Y-21869761D01*
X65438452Y-21774523D01*
X65438452Y-21726904D01*
X65390833Y-21631666D01*
X65295595Y-21584047D01*
X65152738Y-21584047D01*
X65057500Y-21536428D01*
X65009880Y-21441190D01*
X65009880Y-21393571D01*
X65057500Y-21298333D01*
X65152738Y-21250714D01*
X65295595Y-21250714D01*
X65390833Y-21298333D01*
X65724166Y-21250714D02*
X66105119Y-21250714D01*
X65867023Y-20917380D02*
X65867023Y-21774523D01*
X65914642Y-21869761D01*
X66009880Y-21917380D01*
X66105119Y-21917380D01*
X66438452Y-21917380D02*
X66438452Y-21250714D01*
X66438452Y-20917380D02*
X66390833Y-20965000D01*
X66438452Y-21012619D01*
X66486071Y-20965000D01*
X66438452Y-20917380D01*
X66438452Y-21012619D01*
X66914642Y-21250714D02*
X66914642Y-21917380D01*
X66914642Y-21345952D02*
X66962261Y-21298333D01*
X67057500Y-21250714D01*
X67200357Y-21250714D01*
X67295595Y-21298333D01*
X67343214Y-21393571D01*
X67343214Y-21917380D01*
X68581309Y-21917380D02*
X68581309Y-20917380D01*
X68962261Y-20917380D01*
X69057500Y-20965000D01*
X69105119Y-21012619D01*
X69152738Y-21107857D01*
X69152738Y-21250714D01*
X69105119Y-21345952D01*
X69057500Y-21393571D01*
X68962261Y-21441190D01*
X68581309Y-21441190D01*
X69724166Y-21917380D02*
X69628928Y-21869761D01*
X69581309Y-21822142D01*
X69533690Y-21726904D01*
X69533690Y-21441190D01*
X69581309Y-21345952D01*
X69628928Y-21298333D01*
X69724166Y-21250714D01*
X69867023Y-21250714D01*
X69962261Y-21298333D01*
X70009880Y-21345952D01*
X70057500Y-21441190D01*
X70057500Y-21726904D01*
X70009880Y-21822142D01*
X69962261Y-21869761D01*
X69867023Y-21917380D01*
X69724166Y-21917380D01*
X70486071Y-21917380D02*
X70486071Y-21250714D01*
X70486071Y-21441190D02*
X70533690Y-21345952D01*
X70581309Y-21298333D01*
X70676547Y-21250714D01*
X70771785Y-21250714D01*
X70962261Y-21250714D02*
X71343214Y-21250714D01*
X71105119Y-20917380D02*
X71105119Y-21774523D01*
X71152738Y-21869761D01*
X71247976Y-21917380D01*
X71343214Y-21917380D01*
X71676547Y-21917380D02*
X71676547Y-21250714D01*
X71676547Y-20917380D02*
X71628928Y-20965000D01*
X71676547Y-21012619D01*
X71724166Y-20965000D01*
X71676547Y-20917380D01*
X71676547Y-21012619D01*
X72152738Y-21250714D02*
X72152738Y-21917380D01*
X72152738Y-21345952D02*
X72200357Y-21298333D01*
X72295595Y-21250714D01*
X72438452Y-21250714D01*
X72533690Y-21298333D01*
X72581309Y-21393571D01*
X72581309Y-21917380D01*
X73486071Y-21917380D02*
X73486071Y-21393571D01*
X73438452Y-21298333D01*
X73343214Y-21250714D01*
X73152738Y-21250714D01*
X73057500Y-21298333D01*
X73486071Y-21869761D02*
X73390833Y-21917380D01*
X73152738Y-21917380D01*
X73057500Y-21869761D01*
X73009880Y-21774523D01*
X73009880Y-21679285D01*
X73057500Y-21584047D01*
X73152738Y-21536428D01*
X73390833Y-21536428D01*
X73486071Y-21488809D01*
X74390833Y-21250714D02*
X74390833Y-21917380D01*
X73962261Y-21250714D02*
X73962261Y-21774523D01*
X74009880Y-21869761D01*
X74105119Y-21917380D01*
X74247976Y-21917380D01*
X74343214Y-21869761D01*
X74390833Y-21822142D01*
X74819404Y-21869761D02*
X74914642Y-21917380D01*
X75105119Y-21917380D01*
X75200357Y-21869761D01*
X75247976Y-21774523D01*
X75247976Y-21726904D01*
X75200357Y-21631666D01*
X75105119Y-21584047D01*
X74962261Y-21584047D01*
X74867023Y-21536428D01*
X74819404Y-21441190D01*
X74819404Y-21393571D01*
X74867023Y-21298333D01*
X74962261Y-21250714D01*
X75105119Y-21250714D01*
X75200357Y-21298333D01*
X76057500Y-21869761D02*
X75962261Y-21917380D01*
X75771785Y-21917380D01*
X75676547Y-21869761D01*
X75628928Y-21774523D01*
X75628928Y-21393571D01*
X75676547Y-21298333D01*
X75771785Y-21250714D01*
X75962261Y-21250714D01*
X76057500Y-21298333D01*
X76105119Y-21393571D01*
X76105119Y-21488809D01*
X75628928Y-21584047D01*
X61295595Y-23146428D02*
X62057500Y-23146428D01*
X63200357Y-22527380D02*
X63438452Y-23527380D01*
X63628928Y-22813095D01*
X63819404Y-23527380D01*
X64057500Y-22527380D01*
X64438452Y-23527380D02*
X64438452Y-22860714D01*
X64438452Y-22527380D02*
X64390833Y-22575000D01*
X64438452Y-22622619D01*
X64486071Y-22575000D01*
X64438452Y-22527380D01*
X64438452Y-22622619D01*
X65057500Y-23527380D02*
X64962261Y-23479761D01*
X64914642Y-23384523D01*
X64914642Y-22527380D01*
X65581309Y-23527380D02*
X65486071Y-23479761D01*
X65438452Y-23384523D01*
X65438452Y-22527380D01*
X65962261Y-23527380D02*
X65962261Y-22860714D01*
X65962261Y-22527380D02*
X65914642Y-22575000D01*
X65962261Y-22622619D01*
X66009880Y-22575000D01*
X65962261Y-22527380D01*
X65962261Y-22622619D01*
X66867023Y-23527380D02*
X66867023Y-23003571D01*
X66819404Y-22908333D01*
X66724166Y-22860714D01*
X66533690Y-22860714D01*
X66438452Y-22908333D01*
X66867023Y-23479761D02*
X66771785Y-23527380D01*
X66533690Y-23527380D01*
X66438452Y-23479761D01*
X66390833Y-23384523D01*
X66390833Y-23289285D01*
X66438452Y-23194047D01*
X66533690Y-23146428D01*
X66771785Y-23146428D01*
X66867023Y-23098809D01*
X67343214Y-23527380D02*
X67343214Y-22860714D01*
X67343214Y-22955952D02*
X67390833Y-22908333D01*
X67486071Y-22860714D01*
X67628928Y-22860714D01*
X67724166Y-22908333D01*
X67771785Y-23003571D01*
X67771785Y-23527380D01*
X67771785Y-23003571D02*
X67819404Y-22908333D01*
X67914642Y-22860714D01*
X68057500Y-22860714D01*
X68152738Y-22908333D01*
X68200357Y-23003571D01*
X68200357Y-23527380D01*
X69343214Y-22527380D02*
X70009880Y-23527380D01*
X70009880Y-22527380D02*
X69343214Y-23527380D01*
X70819404Y-22860714D02*
X70819404Y-23527380D01*
X70390833Y-22860714D02*
X70390833Y-23384523D01*
X70438452Y-23479761D01*
X70533690Y-23527380D01*
X70676547Y-23527380D01*
X70771785Y-23479761D01*
X70819404Y-23432142D01*
X-3302000Y-11938000D02*
G75*
G03*
X-3302000Y-13462000I0J-762000D01*
G01*
X-762000Y-13462000D02*
G75*
G03*
X-762000Y-11938000I0J762000D01*
G01*
X-3302000Y-11938000D02*
X-762000Y-11938000D01*
X-3302000Y-13462000D02*
X-762000Y-13462000D01*
X-2793905Y-12152380D02*
X-2127239Y-12152380D01*
X-2555810Y-13152380D01*
X-1889143Y-12152380D02*
X-1555810Y-13152380D01*
X-1222477Y-12152380D01*
X-3302000Y-8128000D02*
G75*
G03*
X-3302000Y-9652000I0J-762000D01*
G01*
X-762000Y-9652000D02*
G75*
G03*
X-762000Y-8128000I0J762000D01*
G01*
X-3302000Y-8128000D02*
X-762000Y-8128000D01*
X-3302000Y-9652000D02*
X-762000Y-9652000D01*
X-2770096Y-8818571D02*
X-2627239Y-8866190D01*
X-2579620Y-8913809D01*
X-2532000Y-9009047D01*
X-2532000Y-9151904D01*
X-2579620Y-9247142D01*
X-2627239Y-9294761D01*
X-2722477Y-9342380D01*
X-3103429Y-9342380D01*
X-3103429Y-8342380D01*
X-2770096Y-8342380D01*
X-2674858Y-8390000D01*
X-2627239Y-8437619D01*
X-2579620Y-8532857D01*
X-2579620Y-8628095D01*
X-2627239Y-8723333D01*
X-2674858Y-8770952D01*
X-2770096Y-8818571D01*
X-3103429Y-8818571D01*
X-2151048Y-9056666D02*
X-1674858Y-9056666D01*
X-2246286Y-9342380D02*
X-1912953Y-8342380D01*
X-1579620Y-9342380D01*
X-1389143Y-8342380D02*
X-817715Y-8342380D01*
X-1103429Y-9342380D02*
X-1103429Y-8342380D01*
X39140476Y1341429D02*
X39473809Y1341429D01*
X39616666Y817620D02*
X39140476Y817620D01*
X39140476Y1817620D01*
X39616666Y1817620D01*
X39997619Y865239D02*
X40140476Y817620D01*
X40378571Y817620D01*
X40473809Y865239D01*
X40521428Y912858D01*
X40569047Y1008096D01*
X40569047Y1103334D01*
X40521428Y1198572D01*
X40473809Y1246191D01*
X40378571Y1293810D01*
X40188095Y1341429D01*
X40092857Y1389048D01*
X40045238Y1436667D01*
X39997619Y1531905D01*
X39997619Y1627143D01*
X40045238Y1722381D01*
X40092857Y1770000D01*
X40188095Y1817620D01*
X40426190Y1817620D01*
X40569047Y1770000D01*
X40997619Y817620D02*
X40997619Y1817620D01*
X41378571Y1817620D01*
X41473809Y1770000D01*
X41521428Y1722381D01*
X41569047Y1627143D01*
X41569047Y1484286D01*
X41521428Y1389048D01*
X41473809Y1341429D01*
X41378571Y1293810D01*
X40997619Y1293810D01*
X41902380Y1817620D02*
X42521428Y1817620D01*
X42188095Y1436667D01*
X42330952Y1436667D01*
X42426190Y1389048D01*
X42473809Y1341429D01*
X42521428Y1246191D01*
X42521428Y1008096D01*
X42473809Y912858D01*
X42426190Y865239D01*
X42330952Y817620D01*
X42045238Y817620D01*
X41950000Y865239D01*
X41902380Y912858D01*
X42902380Y1722381D02*
X42950000Y1770000D01*
X43045238Y1817620D01*
X43283333Y1817620D01*
X43378571Y1770000D01*
X43426190Y1722381D01*
X43473809Y1627143D01*
X43473809Y1531905D01*
X43426190Y1389048D01*
X42854761Y817620D01*
X43473809Y817620D01*
X44997619Y1341429D02*
X44664285Y1341429D01*
X44664285Y817620D02*
X44664285Y1817620D01*
X45140476Y1817620D01*
X45902380Y865239D02*
X45807142Y817620D01*
X45616666Y817620D01*
X45521428Y865239D01*
X45473809Y960477D01*
X45473809Y1341429D01*
X45521428Y1436667D01*
X45616666Y1484286D01*
X45807142Y1484286D01*
X45902380Y1436667D01*
X45950000Y1341429D01*
X45950000Y1246191D01*
X45473809Y1150953D01*
X46807142Y817620D02*
X46807142Y1341429D01*
X46759523Y1436667D01*
X46664285Y1484286D01*
X46473809Y1484286D01*
X46378571Y1436667D01*
X46807142Y865239D02*
X46711904Y817620D01*
X46473809Y817620D01*
X46378571Y865239D01*
X46330952Y960477D01*
X46330952Y1055715D01*
X46378571Y1150953D01*
X46473809Y1198572D01*
X46711904Y1198572D01*
X46807142Y1246191D01*
X47140476Y1484286D02*
X47521428Y1484286D01*
X47283333Y1817620D02*
X47283333Y960477D01*
X47330952Y865239D01*
X47426190Y817620D01*
X47521428Y817620D01*
X47854761Y817620D02*
X47854761Y1817620D01*
X48283333Y817620D02*
X48283333Y1341429D01*
X48235714Y1436667D01*
X48140476Y1484286D01*
X47997619Y1484286D01*
X47902380Y1436667D01*
X47854761Y1389048D01*
X49140476Y865239D02*
X49045238Y817620D01*
X48854761Y817620D01*
X48759523Y865239D01*
X48711904Y960477D01*
X48711904Y1341429D01*
X48759523Y1436667D01*
X48854761Y1484286D01*
X49045238Y1484286D01*
X49140476Y1436667D01*
X49188095Y1341429D01*
X49188095Y1246191D01*
X48711904Y1150953D01*
X49616666Y817620D02*
X49616666Y1484286D01*
X49616666Y1293810D02*
X49664285Y1389048D01*
X49711904Y1436667D01*
X49807142Y1484286D01*
X49902380Y1484286D01*
X67310000Y-1016000D02*
G75*
G03*
X67310000Y-2540000I0J-762000D01*
G01*
X67310000Y-1016000D02*
X69850000Y-1016000D01*
X67310000Y-2540000D02*
X69850000Y-2540000D01*
X68389523Y-1230380D02*
X67913333Y-1230380D01*
X67865714Y-1706571D01*
X67913333Y-1658952D01*
X68008571Y-1611333D01*
X68246666Y-1611333D01*
X68341904Y-1658952D01*
X68389523Y-1706571D01*
X68437142Y-1801809D01*
X68437142Y-2039904D01*
X68389523Y-2135142D01*
X68341904Y-2182761D01*
X68246666Y-2230380D01*
X68008571Y-2230380D01*
X67913333Y-2182761D01*
X67865714Y-2135142D01*
X68722857Y-1230380D02*
X69056190Y-2230380D01*
X69389523Y-1230380D01*
X69850000Y-2540000D02*
G75*
G03*
X69850000Y-1016000I0J762000D01*
G01*
X60990000Y-1016000D02*
G75*
G03*
X60990000Y-2540000I0J-762000D01*
G01*
X60990000Y-1016000D02*
X63530000Y-1016000D01*
X60990000Y-2540000D02*
X63530000Y-2540000D01*
X61021904Y-1230380D02*
X61640952Y-1230380D01*
X61307619Y-1611333D01*
X61450476Y-1611333D01*
X61545714Y-1658952D01*
X61593333Y-1706571D01*
X61640952Y-1801809D01*
X61640952Y-2039904D01*
X61593333Y-2135142D01*
X61545714Y-2182761D01*
X61450476Y-2230380D01*
X61164761Y-2230380D01*
X61069523Y-2182761D01*
X61021904Y-2135142D01*
X61926666Y-1230380D02*
X62260000Y-2230380D01*
X62593333Y-1230380D01*
X62831428Y-1230380D02*
X63450476Y-1230380D01*
X63117142Y-1611333D01*
X63260000Y-1611333D01*
X63355238Y-1658952D01*
X63402857Y-1706571D01*
X63450476Y-1801809D01*
X63450476Y-2039904D01*
X63402857Y-2135142D01*
X63355238Y-2182761D01*
X63260000Y-2230380D01*
X62974285Y-2230380D01*
X62879047Y-2182761D01*
X62831428Y-2135142D01*
X63530000Y-2540000D02*
G75*
G03*
X63530000Y-1016000I0J762000D01*
G01*
X-1270000Y-23368000D02*
X-1270000Y-17780000D01*
X80010000Y-2540000D02*
X82550000Y-2540000D01*
X-2794000Y-23368000D02*
G75*
G03*
X-1270000Y-23368000I762000J0D01*
G01*
X-1270000Y-17780000D02*
G75*
G03*
X-2794000Y-17780000I-762000J0D01*
G01*
X80010000Y-1016000D02*
X82550000Y-1016000D01*
X82550000Y-2540000D02*
G75*
G03*
X82550000Y-1016000I0J762000D01*
G01*
X76200000Y-2540000D02*
G75*
G03*
X76200000Y-1016000I0J762000D01*
G01*
X73660000Y-1016000D02*
X76200000Y-1016000D01*
X80010000Y-1016000D02*
G75*
G03*
X80010000Y-2540000I0J-762000D01*
G01*
X73660000Y-2540000D02*
X76200000Y-2540000D01*
X-2794000Y-23368000D02*
X-2794000Y-17780000D01*
X73660000Y-1016000D02*
G75*
G03*
X73660000Y-2540000I0J-762000D01*
G01*
X80089523Y-2182761D02*
X80232380Y-2230380D01*
X80470476Y-2230380D01*
X80565714Y-2182761D01*
X80613333Y-2135142D01*
X80660952Y-2039904D01*
X80660952Y-1944666D01*
X80613333Y-1849428D01*
X80565714Y-1801809D01*
X80470476Y-1754190D01*
X80280000Y-1706571D01*
X80184761Y-1658952D01*
X80137142Y-1611333D01*
X80089523Y-1516095D01*
X80089523Y-1420857D01*
X80137142Y-1325619D01*
X80184761Y-1278000D01*
X80280000Y-1230380D01*
X80518095Y-1230380D01*
X80660952Y-1278000D01*
X81660952Y-2135142D02*
X81613333Y-2182761D01*
X81470476Y-2230380D01*
X81375238Y-2230380D01*
X81232380Y-2182761D01*
X81137142Y-2087523D01*
X81089523Y-1992285D01*
X81041904Y-1801809D01*
X81041904Y-1658952D01*
X81089523Y-1468476D01*
X81137142Y-1373238D01*
X81232380Y-1278000D01*
X81375238Y-1230380D01*
X81470476Y-1230380D01*
X81613333Y-1278000D01*
X81660952Y-1325619D01*
X82565714Y-2230380D02*
X82089523Y-2230380D01*
X82089523Y-1230380D01*
X73715714Y-2182761D02*
X73858571Y-2230380D01*
X74096666Y-2230380D01*
X74191904Y-2182761D01*
X74239523Y-2135142D01*
X74287142Y-2039904D01*
X74287142Y-1944666D01*
X74239523Y-1849428D01*
X74191904Y-1801809D01*
X74096666Y-1754190D01*
X73906190Y-1706571D01*
X73810952Y-1658952D01*
X73763333Y-1611333D01*
X73715714Y-1516095D01*
X73715714Y-1420857D01*
X73763333Y-1325619D01*
X73810952Y-1278000D01*
X73906190Y-1230380D01*
X74144285Y-1230380D01*
X74287142Y-1278000D01*
X74715714Y-2230380D02*
X74715714Y-1230380D01*
X74953809Y-1230380D01*
X75096666Y-1278000D01*
X75191904Y-1373238D01*
X75239523Y-1468476D01*
X75287142Y-1658952D01*
X75287142Y-1801809D01*
X75239523Y-1992285D01*
X75191904Y-2087523D01*
X75096666Y-2182761D01*
X74953809Y-2230380D01*
X74715714Y-2230380D01*
X75668095Y-1944666D02*
X76144285Y-1944666D01*
X75572857Y-2230380D02*
X75906190Y-1230380D01*
X76239523Y-2230380D01*
X-2579620Y-22843809D02*
X-2579620Y-22653333D01*
X-2532000Y-22558095D01*
X-2436762Y-22462857D01*
X-2246286Y-22415238D01*
X-1912953Y-22415238D01*
X-1722477Y-22462857D01*
X-1627239Y-22558095D01*
X-1579620Y-22653333D01*
X-1579620Y-22843809D01*
X-1627239Y-22939047D01*
X-1722477Y-23034285D01*
X-1912953Y-23081904D01*
X-2246286Y-23081904D01*
X-2436762Y-23034285D01*
X-2532000Y-22939047D01*
X-2579620Y-22843809D01*
X-1579620Y-21986666D02*
X-2579620Y-21986666D01*
X-1579620Y-21415238D01*
X-2579620Y-21415238D01*
X-2627239Y-20224761D02*
X-1341524Y-21081904D01*
X-2579620Y-19700952D02*
X-2579620Y-19510476D01*
X-2532000Y-19415238D01*
X-2436762Y-19320000D01*
X-2246286Y-19272380D01*
X-1912953Y-19272380D01*
X-1722477Y-19320000D01*
X-1627239Y-19415238D01*
X-1579620Y-19510476D01*
X-1579620Y-19700952D01*
X-1627239Y-19796190D01*
X-1722477Y-19891428D01*
X-1912953Y-19939047D01*
X-2246286Y-19939047D01*
X-2436762Y-19891428D01*
X-2532000Y-19796190D01*
X-2579620Y-19700952D01*
X-2103429Y-18510476D02*
X-2103429Y-18843809D01*
X-1579620Y-18843809D02*
X-2579620Y-18843809D01*
X-2579620Y-18367619D01*
X-2103429Y-17653333D02*
X-2103429Y-17986666D01*
X-1579620Y-17986666D02*
X-2579620Y-17986666D01*
X-2579620Y-17510476D01*
%TO.C,J12*%
X76685476Y-29727380D02*
X76685476Y-30441666D01*
X76637857Y-30584523D01*
X76542619Y-30679761D01*
X76399761Y-30727380D01*
X76304523Y-30727380D01*
X77685476Y-30727380D02*
X77114047Y-30727380D01*
X77399761Y-30727380D02*
X77399761Y-29727380D01*
X77304523Y-29870238D01*
X77209285Y-29965476D01*
X77114047Y-30013095D01*
X78066428Y-29822619D02*
X78114047Y-29775000D01*
X78209285Y-29727380D01*
X78447380Y-29727380D01*
X78542619Y-29775000D01*
X78590238Y-29822619D01*
X78637857Y-29917857D01*
X78637857Y-30013095D01*
X78590238Y-30155952D01*
X78018809Y-30727380D01*
X78637857Y-30727380D01*
%TO.C,R1*%
X27502380Y-21231666D02*
X27026190Y-21565000D01*
X27502380Y-21803095D02*
X26502380Y-21803095D01*
X26502380Y-21422142D01*
X26550000Y-21326904D01*
X26597619Y-21279285D01*
X26692857Y-21231666D01*
X26835714Y-21231666D01*
X26930952Y-21279285D01*
X26978571Y-21326904D01*
X27026190Y-21422142D01*
X27026190Y-21803095D01*
X27502380Y-20279285D02*
X27502380Y-20850714D01*
X27502380Y-20565000D02*
X26502380Y-20565000D01*
X26645238Y-20660238D01*
X26740476Y-20755476D01*
X26788095Y-20850714D01*
%TO.C,JP1*%
X8056666Y-7437380D02*
X8056666Y-8151666D01*
X8009047Y-8294523D01*
X7913809Y-8389761D01*
X7770952Y-8437380D01*
X7675714Y-8437380D01*
X8532857Y-8437380D02*
X8532857Y-7437380D01*
X8913809Y-7437380D01*
X9009047Y-7485000D01*
X9056666Y-7532619D01*
X9104285Y-7627857D01*
X9104285Y-7770714D01*
X9056666Y-7865952D01*
X9009047Y-7913571D01*
X8913809Y-7961190D01*
X8532857Y-7961190D01*
X10056666Y-8437380D02*
X9485238Y-8437380D01*
X9770952Y-8437380D02*
X9770952Y-7437380D01*
X9675714Y-7580238D01*
X9580476Y-7675476D01*
X9485238Y-7723095D01*
%TO.C,J9*%
X11121666Y-29727380D02*
X11121666Y-30441666D01*
X11074047Y-30584523D01*
X10978809Y-30679761D01*
X10835952Y-30727380D01*
X10740714Y-30727380D01*
X11645476Y-30727380D02*
X11835952Y-30727380D01*
X11931190Y-30679761D01*
X11978809Y-30632142D01*
X12074047Y-30489285D01*
X12121666Y-30298809D01*
X12121666Y-29917857D01*
X12074047Y-29822619D01*
X12026428Y-29775000D01*
X11931190Y-29727380D01*
X11740714Y-29727380D01*
X11645476Y-29775000D01*
X11597857Y-29822619D01*
X11550238Y-29917857D01*
X11550238Y-30155952D01*
X11597857Y-30251190D01*
X11645476Y-30298809D01*
X11740714Y-30346428D01*
X11931190Y-30346428D01*
X12026428Y-30298809D01*
X12074047Y-30251190D01*
X12121666Y-30155952D01*
%TO.C,C5*%
X26503333Y-24752142D02*
X26455714Y-24799761D01*
X26312857Y-24847380D01*
X26217619Y-24847380D01*
X26074761Y-24799761D01*
X25979523Y-24704523D01*
X25931904Y-24609285D01*
X25884285Y-24418809D01*
X25884285Y-24275952D01*
X25931904Y-24085476D01*
X25979523Y-23990238D01*
X26074761Y-23895000D01*
X26217619Y-23847380D01*
X26312857Y-23847380D01*
X26455714Y-23895000D01*
X26503333Y-23942619D01*
X27408095Y-23847380D02*
X26931904Y-23847380D01*
X26884285Y-24323571D01*
X26931904Y-24275952D01*
X27027142Y-24228333D01*
X27265238Y-24228333D01*
X27360476Y-24275952D01*
X27408095Y-24323571D01*
X27455714Y-24418809D01*
X27455714Y-24656904D01*
X27408095Y-24752142D01*
X27360476Y-24799761D01*
X27265238Y-24847380D01*
X27027142Y-24847380D01*
X26931904Y-24799761D01*
X26884285Y-24752142D01*
%TO.C,TP1*%
X67140380Y-34281904D02*
X67140380Y-33710476D01*
X68140380Y-33996190D02*
X67140380Y-33996190D01*
X68140380Y-33377142D02*
X67140380Y-33377142D01*
X67140380Y-32996190D01*
X67188000Y-32900952D01*
X67235619Y-32853333D01*
X67330857Y-32805714D01*
X67473714Y-32805714D01*
X67568952Y-32853333D01*
X67616571Y-32900952D01*
X67664190Y-32996190D01*
X67664190Y-33377142D01*
X68140380Y-31853333D02*
X68140380Y-32424761D01*
X68140380Y-32139047D02*
X67140380Y-32139047D01*
X67283238Y-32234285D01*
X67378476Y-32329523D01*
X67426095Y-32424761D01*
%TO.C,R14*%
X61617142Y-7692380D02*
X61283809Y-7216190D01*
X61045714Y-7692380D02*
X61045714Y-6692380D01*
X61426666Y-6692380D01*
X61521904Y-6740000D01*
X61569523Y-6787619D01*
X61617142Y-6882857D01*
X61617142Y-7025714D01*
X61569523Y-7120952D01*
X61521904Y-7168571D01*
X61426666Y-7216190D01*
X61045714Y-7216190D01*
X62569523Y-7692380D02*
X61998095Y-7692380D01*
X62283809Y-7692380D02*
X62283809Y-6692380D01*
X62188571Y-6835238D01*
X62093333Y-6930476D01*
X61998095Y-6978095D01*
X63426666Y-7025714D02*
X63426666Y-7692380D01*
X63188571Y-6644761D02*
X62950476Y-7359047D01*
X63569523Y-7359047D01*
%TO.C,TP14*%
X17341904Y-44442380D02*
X17913333Y-44442380D01*
X17627619Y-45442380D02*
X17627619Y-44442380D01*
X18246666Y-45442380D02*
X18246666Y-44442380D01*
X18627619Y-44442380D01*
X18722857Y-44490000D01*
X18770476Y-44537619D01*
X18818095Y-44632857D01*
X18818095Y-44775714D01*
X18770476Y-44870952D01*
X18722857Y-44918571D01*
X18627619Y-44966190D01*
X18246666Y-44966190D01*
X19770476Y-45442380D02*
X19199047Y-45442380D01*
X19484761Y-45442380D02*
X19484761Y-44442380D01*
X19389523Y-44585238D01*
X19294285Y-44680476D01*
X19199047Y-44728095D01*
X20627619Y-44775714D02*
X20627619Y-45442380D01*
X20389523Y-44394761D02*
X20151428Y-45109047D01*
X20770476Y-45109047D01*
%TO.C,TP24*%
X66871904Y3817620D02*
X67443333Y3817620D01*
X67157619Y2817620D02*
X67157619Y3817620D01*
X67776666Y2817620D02*
X67776666Y3817620D01*
X68157619Y3817620D01*
X68252857Y3770000D01*
X68300476Y3722381D01*
X68348095Y3627143D01*
X68348095Y3484286D01*
X68300476Y3389048D01*
X68252857Y3341429D01*
X68157619Y3293810D01*
X67776666Y3293810D01*
X68729047Y3722381D02*
X68776666Y3770000D01*
X68871904Y3817620D01*
X69110000Y3817620D01*
X69205238Y3770000D01*
X69252857Y3722381D01*
X69300476Y3627143D01*
X69300476Y3531905D01*
X69252857Y3389048D01*
X68681428Y2817620D01*
X69300476Y2817620D01*
X70157619Y3484286D02*
X70157619Y2817620D01*
X69919523Y3865239D02*
X69681428Y3150953D01*
X70300476Y3150953D01*
%TO.C,J8*%
X61921666Y-29702380D02*
X61921666Y-30416666D01*
X61874047Y-30559523D01*
X61778809Y-30654761D01*
X61635952Y-30702380D01*
X61540714Y-30702380D01*
X62540714Y-30130952D02*
X62445476Y-30083333D01*
X62397857Y-30035714D01*
X62350238Y-29940476D01*
X62350238Y-29892857D01*
X62397857Y-29797619D01*
X62445476Y-29750000D01*
X62540714Y-29702380D01*
X62731190Y-29702380D01*
X62826428Y-29750000D01*
X62874047Y-29797619D01*
X62921666Y-29892857D01*
X62921666Y-29940476D01*
X62874047Y-30035714D01*
X62826428Y-30083333D01*
X62731190Y-30130952D01*
X62540714Y-30130952D01*
X62445476Y-30178571D01*
X62397857Y-30226190D01*
X62350238Y-30321428D01*
X62350238Y-30511904D01*
X62397857Y-30607142D01*
X62445476Y-30654761D01*
X62540714Y-30702380D01*
X62731190Y-30702380D01*
X62826428Y-30654761D01*
X62874047Y-30607142D01*
X62921666Y-30511904D01*
X62921666Y-30321428D01*
X62874047Y-30226190D01*
X62826428Y-30178571D01*
X62731190Y-30130952D01*
%TO.C,J4*%
X28876666Y-52192380D02*
X28876666Y-52906666D01*
X28829047Y-53049523D01*
X28733809Y-53144761D01*
X28590952Y-53192380D01*
X28495714Y-53192380D01*
X29781428Y-52525714D02*
X29781428Y-53192380D01*
X29543333Y-52144761D02*
X29305238Y-52859047D01*
X29924285Y-52859047D01*
%TO.C,TP3*%
X67140380Y-39361904D02*
X67140380Y-38790476D01*
X68140380Y-39076190D02*
X67140380Y-39076190D01*
X68140380Y-38457142D02*
X67140380Y-38457142D01*
X67140380Y-38076190D01*
X67188000Y-37980952D01*
X67235619Y-37933333D01*
X67330857Y-37885714D01*
X67473714Y-37885714D01*
X67568952Y-37933333D01*
X67616571Y-37980952D01*
X67664190Y-38076190D01*
X67664190Y-38457142D01*
X67140380Y-37552380D02*
X67140380Y-36933333D01*
X67521333Y-37266666D01*
X67521333Y-37123809D01*
X67568952Y-37028571D01*
X67616571Y-36980952D01*
X67711809Y-36933333D01*
X67949904Y-36933333D01*
X68045142Y-36980952D01*
X68092761Y-37028571D01*
X68140380Y-37123809D01*
X68140380Y-37409523D01*
X68092761Y-37504761D01*
X68045142Y-37552380D01*
%TO.C,TP6*%
X16340380Y-36821904D02*
X16340380Y-36250476D01*
X17340380Y-36536190D02*
X16340380Y-36536190D01*
X17340380Y-35917142D02*
X16340380Y-35917142D01*
X16340380Y-35536190D01*
X16388000Y-35440952D01*
X16435619Y-35393333D01*
X16530857Y-35345714D01*
X16673714Y-35345714D01*
X16768952Y-35393333D01*
X16816571Y-35440952D01*
X16864190Y-35536190D01*
X16864190Y-35917142D01*
X16340380Y-34488571D02*
X16340380Y-34679047D01*
X16388000Y-34774285D01*
X16435619Y-34821904D01*
X16578476Y-34917142D01*
X16768952Y-34964761D01*
X17149904Y-34964761D01*
X17245142Y-34917142D01*
X17292761Y-34869523D01*
X17340380Y-34774285D01*
X17340380Y-34583809D01*
X17292761Y-34488571D01*
X17245142Y-34440952D01*
X17149904Y-34393333D01*
X16911809Y-34393333D01*
X16816571Y-34440952D01*
X16768952Y-34488571D01*
X16721333Y-34583809D01*
X16721333Y-34774285D01*
X16768952Y-34869523D01*
X16816571Y-34917142D01*
X16911809Y-34964761D01*
%TO.C,H4*%
X-761905Y-60152380D02*
X-761905Y-59152380D01*
X-761905Y-59628571D02*
X-190477Y-59628571D01*
X-190477Y-60152380D02*
X-190477Y-59152380D01*
X714285Y-59485714D02*
X714285Y-60152380D01*
X476190Y-59104761D02*
X238095Y-59819047D01*
X857142Y-59819047D01*
%TO.C,R8*%
X45553333Y-49602380D02*
X45220000Y-49126190D01*
X44981904Y-49602380D02*
X44981904Y-48602380D01*
X45362857Y-48602380D01*
X45458095Y-48650000D01*
X45505714Y-48697619D01*
X45553333Y-48792857D01*
X45553333Y-48935714D01*
X45505714Y-49030952D01*
X45458095Y-49078571D01*
X45362857Y-49126190D01*
X44981904Y-49126190D01*
X46124761Y-49030952D02*
X46029523Y-48983333D01*
X45981904Y-48935714D01*
X45934285Y-48840476D01*
X45934285Y-48792857D01*
X45981904Y-48697619D01*
X46029523Y-48650000D01*
X46124761Y-48602380D01*
X46315238Y-48602380D01*
X46410476Y-48650000D01*
X46458095Y-48697619D01*
X46505714Y-48792857D01*
X46505714Y-48840476D01*
X46458095Y-48935714D01*
X46410476Y-48983333D01*
X46315238Y-49030952D01*
X46124761Y-49030952D01*
X46029523Y-49078571D01*
X45981904Y-49126190D01*
X45934285Y-49221428D01*
X45934285Y-49411904D01*
X45981904Y-49507142D01*
X46029523Y-49554761D01*
X46124761Y-49602380D01*
X46315238Y-49602380D01*
X46410476Y-49554761D01*
X46458095Y-49507142D01*
X46505714Y-49411904D01*
X46505714Y-49221428D01*
X46458095Y-49126190D01*
X46410476Y-49078571D01*
X46315238Y-49030952D01*
%TO.C,TP26*%
X65601904Y-45712380D02*
X66173333Y-45712380D01*
X65887619Y-46712380D02*
X65887619Y-45712380D01*
X66506666Y-46712380D02*
X66506666Y-45712380D01*
X66887619Y-45712380D01*
X66982857Y-45760000D01*
X67030476Y-45807619D01*
X67078095Y-45902857D01*
X67078095Y-46045714D01*
X67030476Y-46140952D01*
X66982857Y-46188571D01*
X66887619Y-46236190D01*
X66506666Y-46236190D01*
X67459047Y-45807619D02*
X67506666Y-45760000D01*
X67601904Y-45712380D01*
X67840000Y-45712380D01*
X67935238Y-45760000D01*
X67982857Y-45807619D01*
X68030476Y-45902857D01*
X68030476Y-45998095D01*
X67982857Y-46140952D01*
X67411428Y-46712380D01*
X68030476Y-46712380D01*
X68887619Y-45712380D02*
X68697142Y-45712380D01*
X68601904Y-45760000D01*
X68554285Y-45807619D01*
X68459047Y-45950476D01*
X68411428Y-46140952D01*
X68411428Y-46521904D01*
X68459047Y-46617142D01*
X68506666Y-46664761D01*
X68601904Y-46712380D01*
X68792380Y-46712380D01*
X68887619Y-46664761D01*
X68935238Y-46617142D01*
X68982857Y-46521904D01*
X68982857Y-46283809D01*
X68935238Y-46188571D01*
X68887619Y-46140952D01*
X68792380Y-46093333D01*
X68601904Y-46093333D01*
X68506666Y-46140952D01*
X68459047Y-46188571D01*
X68411428Y-46283809D01*
%TO.C,D1*%
X61521904Y-4102380D02*
X61521904Y-3102380D01*
X61760000Y-3102380D01*
X61902857Y-3150000D01*
X61998095Y-3245238D01*
X62045714Y-3340476D01*
X62093333Y-3530952D01*
X62093333Y-3673809D01*
X62045714Y-3864285D01*
X61998095Y-3959523D01*
X61902857Y-4054761D01*
X61760000Y-4102380D01*
X61521904Y-4102380D01*
X63045714Y-4102380D02*
X62474285Y-4102380D01*
X62760000Y-4102380D02*
X62760000Y-3102380D01*
X62664761Y-3245238D01*
X62569523Y-3340476D01*
X62474285Y-3388095D01*
%TO.C,R3*%
X18883333Y-52902380D02*
X18550000Y-52426190D01*
X18311904Y-52902380D02*
X18311904Y-51902380D01*
X18692857Y-51902380D01*
X18788095Y-51950000D01*
X18835714Y-51997619D01*
X18883333Y-52092857D01*
X18883333Y-52235714D01*
X18835714Y-52330952D01*
X18788095Y-52378571D01*
X18692857Y-52426190D01*
X18311904Y-52426190D01*
X19216666Y-51902380D02*
X19835714Y-51902380D01*
X19502380Y-52283333D01*
X19645238Y-52283333D01*
X19740476Y-52330952D01*
X19788095Y-52378571D01*
X19835714Y-52473809D01*
X19835714Y-52711904D01*
X19788095Y-52807142D01*
X19740476Y-52854761D01*
X19645238Y-52902380D01*
X19359523Y-52902380D01*
X19264285Y-52854761D01*
X19216666Y-52807142D01*
%TO.C,R15*%
X67937142Y-7692380D02*
X67603809Y-7216190D01*
X67365714Y-7692380D02*
X67365714Y-6692380D01*
X67746666Y-6692380D01*
X67841904Y-6740000D01*
X67889523Y-6787619D01*
X67937142Y-6882857D01*
X67937142Y-7025714D01*
X67889523Y-7120952D01*
X67841904Y-7168571D01*
X67746666Y-7216190D01*
X67365714Y-7216190D01*
X68889523Y-7692380D02*
X68318095Y-7692380D01*
X68603809Y-7692380D02*
X68603809Y-6692380D01*
X68508571Y-6835238D01*
X68413333Y-6930476D01*
X68318095Y-6978095D01*
X69794285Y-6692380D02*
X69318095Y-6692380D01*
X69270476Y-7168571D01*
X69318095Y-7120952D01*
X69413333Y-7073333D01*
X69651428Y-7073333D01*
X69746666Y-7120952D01*
X69794285Y-7168571D01*
X69841904Y-7263809D01*
X69841904Y-7501904D01*
X69794285Y-7597142D01*
X69746666Y-7644761D01*
X69651428Y-7692380D01*
X69413333Y-7692380D01*
X69318095Y-7644761D01*
X69270476Y-7597142D01*
%TO.C,TP13*%
X2101904Y-52062380D02*
X2673333Y-52062380D01*
X2387619Y-53062380D02*
X2387619Y-52062380D01*
X3006666Y-53062380D02*
X3006666Y-52062380D01*
X3387619Y-52062380D01*
X3482857Y-52110000D01*
X3530476Y-52157619D01*
X3578095Y-52252857D01*
X3578095Y-52395714D01*
X3530476Y-52490952D01*
X3482857Y-52538571D01*
X3387619Y-52586190D01*
X3006666Y-52586190D01*
X4530476Y-53062380D02*
X3959047Y-53062380D01*
X4244761Y-53062380D02*
X4244761Y-52062380D01*
X4149523Y-52205238D01*
X4054285Y-52300476D01*
X3959047Y-52348095D01*
X4863809Y-52062380D02*
X5482857Y-52062380D01*
X5149523Y-52443333D01*
X5292380Y-52443333D01*
X5387619Y-52490952D01*
X5435238Y-52538571D01*
X5482857Y-52633809D01*
X5482857Y-52871904D01*
X5435238Y-52967142D01*
X5387619Y-53014761D01*
X5292380Y-53062380D01*
X5006666Y-53062380D01*
X4911428Y-53014761D01*
X4863809Y-52967142D01*
%TO.C,TP25*%
X60521904Y3817620D02*
X61093333Y3817620D01*
X60807619Y2817620D02*
X60807619Y3817620D01*
X61426666Y2817620D02*
X61426666Y3817620D01*
X61807619Y3817620D01*
X61902857Y3770000D01*
X61950476Y3722381D01*
X61998095Y3627143D01*
X61998095Y3484286D01*
X61950476Y3389048D01*
X61902857Y3341429D01*
X61807619Y3293810D01*
X61426666Y3293810D01*
X62379047Y3722381D02*
X62426666Y3770000D01*
X62521904Y3817620D01*
X62760000Y3817620D01*
X62855238Y3770000D01*
X62902857Y3722381D01*
X62950476Y3627143D01*
X62950476Y3531905D01*
X62902857Y3389048D01*
X62331428Y2817620D01*
X62950476Y2817620D01*
X63855238Y3817620D02*
X63379047Y3817620D01*
X63331428Y3341429D01*
X63379047Y3389048D01*
X63474285Y3436667D01*
X63712380Y3436667D01*
X63807619Y3389048D01*
X63855238Y3341429D01*
X63902857Y3246191D01*
X63902857Y3008096D01*
X63855238Y2912858D01*
X63807619Y2865239D01*
X63712380Y2817620D01*
X63474285Y2817620D01*
X63379047Y2865239D01*
X63331428Y2912858D01*
%TO.C,C4*%
X23963333Y-13322142D02*
X23915714Y-13369761D01*
X23772857Y-13417380D01*
X23677619Y-13417380D01*
X23534761Y-13369761D01*
X23439523Y-13274523D01*
X23391904Y-13179285D01*
X23344285Y-12988809D01*
X23344285Y-12845952D01*
X23391904Y-12655476D01*
X23439523Y-12560238D01*
X23534761Y-12465000D01*
X23677619Y-12417380D01*
X23772857Y-12417380D01*
X23915714Y-12465000D01*
X23963333Y-12512619D01*
X24820476Y-12750714D02*
X24820476Y-13417380D01*
X24582380Y-12369761D02*
X24344285Y-13084047D01*
X24963333Y-13084047D01*
%TO.C,J13*%
X26170476Y-29727380D02*
X26170476Y-30441666D01*
X26122857Y-30584523D01*
X26027619Y-30679761D01*
X25884761Y-30727380D01*
X25789523Y-30727380D01*
X27170476Y-30727380D02*
X26599047Y-30727380D01*
X26884761Y-30727380D02*
X26884761Y-29727380D01*
X26789523Y-29870238D01*
X26694285Y-29965476D01*
X26599047Y-30013095D01*
X27503809Y-29727380D02*
X28122857Y-29727380D01*
X27789523Y-30108333D01*
X27932380Y-30108333D01*
X28027619Y-30155952D01*
X28075238Y-30203571D01*
X28122857Y-30298809D01*
X28122857Y-30536904D01*
X28075238Y-30632142D01*
X28027619Y-30679761D01*
X27932380Y-30727380D01*
X27646666Y-30727380D01*
X27551428Y-30679761D01*
X27503809Y-30632142D01*
%TO.C,TP27*%
X70681904Y-45712380D02*
X71253333Y-45712380D01*
X70967619Y-46712380D02*
X70967619Y-45712380D01*
X71586666Y-46712380D02*
X71586666Y-45712380D01*
X71967619Y-45712380D01*
X72062857Y-45760000D01*
X72110476Y-45807619D01*
X72158095Y-45902857D01*
X72158095Y-46045714D01*
X72110476Y-46140952D01*
X72062857Y-46188571D01*
X71967619Y-46236190D01*
X71586666Y-46236190D01*
X72539047Y-45807619D02*
X72586666Y-45760000D01*
X72681904Y-45712380D01*
X72920000Y-45712380D01*
X73015238Y-45760000D01*
X73062857Y-45807619D01*
X73110476Y-45902857D01*
X73110476Y-45998095D01*
X73062857Y-46140952D01*
X72491428Y-46712380D01*
X73110476Y-46712380D01*
X73443809Y-45712380D02*
X74110476Y-45712380D01*
X73681904Y-46712380D01*
%TO.C,C3*%
X23963333Y-8242142D02*
X23915714Y-8289761D01*
X23772857Y-8337380D01*
X23677619Y-8337380D01*
X23534761Y-8289761D01*
X23439523Y-8194523D01*
X23391904Y-8099285D01*
X23344285Y-7908809D01*
X23344285Y-7765952D01*
X23391904Y-7575476D01*
X23439523Y-7480238D01*
X23534761Y-7385000D01*
X23677619Y-7337380D01*
X23772857Y-7337380D01*
X23915714Y-7385000D01*
X23963333Y-7432619D01*
X24296666Y-7337380D02*
X24915714Y-7337380D01*
X24582380Y-7718333D01*
X24725238Y-7718333D01*
X24820476Y-7765952D01*
X24868095Y-7813571D01*
X24915714Y-7908809D01*
X24915714Y-8146904D01*
X24868095Y-8242142D01*
X24820476Y-8289761D01*
X24725238Y-8337380D01*
X24439523Y-8337380D01*
X24344285Y-8289761D01*
X24296666Y-8242142D01*
%TO.C,R4*%
X16072380Y-26311666D02*
X15596190Y-26645000D01*
X16072380Y-26883095D02*
X15072380Y-26883095D01*
X15072380Y-26502142D01*
X15120000Y-26406904D01*
X15167619Y-26359285D01*
X15262857Y-26311666D01*
X15405714Y-26311666D01*
X15500952Y-26359285D01*
X15548571Y-26406904D01*
X15596190Y-26502142D01*
X15596190Y-26883095D01*
X15405714Y-25454523D02*
X16072380Y-25454523D01*
X15024761Y-25692619D02*
X15739047Y-25930714D01*
X15739047Y-25311666D01*
%TO.C,TP16*%
X79571904Y3817620D02*
X80143333Y3817620D01*
X79857619Y2817620D02*
X79857619Y3817620D01*
X80476666Y2817620D02*
X80476666Y3817620D01*
X80857619Y3817620D01*
X80952857Y3770000D01*
X81000476Y3722381D01*
X81048095Y3627143D01*
X81048095Y3484286D01*
X81000476Y3389048D01*
X80952857Y3341429D01*
X80857619Y3293810D01*
X80476666Y3293810D01*
X82000476Y2817620D02*
X81429047Y2817620D01*
X81714761Y2817620D02*
X81714761Y3817620D01*
X81619523Y3674762D01*
X81524285Y3579524D01*
X81429047Y3531905D01*
X82857619Y3817620D02*
X82667142Y3817620D01*
X82571904Y3770000D01*
X82524285Y3722381D01*
X82429047Y3579524D01*
X82381428Y3389048D01*
X82381428Y3008096D01*
X82429047Y2912858D01*
X82476666Y2865239D01*
X82571904Y2817620D01*
X82762380Y2817620D01*
X82857619Y2865239D01*
X82905238Y2912858D01*
X82952857Y3008096D01*
X82952857Y3246191D01*
X82905238Y3341429D01*
X82857619Y3389048D01*
X82762380Y3436667D01*
X82571904Y3436667D01*
X82476666Y3389048D01*
X82429047Y3341429D01*
X82381428Y3246191D01*
%TO.C,J1*%
X13576666Y-52192380D02*
X13576666Y-52906666D01*
X13529047Y-53049523D01*
X13433809Y-53144761D01*
X13290952Y-53192380D01*
X13195714Y-53192380D01*
X14576666Y-53192380D02*
X14005238Y-53192380D01*
X14290952Y-53192380D02*
X14290952Y-52192380D01*
X14195714Y-52335238D01*
X14100476Y-52430476D01*
X14005238Y-52478095D01*
%TO.C,TP2*%
X67140380Y-36821904D02*
X67140380Y-36250476D01*
X68140380Y-36536190D02*
X67140380Y-36536190D01*
X68140380Y-35917142D02*
X67140380Y-35917142D01*
X67140380Y-35536190D01*
X67188000Y-35440952D01*
X67235619Y-35393333D01*
X67330857Y-35345714D01*
X67473714Y-35345714D01*
X67568952Y-35393333D01*
X67616571Y-35440952D01*
X67664190Y-35536190D01*
X67664190Y-35917142D01*
X67235619Y-34964761D02*
X67188000Y-34917142D01*
X67140380Y-34821904D01*
X67140380Y-34583809D01*
X67188000Y-34488571D01*
X67235619Y-34440952D01*
X67330857Y-34393333D01*
X67426095Y-34393333D01*
X67568952Y-34440952D01*
X68140380Y-35012380D01*
X68140380Y-34393333D01*
%TO.C,J5*%
X44116666Y-52192380D02*
X44116666Y-52906666D01*
X44069047Y-53049523D01*
X43973809Y-53144761D01*
X43830952Y-53192380D01*
X43735714Y-53192380D01*
X45069047Y-52192380D02*
X44592857Y-52192380D01*
X44545238Y-52668571D01*
X44592857Y-52620952D01*
X44688095Y-52573333D01*
X44926190Y-52573333D01*
X45021428Y-52620952D01*
X45069047Y-52668571D01*
X45116666Y-52763809D01*
X45116666Y-53001904D01*
X45069047Y-53097142D01*
X45021428Y-53144761D01*
X44926190Y-53192380D01*
X44688095Y-53192380D01*
X44592857Y-53144761D01*
X44545238Y-53097142D01*
%TO.C,TP19*%
X40201904Y-45712380D02*
X40773333Y-45712380D01*
X40487619Y-46712380D02*
X40487619Y-45712380D01*
X41106666Y-46712380D02*
X41106666Y-45712380D01*
X41487619Y-45712380D01*
X41582857Y-45760000D01*
X41630476Y-45807619D01*
X41678095Y-45902857D01*
X41678095Y-46045714D01*
X41630476Y-46140952D01*
X41582857Y-46188571D01*
X41487619Y-46236190D01*
X41106666Y-46236190D01*
X42630476Y-46712380D02*
X42059047Y-46712380D01*
X42344761Y-46712380D02*
X42344761Y-45712380D01*
X42249523Y-45855238D01*
X42154285Y-45950476D01*
X42059047Y-45998095D01*
X43106666Y-46712380D02*
X43297142Y-46712380D01*
X43392380Y-46664761D01*
X43440000Y-46617142D01*
X43535238Y-46474285D01*
X43582857Y-46283809D01*
X43582857Y-45902857D01*
X43535238Y-45807619D01*
X43487619Y-45760000D01*
X43392380Y-45712380D01*
X43201904Y-45712380D01*
X43106666Y-45760000D01*
X43059047Y-45807619D01*
X43011428Y-45902857D01*
X43011428Y-46140952D01*
X43059047Y-46236190D01*
X43106666Y-46283809D01*
X43201904Y-46331428D01*
X43392380Y-46331428D01*
X43487619Y-46283809D01*
X43535238Y-46236190D01*
X43582857Y-46140952D01*
%TO.C,TP29*%
X88892380Y-35998095D02*
X88892380Y-35426666D01*
X89892380Y-35712380D02*
X88892380Y-35712380D01*
X89892380Y-35093333D02*
X88892380Y-35093333D01*
X88892380Y-34712380D01*
X88940000Y-34617142D01*
X88987619Y-34569523D01*
X89082857Y-34521904D01*
X89225714Y-34521904D01*
X89320952Y-34569523D01*
X89368571Y-34617142D01*
X89416190Y-34712380D01*
X89416190Y-35093333D01*
X88987619Y-34140952D02*
X88940000Y-34093333D01*
X88892380Y-33998095D01*
X88892380Y-33760000D01*
X88940000Y-33664761D01*
X88987619Y-33617142D01*
X89082857Y-33569523D01*
X89178095Y-33569523D01*
X89320952Y-33617142D01*
X89892380Y-34188571D01*
X89892380Y-33569523D01*
X89892380Y-33093333D02*
X89892380Y-32902857D01*
X89844761Y-32807619D01*
X89797142Y-32760000D01*
X89654285Y-32664761D01*
X89463809Y-32617142D01*
X89082857Y-32617142D01*
X88987619Y-32664761D01*
X88940000Y-32712380D01*
X88892380Y-32807619D01*
X88892380Y-32998095D01*
X88940000Y-33093333D01*
X88987619Y-33140952D01*
X89082857Y-33188571D01*
X89320952Y-33188571D01*
X89416190Y-33140952D01*
X89463809Y-33093333D01*
X89511428Y-32998095D01*
X89511428Y-32807619D01*
X89463809Y-32712380D01*
X89416190Y-32664761D01*
X89320952Y-32617142D01*
%TO.C,R13*%
X79367142Y-52902380D02*
X79033809Y-52426190D01*
X78795714Y-52902380D02*
X78795714Y-51902380D01*
X79176666Y-51902380D01*
X79271904Y-51950000D01*
X79319523Y-51997619D01*
X79367142Y-52092857D01*
X79367142Y-52235714D01*
X79319523Y-52330952D01*
X79271904Y-52378571D01*
X79176666Y-52426190D01*
X78795714Y-52426190D01*
X80319523Y-52902380D02*
X79748095Y-52902380D01*
X80033809Y-52902380D02*
X80033809Y-51902380D01*
X79938571Y-52045238D01*
X79843333Y-52140476D01*
X79748095Y-52188095D01*
X80652857Y-51902380D02*
X81271904Y-51902380D01*
X80938571Y-52283333D01*
X81081428Y-52283333D01*
X81176666Y-52330952D01*
X81224285Y-52378571D01*
X81271904Y-52473809D01*
X81271904Y-52711904D01*
X81224285Y-52807142D01*
X81176666Y-52854761D01*
X81081428Y-52902380D01*
X80795714Y-52902380D01*
X80700476Y-52854761D01*
X80652857Y-52807142D01*
%TO.C,TP23*%
X2041904Y-14152380D02*
X2613333Y-14152380D01*
X2327619Y-15152380D02*
X2327619Y-14152380D01*
X2946666Y-15152380D02*
X2946666Y-14152380D01*
X3327619Y-14152380D01*
X3422857Y-14200000D01*
X3470476Y-14247619D01*
X3518095Y-14342857D01*
X3518095Y-14485714D01*
X3470476Y-14580952D01*
X3422857Y-14628571D01*
X3327619Y-14676190D01*
X2946666Y-14676190D01*
X3899047Y-14247619D02*
X3946666Y-14200000D01*
X4041904Y-14152380D01*
X4280000Y-14152380D01*
X4375238Y-14200000D01*
X4422857Y-14247619D01*
X4470476Y-14342857D01*
X4470476Y-14438095D01*
X4422857Y-14580952D01*
X3851428Y-15152380D01*
X4470476Y-15152380D01*
X4803809Y-14152380D02*
X5422857Y-14152380D01*
X5089523Y-14533333D01*
X5232380Y-14533333D01*
X5327619Y-14580952D01*
X5375238Y-14628571D01*
X5422857Y-14723809D01*
X5422857Y-14961904D01*
X5375238Y-15057142D01*
X5327619Y-15104761D01*
X5232380Y-15152380D01*
X4946666Y-15152380D01*
X4851428Y-15104761D01*
X4803809Y-15057142D01*
%TO.C,TP9*%
X71464380Y-41901904D02*
X71464380Y-41330476D01*
X72464380Y-41616190D02*
X71464380Y-41616190D01*
X72464380Y-40997142D02*
X71464380Y-40997142D01*
X71464380Y-40616190D01*
X71512000Y-40520952D01*
X71559619Y-40473333D01*
X71654857Y-40425714D01*
X71797714Y-40425714D01*
X71892952Y-40473333D01*
X71940571Y-40520952D01*
X71988190Y-40616190D01*
X71988190Y-40997142D01*
X72464380Y-39949523D02*
X72464380Y-39759047D01*
X72416761Y-39663809D01*
X72369142Y-39616190D01*
X72226285Y-39520952D01*
X72035809Y-39473333D01*
X71654857Y-39473333D01*
X71559619Y-39520952D01*
X71512000Y-39568571D01*
X71464380Y-39663809D01*
X71464380Y-39854285D01*
X71512000Y-39949523D01*
X71559619Y-39997142D01*
X71654857Y-40044761D01*
X71892952Y-40044761D01*
X71988190Y-39997142D01*
X72035809Y-39949523D01*
X72083428Y-39854285D01*
X72083428Y-39663809D01*
X72035809Y-39568571D01*
X71988190Y-39520952D01*
X71892952Y-39473333D01*
%TO.C,TP15*%
X73221904Y3817620D02*
X73793333Y3817620D01*
X73507619Y2817620D02*
X73507619Y3817620D01*
X74126666Y2817620D02*
X74126666Y3817620D01*
X74507619Y3817620D01*
X74602857Y3770000D01*
X74650476Y3722381D01*
X74698095Y3627143D01*
X74698095Y3484286D01*
X74650476Y3389048D01*
X74602857Y3341429D01*
X74507619Y3293810D01*
X74126666Y3293810D01*
X75650476Y2817620D02*
X75079047Y2817620D01*
X75364761Y2817620D02*
X75364761Y3817620D01*
X75269523Y3674762D01*
X75174285Y3579524D01*
X75079047Y3531905D01*
X76555238Y3817620D02*
X76079047Y3817620D01*
X76031428Y3341429D01*
X76079047Y3389048D01*
X76174285Y3436667D01*
X76412380Y3436667D01*
X76507619Y3389048D01*
X76555238Y3341429D01*
X76602857Y3246191D01*
X76602857Y3008096D01*
X76555238Y2912858D01*
X76507619Y2865239D01*
X76412380Y2817620D01*
X76174285Y2817620D01*
X76079047Y2865239D01*
X76031428Y2912858D01*
%TO.C,R6*%
X30313333Y-49602380D02*
X29980000Y-49126190D01*
X29741904Y-49602380D02*
X29741904Y-48602380D01*
X30122857Y-48602380D01*
X30218095Y-48650000D01*
X30265714Y-48697619D01*
X30313333Y-48792857D01*
X30313333Y-48935714D01*
X30265714Y-49030952D01*
X30218095Y-49078571D01*
X30122857Y-49126190D01*
X29741904Y-49126190D01*
X31170476Y-48602380D02*
X30980000Y-48602380D01*
X30884761Y-48650000D01*
X30837142Y-48697619D01*
X30741904Y-48840476D01*
X30694285Y-49030952D01*
X30694285Y-49411904D01*
X30741904Y-49507142D01*
X30789523Y-49554761D01*
X30884761Y-49602380D01*
X31075238Y-49602380D01*
X31170476Y-49554761D01*
X31218095Y-49507142D01*
X31265714Y-49411904D01*
X31265714Y-49173809D01*
X31218095Y-49078571D01*
X31170476Y-49030952D01*
X31075238Y-48983333D01*
X30884761Y-48983333D01*
X30789523Y-49030952D01*
X30741904Y-49078571D01*
X30694285Y-49173809D01*
%TO.C,TP8*%
X16340380Y-44441904D02*
X16340380Y-43870476D01*
X17340380Y-44156190D02*
X16340380Y-44156190D01*
X17340380Y-43537142D02*
X16340380Y-43537142D01*
X16340380Y-43156190D01*
X16388000Y-43060952D01*
X16435619Y-43013333D01*
X16530857Y-42965714D01*
X16673714Y-42965714D01*
X16768952Y-43013333D01*
X16816571Y-43060952D01*
X16864190Y-43156190D01*
X16864190Y-43537142D01*
X16768952Y-42394285D02*
X16721333Y-42489523D01*
X16673714Y-42537142D01*
X16578476Y-42584761D01*
X16530857Y-42584761D01*
X16435619Y-42537142D01*
X16388000Y-42489523D01*
X16340380Y-42394285D01*
X16340380Y-42203809D01*
X16388000Y-42108571D01*
X16435619Y-42060952D01*
X16530857Y-42013333D01*
X16578476Y-42013333D01*
X16673714Y-42060952D01*
X16721333Y-42108571D01*
X16768952Y-42203809D01*
X16768952Y-42394285D01*
X16816571Y-42489523D01*
X16864190Y-42537142D01*
X16959428Y-42584761D01*
X17149904Y-42584761D01*
X17245142Y-42537142D01*
X17292761Y-42489523D01*
X17340380Y-42394285D01*
X17340380Y-42203809D01*
X17292761Y-42108571D01*
X17245142Y-42060952D01*
X17149904Y-42013333D01*
X16959428Y-42013333D01*
X16864190Y-42060952D01*
X16816571Y-42108571D01*
X16768952Y-42203809D01*
%TO.C,TP10*%
X70194380Y-44918095D02*
X70194380Y-44346666D01*
X71194380Y-44632380D02*
X70194380Y-44632380D01*
X71194380Y-44013333D02*
X70194380Y-44013333D01*
X70194380Y-43632380D01*
X70242000Y-43537142D01*
X70289619Y-43489523D01*
X70384857Y-43441904D01*
X70527714Y-43441904D01*
X70622952Y-43489523D01*
X70670571Y-43537142D01*
X70718190Y-43632380D01*
X70718190Y-44013333D01*
X71194380Y-42489523D02*
X71194380Y-43060952D01*
X71194380Y-42775238D02*
X70194380Y-42775238D01*
X70337238Y-42870476D01*
X70432476Y-42965714D01*
X70480095Y-43060952D01*
X70194380Y-41870476D02*
X70194380Y-41775238D01*
X70242000Y-41680000D01*
X70289619Y-41632380D01*
X70384857Y-41584761D01*
X70575333Y-41537142D01*
X70813428Y-41537142D01*
X71003904Y-41584761D01*
X71099142Y-41632380D01*
X71146761Y-41680000D01*
X71194380Y-41775238D01*
X71194380Y-41870476D01*
X71146761Y-41965714D01*
X71099142Y-42013333D01*
X71003904Y-42060952D01*
X70813428Y-42108571D01*
X70575333Y-42108571D01*
X70384857Y-42060952D01*
X70289619Y-42013333D01*
X70242000Y-41965714D01*
X70194380Y-41870476D01*
%TO.C,TP17*%
X19881904Y-40632380D02*
X20453333Y-40632380D01*
X20167619Y-41632380D02*
X20167619Y-40632380D01*
X20786666Y-41632380D02*
X20786666Y-40632380D01*
X21167619Y-40632380D01*
X21262857Y-40680000D01*
X21310476Y-40727619D01*
X21358095Y-40822857D01*
X21358095Y-40965714D01*
X21310476Y-41060952D01*
X21262857Y-41108571D01*
X21167619Y-41156190D01*
X20786666Y-41156190D01*
X22310476Y-41632380D02*
X21739047Y-41632380D01*
X22024761Y-41632380D02*
X22024761Y-40632380D01*
X21929523Y-40775238D01*
X21834285Y-40870476D01*
X21739047Y-40918095D01*
X22643809Y-40632380D02*
X23310476Y-40632380D01*
X22881904Y-41632380D01*
%TO.C,TP32*%
X80841904Y-45712380D02*
X81413333Y-45712380D01*
X81127619Y-46712380D02*
X81127619Y-45712380D01*
X81746666Y-46712380D02*
X81746666Y-45712380D01*
X82127619Y-45712380D01*
X82222857Y-45760000D01*
X82270476Y-45807619D01*
X82318095Y-45902857D01*
X82318095Y-46045714D01*
X82270476Y-46140952D01*
X82222857Y-46188571D01*
X82127619Y-46236190D01*
X81746666Y-46236190D01*
X82651428Y-45712380D02*
X83270476Y-45712380D01*
X82937142Y-46093333D01*
X83080000Y-46093333D01*
X83175238Y-46140952D01*
X83222857Y-46188571D01*
X83270476Y-46283809D01*
X83270476Y-46521904D01*
X83222857Y-46617142D01*
X83175238Y-46664761D01*
X83080000Y-46712380D01*
X82794285Y-46712380D01*
X82699047Y-46664761D01*
X82651428Y-46617142D01*
X83651428Y-45807619D02*
X83699047Y-45760000D01*
X83794285Y-45712380D01*
X84032380Y-45712380D01*
X84127619Y-45760000D01*
X84175238Y-45807619D01*
X84222857Y-45902857D01*
X84222857Y-45998095D01*
X84175238Y-46140952D01*
X83603809Y-46712380D01*
X84222857Y-46712380D01*
%TO.C,TP20*%
X50361904Y-45712380D02*
X50933333Y-45712380D01*
X50647619Y-46712380D02*
X50647619Y-45712380D01*
X51266666Y-46712380D02*
X51266666Y-45712380D01*
X51647619Y-45712380D01*
X51742857Y-45760000D01*
X51790476Y-45807619D01*
X51838095Y-45902857D01*
X51838095Y-46045714D01*
X51790476Y-46140952D01*
X51742857Y-46188571D01*
X51647619Y-46236190D01*
X51266666Y-46236190D01*
X52219047Y-45807619D02*
X52266666Y-45760000D01*
X52361904Y-45712380D01*
X52600000Y-45712380D01*
X52695238Y-45760000D01*
X52742857Y-45807619D01*
X52790476Y-45902857D01*
X52790476Y-45998095D01*
X52742857Y-46140952D01*
X52171428Y-46712380D01*
X52790476Y-46712380D01*
X53409523Y-45712380D02*
X53504761Y-45712380D01*
X53600000Y-45760000D01*
X53647619Y-45807619D01*
X53695238Y-45902857D01*
X53742857Y-46093333D01*
X53742857Y-46331428D01*
X53695238Y-46521904D01*
X53647619Y-46617142D01*
X53600000Y-46664761D01*
X53504761Y-46712380D01*
X53409523Y-46712380D01*
X53314285Y-46664761D01*
X53266666Y-46617142D01*
X53219047Y-46521904D01*
X53171428Y-46331428D01*
X53171428Y-46093333D01*
X53219047Y-45902857D01*
X53266666Y-45807619D01*
X53314285Y-45760000D01*
X53409523Y-45712380D01*
%TO.C,TP36*%
X-1087620Y-30978095D02*
X-1087620Y-30406666D01*
X-87620Y-30692380D02*
X-1087620Y-30692380D01*
X-87620Y-30073333D02*
X-1087620Y-30073333D01*
X-1087620Y-29692380D01*
X-1040000Y-29597142D01*
X-992381Y-29549523D01*
X-897143Y-29501904D01*
X-754286Y-29501904D01*
X-659048Y-29549523D01*
X-611429Y-29597142D01*
X-563810Y-29692380D01*
X-563810Y-30073333D01*
X-1087620Y-29168571D02*
X-1087620Y-28549523D01*
X-706667Y-28882857D01*
X-706667Y-28740000D01*
X-659048Y-28644761D01*
X-611429Y-28597142D01*
X-516191Y-28549523D01*
X-278096Y-28549523D01*
X-182858Y-28597142D01*
X-135239Y-28644761D01*
X-87620Y-28740000D01*
X-87620Y-29025714D01*
X-135239Y-29120952D01*
X-182858Y-29168571D01*
X-1087620Y-27692380D02*
X-1087620Y-27882857D01*
X-1040000Y-27978095D01*
X-992381Y-28025714D01*
X-849524Y-28120952D01*
X-659048Y-28168571D01*
X-278096Y-28168571D01*
X-182858Y-28120952D01*
X-135239Y-28073333D01*
X-87620Y-27978095D01*
X-87620Y-27787619D01*
X-135239Y-27692380D01*
X-182858Y-27644761D01*
X-278096Y-27597142D01*
X-516191Y-27597142D01*
X-611429Y-27644761D01*
X-659048Y-27692380D01*
X-706667Y-27787619D01*
X-706667Y-27978095D01*
X-659048Y-28073333D01*
X-611429Y-28120952D01*
X-516191Y-28168571D01*
%TO.C,TP5*%
X16340380Y-34281904D02*
X16340380Y-33710476D01*
X17340380Y-33996190D02*
X16340380Y-33996190D01*
X17340380Y-33377142D02*
X16340380Y-33377142D01*
X16340380Y-32996190D01*
X16388000Y-32900952D01*
X16435619Y-32853333D01*
X16530857Y-32805714D01*
X16673714Y-32805714D01*
X16768952Y-32853333D01*
X16816571Y-32900952D01*
X16864190Y-32996190D01*
X16864190Y-33377142D01*
X16340380Y-31900952D02*
X16340380Y-32377142D01*
X16816571Y-32424761D01*
X16768952Y-32377142D01*
X16721333Y-32281904D01*
X16721333Y-32043809D01*
X16768952Y-31948571D01*
X16816571Y-31900952D01*
X16911809Y-31853333D01*
X17149904Y-31853333D01*
X17245142Y-31900952D01*
X17292761Y-31948571D01*
X17340380Y-32043809D01*
X17340380Y-32281904D01*
X17292761Y-32377142D01*
X17245142Y-32424761D01*
%TO.C,R12*%
X75557142Y-49602380D02*
X75223809Y-49126190D01*
X74985714Y-49602380D02*
X74985714Y-48602380D01*
X75366666Y-48602380D01*
X75461904Y-48650000D01*
X75509523Y-48697619D01*
X75557142Y-48792857D01*
X75557142Y-48935714D01*
X75509523Y-49030952D01*
X75461904Y-49078571D01*
X75366666Y-49126190D01*
X74985714Y-49126190D01*
X76509523Y-49602380D02*
X75938095Y-49602380D01*
X76223809Y-49602380D02*
X76223809Y-48602380D01*
X76128571Y-48745238D01*
X76033333Y-48840476D01*
X75938095Y-48888095D01*
X76890476Y-48697619D02*
X76938095Y-48650000D01*
X77033333Y-48602380D01*
X77271428Y-48602380D01*
X77366666Y-48650000D01*
X77414285Y-48697619D01*
X77461904Y-48792857D01*
X77461904Y-48888095D01*
X77414285Y-49030952D01*
X76842857Y-49602380D01*
X77461904Y-49602380D01*
%TO.C,TP30*%
X88892380Y-41078095D02*
X88892380Y-40506666D01*
X89892380Y-40792380D02*
X88892380Y-40792380D01*
X89892380Y-40173333D02*
X88892380Y-40173333D01*
X88892380Y-39792380D01*
X88940000Y-39697142D01*
X88987619Y-39649523D01*
X89082857Y-39601904D01*
X89225714Y-39601904D01*
X89320952Y-39649523D01*
X89368571Y-39697142D01*
X89416190Y-39792380D01*
X89416190Y-40173333D01*
X88892380Y-39268571D02*
X88892380Y-38649523D01*
X89273333Y-38982857D01*
X89273333Y-38840000D01*
X89320952Y-38744761D01*
X89368571Y-38697142D01*
X89463809Y-38649523D01*
X89701904Y-38649523D01*
X89797142Y-38697142D01*
X89844761Y-38744761D01*
X89892380Y-38840000D01*
X89892380Y-39125714D01*
X89844761Y-39220952D01*
X89797142Y-39268571D01*
X88892380Y-38030476D02*
X88892380Y-37935238D01*
X88940000Y-37840000D01*
X88987619Y-37792380D01*
X89082857Y-37744761D01*
X89273333Y-37697142D01*
X89511428Y-37697142D01*
X89701904Y-37744761D01*
X89797142Y-37792380D01*
X89844761Y-37840000D01*
X89892380Y-37935238D01*
X89892380Y-38030476D01*
X89844761Y-38125714D01*
X89797142Y-38173333D01*
X89701904Y-38220952D01*
X89511428Y-38268571D01*
X89273333Y-38268571D01*
X89082857Y-38220952D01*
X88987619Y-38173333D01*
X88940000Y-38125714D01*
X88892380Y-38030476D01*
%TO.C,TP31*%
X88892380Y-46158095D02*
X88892380Y-45586666D01*
X89892380Y-45872380D02*
X88892380Y-45872380D01*
X89892380Y-45253333D02*
X88892380Y-45253333D01*
X88892380Y-44872380D01*
X88940000Y-44777142D01*
X88987619Y-44729523D01*
X89082857Y-44681904D01*
X89225714Y-44681904D01*
X89320952Y-44729523D01*
X89368571Y-44777142D01*
X89416190Y-44872380D01*
X89416190Y-45253333D01*
X88892380Y-44348571D02*
X88892380Y-43729523D01*
X89273333Y-44062857D01*
X89273333Y-43920000D01*
X89320952Y-43824761D01*
X89368571Y-43777142D01*
X89463809Y-43729523D01*
X89701904Y-43729523D01*
X89797142Y-43777142D01*
X89844761Y-43824761D01*
X89892380Y-43920000D01*
X89892380Y-44205714D01*
X89844761Y-44300952D01*
X89797142Y-44348571D01*
X89892380Y-42777142D02*
X89892380Y-43348571D01*
X89892380Y-43062857D02*
X88892380Y-43062857D01*
X89035238Y-43158095D01*
X89130476Y-43253333D01*
X89178095Y-43348571D01*
%TO.C,C2*%
X23377142Y-26311666D02*
X23424761Y-26359285D01*
X23472380Y-26502142D01*
X23472380Y-26597380D01*
X23424761Y-26740238D01*
X23329523Y-26835476D01*
X23234285Y-26883095D01*
X23043809Y-26930714D01*
X22900952Y-26930714D01*
X22710476Y-26883095D01*
X22615238Y-26835476D01*
X22520000Y-26740238D01*
X22472380Y-26597380D01*
X22472380Y-26502142D01*
X22520000Y-26359285D01*
X22567619Y-26311666D01*
X22567619Y-25930714D02*
X22520000Y-25883095D01*
X22472380Y-25787857D01*
X22472380Y-25549761D01*
X22520000Y-25454523D01*
X22567619Y-25406904D01*
X22662857Y-25359285D01*
X22758095Y-25359285D01*
X22900952Y-25406904D01*
X23472380Y-25978333D01*
X23472380Y-25359285D01*
%TO.C,TP4*%
X64778095Y-42254380D02*
X65349523Y-42254380D01*
X65063809Y-43254380D02*
X65063809Y-42254380D01*
X65682857Y-43254380D02*
X65682857Y-42254380D01*
X66063809Y-42254380D01*
X66159047Y-42302000D01*
X66206666Y-42349619D01*
X66254285Y-42444857D01*
X66254285Y-42587714D01*
X66206666Y-42682952D01*
X66159047Y-42730571D01*
X66063809Y-42778190D01*
X65682857Y-42778190D01*
X67111428Y-42587714D02*
X67111428Y-43254380D01*
X66873333Y-42206761D02*
X66635238Y-42921047D01*
X67254285Y-42921047D01*
%TO.C,C1*%
X13723333Y-23172142D02*
X13675714Y-23219761D01*
X13532857Y-23267380D01*
X13437619Y-23267380D01*
X13294761Y-23219761D01*
X13199523Y-23124523D01*
X13151904Y-23029285D01*
X13104285Y-22838809D01*
X13104285Y-22695952D01*
X13151904Y-22505476D01*
X13199523Y-22410238D01*
X13294761Y-22315000D01*
X13437619Y-22267380D01*
X13532857Y-22267380D01*
X13675714Y-22315000D01*
X13723333Y-22362619D01*
X14675714Y-23267380D02*
X14104285Y-23267380D01*
X14390000Y-23267380D02*
X14390000Y-22267380D01*
X14294761Y-22410238D01*
X14199523Y-22505476D01*
X14104285Y-22553095D01*
%TO.C,R11*%
X64127142Y-52902380D02*
X63793809Y-52426190D01*
X63555714Y-52902380D02*
X63555714Y-51902380D01*
X63936666Y-51902380D01*
X64031904Y-51950000D01*
X64079523Y-51997619D01*
X64127142Y-52092857D01*
X64127142Y-52235714D01*
X64079523Y-52330952D01*
X64031904Y-52378571D01*
X63936666Y-52426190D01*
X63555714Y-52426190D01*
X65079523Y-52902380D02*
X64508095Y-52902380D01*
X64793809Y-52902380D02*
X64793809Y-51902380D01*
X64698571Y-52045238D01*
X64603333Y-52140476D01*
X64508095Y-52188095D01*
X66031904Y-52902380D02*
X65460476Y-52902380D01*
X65746190Y-52902380D02*
X65746190Y-51902380D01*
X65650952Y-52045238D01*
X65555714Y-52140476D01*
X65460476Y-52188095D01*
%TO.C,J6*%
X59356666Y-52192380D02*
X59356666Y-52906666D01*
X59309047Y-53049523D01*
X59213809Y-53144761D01*
X59070952Y-53192380D01*
X58975714Y-53192380D01*
X60261428Y-52192380D02*
X60070952Y-52192380D01*
X59975714Y-52240000D01*
X59928095Y-52287619D01*
X59832857Y-52430476D01*
X59785238Y-52620952D01*
X59785238Y-53001904D01*
X59832857Y-53097142D01*
X59880476Y-53144761D01*
X59975714Y-53192380D01*
X60166190Y-53192380D01*
X60261428Y-53144761D01*
X60309047Y-53097142D01*
X60356666Y-53001904D01*
X60356666Y-52763809D01*
X60309047Y-52668571D01*
X60261428Y-52620952D01*
X60166190Y-52573333D01*
X59975714Y-52573333D01*
X59880476Y-52620952D01*
X59832857Y-52668571D01*
X59785238Y-52763809D01*
%TO.C,TP11*%
X20664380Y-34758095D02*
X20664380Y-34186666D01*
X21664380Y-34472380D02*
X20664380Y-34472380D01*
X21664380Y-33853333D02*
X20664380Y-33853333D01*
X20664380Y-33472380D01*
X20712000Y-33377142D01*
X20759619Y-33329523D01*
X20854857Y-33281904D01*
X20997714Y-33281904D01*
X21092952Y-33329523D01*
X21140571Y-33377142D01*
X21188190Y-33472380D01*
X21188190Y-33853333D01*
X21664380Y-32329523D02*
X21664380Y-32900952D01*
X21664380Y-32615238D02*
X20664380Y-32615238D01*
X20807238Y-32710476D01*
X20902476Y-32805714D01*
X20950095Y-32900952D01*
X21664380Y-31377142D02*
X21664380Y-31948571D01*
X21664380Y-31662857D02*
X20664380Y-31662857D01*
X20807238Y-31758095D01*
X20902476Y-31853333D01*
X20950095Y-31948571D01*
%TO.C,TP18*%
X35121904Y-45712380D02*
X35693333Y-45712380D01*
X35407619Y-46712380D02*
X35407619Y-45712380D01*
X36026666Y-46712380D02*
X36026666Y-45712380D01*
X36407619Y-45712380D01*
X36502857Y-45760000D01*
X36550476Y-45807619D01*
X36598095Y-45902857D01*
X36598095Y-46045714D01*
X36550476Y-46140952D01*
X36502857Y-46188571D01*
X36407619Y-46236190D01*
X36026666Y-46236190D01*
X37550476Y-46712380D02*
X36979047Y-46712380D01*
X37264761Y-46712380D02*
X37264761Y-45712380D01*
X37169523Y-45855238D01*
X37074285Y-45950476D01*
X36979047Y-45998095D01*
X38121904Y-46140952D02*
X38026666Y-46093333D01*
X37979047Y-46045714D01*
X37931428Y-45950476D01*
X37931428Y-45902857D01*
X37979047Y-45807619D01*
X38026666Y-45760000D01*
X38121904Y-45712380D01*
X38312380Y-45712380D01*
X38407619Y-45760000D01*
X38455238Y-45807619D01*
X38502857Y-45902857D01*
X38502857Y-45950476D01*
X38455238Y-46045714D01*
X38407619Y-46093333D01*
X38312380Y-46140952D01*
X38121904Y-46140952D01*
X38026666Y-46188571D01*
X37979047Y-46236190D01*
X37931428Y-46331428D01*
X37931428Y-46521904D01*
X37979047Y-46617142D01*
X38026666Y-46664761D01*
X38121904Y-46712380D01*
X38312380Y-46712380D01*
X38407619Y-46664761D01*
X38455238Y-46617142D01*
X38502857Y-46521904D01*
X38502857Y-46331428D01*
X38455238Y-46236190D01*
X38407619Y-46188571D01*
X38312380Y-46140952D01*
%TO.C,D2*%
X67841904Y-4102380D02*
X67841904Y-3102380D01*
X68080000Y-3102380D01*
X68222857Y-3150000D01*
X68318095Y-3245238D01*
X68365714Y-3340476D01*
X68413333Y-3530952D01*
X68413333Y-3673809D01*
X68365714Y-3864285D01*
X68318095Y-3959523D01*
X68222857Y-4054761D01*
X68080000Y-4102380D01*
X67841904Y-4102380D01*
X68794285Y-3197619D02*
X68841904Y-3150000D01*
X68937142Y-3102380D01*
X69175238Y-3102380D01*
X69270476Y-3150000D01*
X69318095Y-3197619D01*
X69365714Y-3292857D01*
X69365714Y-3388095D01*
X69318095Y-3530952D01*
X68746666Y-4102380D01*
X69365714Y-4102380D01*
%TO.C,TP7*%
X16340380Y-41901904D02*
X16340380Y-41330476D01*
X17340380Y-41616190D02*
X16340380Y-41616190D01*
X17340380Y-40997142D02*
X16340380Y-40997142D01*
X16340380Y-40616190D01*
X16388000Y-40520952D01*
X16435619Y-40473333D01*
X16530857Y-40425714D01*
X16673714Y-40425714D01*
X16768952Y-40473333D01*
X16816571Y-40520952D01*
X16864190Y-40616190D01*
X16864190Y-40997142D01*
X16340380Y-40092380D02*
X16340380Y-39425714D01*
X17340380Y-39854285D01*
%TO.C,TP12*%
X19394380Y-37298095D02*
X19394380Y-36726666D01*
X20394380Y-37012380D02*
X19394380Y-37012380D01*
X20394380Y-36393333D02*
X19394380Y-36393333D01*
X19394380Y-36012380D01*
X19442000Y-35917142D01*
X19489619Y-35869523D01*
X19584857Y-35821904D01*
X19727714Y-35821904D01*
X19822952Y-35869523D01*
X19870571Y-35917142D01*
X19918190Y-36012380D01*
X19918190Y-36393333D01*
X20394380Y-34869523D02*
X20394380Y-35440952D01*
X20394380Y-35155238D02*
X19394380Y-35155238D01*
X19537238Y-35250476D01*
X19632476Y-35345714D01*
X19680095Y-35440952D01*
X19489619Y-34488571D02*
X19442000Y-34440952D01*
X19394380Y-34345714D01*
X19394380Y-34107619D01*
X19442000Y-34012380D01*
X19489619Y-33964761D01*
X19584857Y-33917142D01*
X19680095Y-33917142D01*
X19822952Y-33964761D01*
X20394380Y-34536190D01*
X20394380Y-33917142D01*
%TO.C,H1*%
X-761905Y3347620D02*
X-761905Y4347620D01*
X-761905Y3871429D02*
X-190477Y3871429D01*
X-190477Y3347620D02*
X-190477Y4347620D01*
X809523Y3347620D02*
X238095Y3347620D01*
X523809Y3347620D02*
X523809Y4347620D01*
X428571Y4204762D01*
X333333Y4109524D01*
X238095Y4061905D01*
%TO.C,A1*%
X43843214Y2373334D02*
X44319404Y2373334D01*
X43747976Y2087620D02*
X44081309Y3087620D01*
X44414642Y2087620D01*
X45271785Y2087620D02*
X44700357Y2087620D01*
X44986071Y2087620D02*
X44986071Y3087620D01*
X44890833Y2944762D01*
X44795595Y2849524D01*
X44700357Y2801905D01*
%TO.C,TP34*%
X-1087620Y-41138095D02*
X-1087620Y-40566666D01*
X-87620Y-40852380D02*
X-1087620Y-40852380D01*
X-87620Y-40233333D02*
X-1087620Y-40233333D01*
X-1087620Y-39852380D01*
X-1040000Y-39757142D01*
X-992381Y-39709523D01*
X-897143Y-39661904D01*
X-754286Y-39661904D01*
X-659048Y-39709523D01*
X-611429Y-39757142D01*
X-563810Y-39852380D01*
X-563810Y-40233333D01*
X-1087620Y-39328571D02*
X-1087620Y-38709523D01*
X-706667Y-39042857D01*
X-706667Y-38900000D01*
X-659048Y-38804761D01*
X-611429Y-38757142D01*
X-516191Y-38709523D01*
X-278096Y-38709523D01*
X-182858Y-38757142D01*
X-135239Y-38804761D01*
X-87620Y-38900000D01*
X-87620Y-39185714D01*
X-135239Y-39280952D01*
X-182858Y-39328571D01*
X-754286Y-37852380D02*
X-87620Y-37852380D01*
X-1135239Y-38090476D02*
X-420953Y-38328571D01*
X-420953Y-37709523D01*
%TO.C,TP22*%
X2041904Y-10342380D02*
X2613333Y-10342380D01*
X2327619Y-11342380D02*
X2327619Y-10342380D01*
X2946666Y-11342380D02*
X2946666Y-10342380D01*
X3327619Y-10342380D01*
X3422857Y-10390000D01*
X3470476Y-10437619D01*
X3518095Y-10532857D01*
X3518095Y-10675714D01*
X3470476Y-10770952D01*
X3422857Y-10818571D01*
X3327619Y-10866190D01*
X2946666Y-10866190D01*
X3899047Y-10437619D02*
X3946666Y-10390000D01*
X4041904Y-10342380D01*
X4280000Y-10342380D01*
X4375238Y-10390000D01*
X4422857Y-10437619D01*
X4470476Y-10532857D01*
X4470476Y-10628095D01*
X4422857Y-10770952D01*
X3851428Y-11342380D01*
X4470476Y-11342380D01*
X4851428Y-10437619D02*
X4899047Y-10390000D01*
X4994285Y-10342380D01*
X5232380Y-10342380D01*
X5327619Y-10390000D01*
X5375238Y-10437619D01*
X5422857Y-10532857D01*
X5422857Y-10628095D01*
X5375238Y-10770952D01*
X4803809Y-11342380D01*
X5422857Y-11342380D01*
%TO.C,R7*%
X34123333Y-52902380D02*
X33790000Y-52426190D01*
X33551904Y-52902380D02*
X33551904Y-51902380D01*
X33932857Y-51902380D01*
X34028095Y-51950000D01*
X34075714Y-51997619D01*
X34123333Y-52092857D01*
X34123333Y-52235714D01*
X34075714Y-52330952D01*
X34028095Y-52378571D01*
X33932857Y-52426190D01*
X33551904Y-52426190D01*
X34456666Y-51902380D02*
X35123333Y-51902380D01*
X34694761Y-52902380D01*
%TO.C,VR1*%
X19513904Y-17558123D02*
X19727238Y-18198123D01*
X19940571Y-17558123D01*
X20519619Y-18198123D02*
X20306285Y-17893361D01*
X20153904Y-18198123D02*
X20153904Y-17558123D01*
X20397714Y-17558123D01*
X20458666Y-17588600D01*
X20489142Y-17619076D01*
X20519619Y-17680028D01*
X20519619Y-17771457D01*
X20489142Y-17832409D01*
X20458666Y-17862885D01*
X20397714Y-17893361D01*
X20153904Y-17893361D01*
X21129142Y-18198123D02*
X20763428Y-18198123D01*
X20946285Y-18198123D02*
X20946285Y-17558123D01*
X20885333Y-17649552D01*
X20824380Y-17710504D01*
X20763428Y-17740980D01*
%TO.C,R9*%
X49363333Y-52902380D02*
X49030000Y-52426190D01*
X48791904Y-52902380D02*
X48791904Y-51902380D01*
X49172857Y-51902380D01*
X49268095Y-51950000D01*
X49315714Y-51997619D01*
X49363333Y-52092857D01*
X49363333Y-52235714D01*
X49315714Y-52330952D01*
X49268095Y-52378571D01*
X49172857Y-52426190D01*
X48791904Y-52426190D01*
X49839523Y-52902380D02*
X50030000Y-52902380D01*
X50125238Y-52854761D01*
X50172857Y-52807142D01*
X50268095Y-52664285D01*
X50315714Y-52473809D01*
X50315714Y-52092857D01*
X50268095Y-51997619D01*
X50220476Y-51950000D01*
X50125238Y-51902380D01*
X49934761Y-51902380D01*
X49839523Y-51950000D01*
X49791904Y-51997619D01*
X49744285Y-52092857D01*
X49744285Y-52330952D01*
X49791904Y-52426190D01*
X49839523Y-52473809D01*
X49934761Y-52521428D01*
X50125238Y-52521428D01*
X50220476Y-52473809D01*
X50268095Y-52426190D01*
X50315714Y-52330952D01*
%TO.C,J10*%
X74120476Y-52192380D02*
X74120476Y-52906666D01*
X74072857Y-53049523D01*
X73977619Y-53144761D01*
X73834761Y-53192380D01*
X73739523Y-53192380D01*
X75120476Y-53192380D02*
X74549047Y-53192380D01*
X74834761Y-53192380D02*
X74834761Y-52192380D01*
X74739523Y-52335238D01*
X74644285Y-52430476D01*
X74549047Y-52478095D01*
X75739523Y-52192380D02*
X75834761Y-52192380D01*
X75930000Y-52240000D01*
X75977619Y-52287619D01*
X76025238Y-52382857D01*
X76072857Y-52573333D01*
X76072857Y-52811428D01*
X76025238Y-53001904D01*
X75977619Y-53097142D01*
X75930000Y-53144761D01*
X75834761Y-53192380D01*
X75739523Y-53192380D01*
X75644285Y-53144761D01*
X75596666Y-53097142D01*
X75549047Y-53001904D01*
X75501428Y-52811428D01*
X75501428Y-52573333D01*
X75549047Y-52382857D01*
X75596666Y-52287619D01*
X75644285Y-52240000D01*
X75739523Y-52192380D01*
%TO.C,R10*%
X60317142Y-49602380D02*
X59983809Y-49126190D01*
X59745714Y-49602380D02*
X59745714Y-48602380D01*
X60126666Y-48602380D01*
X60221904Y-48650000D01*
X60269523Y-48697619D01*
X60317142Y-48792857D01*
X60317142Y-48935714D01*
X60269523Y-49030952D01*
X60221904Y-49078571D01*
X60126666Y-49126190D01*
X59745714Y-49126190D01*
X61269523Y-49602380D02*
X60698095Y-49602380D01*
X60983809Y-49602380D02*
X60983809Y-48602380D01*
X60888571Y-48745238D01*
X60793333Y-48840476D01*
X60698095Y-48888095D01*
X61888571Y-48602380D02*
X61983809Y-48602380D01*
X62079047Y-48650000D01*
X62126666Y-48697619D01*
X62174285Y-48792857D01*
X62221904Y-48983333D01*
X62221904Y-49221428D01*
X62174285Y-49411904D01*
X62126666Y-49507142D01*
X62079047Y-49554761D01*
X61983809Y-49602380D01*
X61888571Y-49602380D01*
X61793333Y-49554761D01*
X61745714Y-49507142D01*
X61698095Y-49411904D01*
X61650476Y-49221428D01*
X61650476Y-48983333D01*
X61698095Y-48792857D01*
X61745714Y-48697619D01*
X61793333Y-48650000D01*
X61888571Y-48602380D01*
%TO.C,TP33*%
X-1087620Y-46218095D02*
X-1087620Y-45646666D01*
X-87620Y-45932380D02*
X-1087620Y-45932380D01*
X-87620Y-45313333D02*
X-1087620Y-45313333D01*
X-1087620Y-44932380D01*
X-1040000Y-44837142D01*
X-992381Y-44789523D01*
X-897143Y-44741904D01*
X-754286Y-44741904D01*
X-659048Y-44789523D01*
X-611429Y-44837142D01*
X-563810Y-44932380D01*
X-563810Y-45313333D01*
X-1087620Y-44408571D02*
X-1087620Y-43789523D01*
X-706667Y-44122857D01*
X-706667Y-43980000D01*
X-659048Y-43884761D01*
X-611429Y-43837142D01*
X-516191Y-43789523D01*
X-278096Y-43789523D01*
X-182858Y-43837142D01*
X-135239Y-43884761D01*
X-87620Y-43980000D01*
X-87620Y-44265714D01*
X-135239Y-44360952D01*
X-182858Y-44408571D01*
X-1087620Y-43456190D02*
X-1087620Y-42837142D01*
X-706667Y-43170476D01*
X-706667Y-43027619D01*
X-659048Y-42932380D01*
X-611429Y-42884761D01*
X-516191Y-42837142D01*
X-278096Y-42837142D01*
X-182858Y-42884761D01*
X-135239Y-42932380D01*
X-87620Y-43027619D01*
X-87620Y-43313333D01*
X-135239Y-43408571D01*
X-182858Y-43456190D01*
%TO.C,R2*%
X15073333Y-49602380D02*
X14740000Y-49126190D01*
X14501904Y-49602380D02*
X14501904Y-48602380D01*
X14882857Y-48602380D01*
X14978095Y-48650000D01*
X15025714Y-48697619D01*
X15073333Y-48792857D01*
X15073333Y-48935714D01*
X15025714Y-49030952D01*
X14978095Y-49078571D01*
X14882857Y-49126190D01*
X14501904Y-49126190D01*
X15454285Y-48697619D02*
X15501904Y-48650000D01*
X15597142Y-48602380D01*
X15835238Y-48602380D01*
X15930476Y-48650000D01*
X15978095Y-48697619D01*
X16025714Y-48792857D01*
X16025714Y-48888095D01*
X15978095Y-49030952D01*
X15406666Y-49602380D01*
X16025714Y-49602380D01*
%TO.C,R5*%
X19882380Y-26311666D02*
X19406190Y-26645000D01*
X19882380Y-26883095D02*
X18882380Y-26883095D01*
X18882380Y-26502142D01*
X18930000Y-26406904D01*
X18977619Y-26359285D01*
X19072857Y-26311666D01*
X19215714Y-26311666D01*
X19310952Y-26359285D01*
X19358571Y-26406904D01*
X19406190Y-26502142D01*
X19406190Y-26883095D01*
X18882380Y-25406904D02*
X18882380Y-25883095D01*
X19358571Y-25930714D01*
X19310952Y-25883095D01*
X19263333Y-25787857D01*
X19263333Y-25549761D01*
X19310952Y-25454523D01*
X19358571Y-25406904D01*
X19453809Y-25359285D01*
X19691904Y-25359285D01*
X19787142Y-25406904D01*
X19834761Y-25454523D01*
X19882380Y-25549761D01*
X19882380Y-25787857D01*
X19834761Y-25883095D01*
X19787142Y-25930714D01*
%TO.C,H3*%
X88138095Y-60152380D02*
X88138095Y-59152380D01*
X88138095Y-59628571D02*
X88709523Y-59628571D01*
X88709523Y-60152380D02*
X88709523Y-59152380D01*
X89090476Y-59152380D02*
X89709523Y-59152380D01*
X89376190Y-59533333D01*
X89519047Y-59533333D01*
X89614285Y-59580952D01*
X89661904Y-59628571D01*
X89709523Y-59723809D01*
X89709523Y-59961904D01*
X89661904Y-60057142D01*
X89614285Y-60104761D01*
X89519047Y-60152380D01*
X89233333Y-60152380D01*
X89138095Y-60104761D01*
X89090476Y-60057142D01*
%TO.C,U1*%
X15748095Y-16127380D02*
X15748095Y-16936904D01*
X15795714Y-17032142D01*
X15843333Y-17079761D01*
X15938571Y-17127380D01*
X16129047Y-17127380D01*
X16224285Y-17079761D01*
X16271904Y-17032142D01*
X16319523Y-16936904D01*
X16319523Y-16127380D01*
X17319523Y-17127380D02*
X16748095Y-17127380D01*
X17033809Y-17127380D02*
X17033809Y-16127380D01*
X16938571Y-16270238D01*
X16843333Y-16365476D01*
X16748095Y-16413095D01*
%TO.C,TP21*%
X55441904Y-45712380D02*
X56013333Y-45712380D01*
X55727619Y-46712380D02*
X55727619Y-45712380D01*
X56346666Y-46712380D02*
X56346666Y-45712380D01*
X56727619Y-45712380D01*
X56822857Y-45760000D01*
X56870476Y-45807619D01*
X56918095Y-45902857D01*
X56918095Y-46045714D01*
X56870476Y-46140952D01*
X56822857Y-46188571D01*
X56727619Y-46236190D01*
X56346666Y-46236190D01*
X57299047Y-45807619D02*
X57346666Y-45760000D01*
X57441904Y-45712380D01*
X57680000Y-45712380D01*
X57775238Y-45760000D01*
X57822857Y-45807619D01*
X57870476Y-45902857D01*
X57870476Y-45998095D01*
X57822857Y-46140952D01*
X57251428Y-46712380D01*
X57870476Y-46712380D01*
X58822857Y-46712380D02*
X58251428Y-46712380D01*
X58537142Y-46712380D02*
X58537142Y-45712380D01*
X58441904Y-45855238D01*
X58346666Y-45950476D01*
X58251428Y-45998095D01*
%TO.C,TP28*%
X88892380Y-30918095D02*
X88892380Y-30346666D01*
X89892380Y-30632380D02*
X88892380Y-30632380D01*
X89892380Y-30013333D02*
X88892380Y-30013333D01*
X88892380Y-29632380D01*
X88940000Y-29537142D01*
X88987619Y-29489523D01*
X89082857Y-29441904D01*
X89225714Y-29441904D01*
X89320952Y-29489523D01*
X89368571Y-29537142D01*
X89416190Y-29632380D01*
X89416190Y-30013333D01*
X88987619Y-29060952D02*
X88940000Y-29013333D01*
X88892380Y-28918095D01*
X88892380Y-28680000D01*
X88940000Y-28584761D01*
X88987619Y-28537142D01*
X89082857Y-28489523D01*
X89178095Y-28489523D01*
X89320952Y-28537142D01*
X89892380Y-29108571D01*
X89892380Y-28489523D01*
X89320952Y-27918095D02*
X89273333Y-28013333D01*
X89225714Y-28060952D01*
X89130476Y-28108571D01*
X89082857Y-28108571D01*
X88987619Y-28060952D01*
X88940000Y-28013333D01*
X88892380Y-27918095D01*
X88892380Y-27727619D01*
X88940000Y-27632380D01*
X88987619Y-27584761D01*
X89082857Y-27537142D01*
X89130476Y-27537142D01*
X89225714Y-27584761D01*
X89273333Y-27632380D01*
X89320952Y-27727619D01*
X89320952Y-27918095D01*
X89368571Y-28013333D01*
X89416190Y-28060952D01*
X89511428Y-28108571D01*
X89701904Y-28108571D01*
X89797142Y-28060952D01*
X89844761Y-28013333D01*
X89892380Y-27918095D01*
X89892380Y-27727619D01*
X89844761Y-27632380D01*
X89797142Y-27584761D01*
X89701904Y-27537142D01*
X89511428Y-27537142D01*
X89416190Y-27584761D01*
X89368571Y-27632380D01*
X89320952Y-27727619D01*
%TO.C,TP35*%
X-1087620Y-36058095D02*
X-1087620Y-35486666D01*
X-87620Y-35772380D02*
X-1087620Y-35772380D01*
X-87620Y-35153333D02*
X-1087620Y-35153333D01*
X-1087620Y-34772380D01*
X-1040000Y-34677142D01*
X-992381Y-34629523D01*
X-897143Y-34581904D01*
X-754286Y-34581904D01*
X-659048Y-34629523D01*
X-611429Y-34677142D01*
X-563810Y-34772380D01*
X-563810Y-35153333D01*
X-1087620Y-34248571D02*
X-1087620Y-33629523D01*
X-706667Y-33962857D01*
X-706667Y-33820000D01*
X-659048Y-33724761D01*
X-611429Y-33677142D01*
X-516191Y-33629523D01*
X-278096Y-33629523D01*
X-182858Y-33677142D01*
X-135239Y-33724761D01*
X-87620Y-33820000D01*
X-87620Y-34105714D01*
X-135239Y-34200952D01*
X-182858Y-34248571D01*
X-1087620Y-32724761D02*
X-1087620Y-33200952D01*
X-611429Y-33248571D01*
X-659048Y-33200952D01*
X-706667Y-33105714D01*
X-706667Y-32867619D01*
X-659048Y-32772380D01*
X-611429Y-32724761D01*
X-516191Y-32677142D01*
X-278096Y-32677142D01*
X-182858Y-32724761D01*
X-135239Y-32772380D01*
X-87620Y-32867619D01*
X-87620Y-33105714D01*
X-135239Y-33200952D01*
X-182858Y-33248571D01*
%TO.C,J3*%
X-287620Y-20673333D02*
X426666Y-20673333D01*
X569523Y-20720952D01*
X664761Y-20816190D01*
X712380Y-20959047D01*
X712380Y-21054285D01*
X-287620Y-20292380D02*
X-287620Y-19673333D01*
X93333Y-20006666D01*
X93333Y-19863809D01*
X140952Y-19768571D01*
X188571Y-19720952D01*
X283809Y-19673333D01*
X521904Y-19673333D01*
X617142Y-19720952D01*
X664761Y-19768571D01*
X712380Y-19863809D01*
X712380Y-20149523D01*
X664761Y-20244761D01*
X617142Y-20292380D01*
%TO.C,H2*%
X88138095Y3347620D02*
X88138095Y4347620D01*
X88138095Y3871429D02*
X88709523Y3871429D01*
X88709523Y3347620D02*
X88709523Y4347620D01*
X89138095Y4252381D02*
X89185714Y4300000D01*
X89280952Y4347620D01*
X89519047Y4347620D01*
X89614285Y4300000D01*
X89661904Y4252381D01*
X89709523Y4157143D01*
X89709523Y4061905D01*
X89661904Y3919048D01*
X89090476Y3347620D01*
X89709523Y3347620D01*
%TO.C,G\u002A\u002A\u002A*%
G36*
X71552651Y-12330498D02*
G01*
X71660199Y-12132903D01*
X71862825Y-11986103D01*
X71865364Y-11984790D01*
X72117723Y-11911180D01*
X72314567Y-11927139D01*
X72528077Y-11962803D01*
X72715466Y-11982625D01*
X72724210Y-11983039D01*
X72891315Y-11990000D01*
X72891315Y-12705326D01*
X72889381Y-13025233D01*
X72879860Y-13241156D01*
X72857174Y-13382428D01*
X72815745Y-13478384D01*
X72749994Y-13558358D01*
X72724210Y-13584092D01*
X72504077Y-13721611D01*
X72226663Y-13791742D01*
X71958318Y-13777823D01*
X71955526Y-13777105D01*
X71755725Y-13699266D01*
X71665038Y-13613419D01*
X71683692Y-13542568D01*
X71811913Y-13509717D01*
X71952981Y-13519468D01*
X72244844Y-13526510D01*
X72450126Y-13451587D01*
X72546041Y-13328049D01*
X72552445Y-13265148D01*
X72477681Y-13271253D01*
X72408609Y-13295617D01*
X72145347Y-13332094D01*
X71898172Y-13256386D01*
X71694041Y-13089198D01*
X71559909Y-12851238D01*
X71522607Y-12623334D01*
X71832982Y-12623334D01*
X71879818Y-12828403D01*
X71998145Y-12996450D01*
X72154690Y-13085147D01*
X72199833Y-13090000D01*
X72336952Y-13045100D01*
X72456842Y-12956667D01*
X72568244Y-12759286D01*
X72576984Y-12523012D01*
X72486472Y-12304834D01*
X72338554Y-12183698D01*
X72167893Y-12169202D01*
X72005852Y-12246059D01*
X71883795Y-12398985D01*
X71833084Y-12612694D01*
X71832982Y-12623334D01*
X71522607Y-12623334D01*
X71521052Y-12613836D01*
X71552651Y-12330498D01*
G37*
G36*
X80792852Y-12346431D02*
G01*
X80844363Y-12225576D01*
X81000866Y-12053292D01*
X81233115Y-11940889D01*
X81489130Y-11908880D01*
X81601049Y-11926934D01*
X81812453Y-11960130D01*
X81965131Y-11961582D01*
X82148947Y-11946618D01*
X82148947Y-12650591D01*
X82147084Y-12967212D01*
X82137302Y-13181563D01*
X82113308Y-13324699D01*
X82068813Y-13427673D01*
X81997524Y-13521540D01*
X81965131Y-13557930D01*
X81721432Y-13734455D01*
X81429492Y-13800849D01*
X81135354Y-13750816D01*
X80991111Y-13667643D01*
X80918790Y-13582652D01*
X80918088Y-13526214D01*
X80989601Y-13500168D01*
X81158743Y-13498473D01*
X81254019Y-13502963D01*
X81476934Y-13507836D01*
X81609721Y-13483887D01*
X81694833Y-13419400D01*
X81730678Y-13371405D01*
X81795080Y-13267894D01*
X81771547Y-13247365D01*
X81645456Y-13290825D01*
X81375453Y-13333818D01*
X81133974Y-13266551D01*
X80937997Y-13111603D01*
X80804498Y-12891549D01*
X80751085Y-12632017D01*
X81087521Y-12632017D01*
X81139547Y-12835978D01*
X81248340Y-13000647D01*
X81401916Y-13085831D01*
X81447105Y-13090000D01*
X81565713Y-13045868D01*
X81681052Y-12956667D01*
X81797324Y-12774456D01*
X81821351Y-12580030D01*
X81770538Y-12398432D01*
X81662291Y-12254704D01*
X81514016Y-12173891D01*
X81343119Y-12181036D01*
X81201710Y-12266999D01*
X81104247Y-12428960D01*
X81087521Y-12632017D01*
X80751085Y-12632017D01*
X80750457Y-12628966D01*
X80792852Y-12346431D01*
G37*
G36*
X89071162Y-11963880D02*
G01*
X89338802Y-11965883D01*
X89511597Y-11984679D01*
X89628163Y-12029363D01*
X89727115Y-12109032D01*
X89739583Y-12121319D01*
X89874619Y-12343233D01*
X89910269Y-12612961D01*
X89847155Y-12889840D01*
X89724766Y-13090596D01*
X89601466Y-13219028D01*
X89482021Y-13276279D01*
X89308658Y-13284065D01*
X89223409Y-13279044D01*
X89029885Y-13269531D01*
X88934761Y-13289592D01*
X88903091Y-13359336D01*
X88899958Y-13465171D01*
X88864130Y-13658784D01*
X88770247Y-13769334D01*
X88649342Y-13775493D01*
X88612523Y-13720847D01*
X88587212Y-13578459D01*
X88572145Y-13334438D01*
X88566057Y-12974894D01*
X88565789Y-12857309D01*
X88565789Y-12586288D01*
X88903507Y-12586288D01*
X88934291Y-12804261D01*
X89029876Y-12952869D01*
X89193037Y-13070745D01*
X89337980Y-13063177D01*
X89468938Y-12955806D01*
X89573542Y-12750502D01*
X89574720Y-12515443D01*
X89474340Y-12303027D01*
X89444465Y-12270074D01*
X89330964Y-12174003D01*
X89233678Y-12168612D01*
X89115825Y-12225872D01*
X88965917Y-12377436D01*
X88903507Y-12586288D01*
X88565789Y-12586288D01*
X88565789Y-11969062D01*
X89071162Y-11963880D01*
G37*
G36*
X67635230Y-11521323D02*
G01*
X67772740Y-11608795D01*
X67865878Y-11723576D01*
X67846881Y-11823186D01*
X67789915Y-11880031D01*
X67703675Y-11872074D01*
X67550630Y-11798252D01*
X67318926Y-11713140D01*
X67129812Y-11717007D01*
X67008060Y-11804289D01*
X66975789Y-11927392D01*
X66993903Y-12025638D01*
X67065507Y-12109002D01*
X67216500Y-12199150D01*
X67408037Y-12289004D01*
X67656366Y-12411499D01*
X67803067Y-12517056D01*
X67874779Y-12626301D01*
X67884415Y-12657799D01*
X67883878Y-12902463D01*
X67764562Y-13112587D01*
X67545944Y-13260131D01*
X67348750Y-13330197D01*
X67191509Y-13342603D01*
X67011996Y-13308037D01*
X66827508Y-13234066D01*
X66669393Y-13126300D01*
X66581128Y-13016732D01*
X66574736Y-12986267D01*
X66616489Y-12876127D01*
X66742546Y-12867538D01*
X66954107Y-12960445D01*
X66966913Y-12967731D01*
X67147032Y-13058447D01*
X67274922Y-13078716D01*
X67403020Y-13038755D01*
X67537735Y-12926414D01*
X67575158Y-12782655D01*
X67505063Y-12652047D01*
X67493815Y-12642976D01*
X67384833Y-12583813D01*
X67201559Y-12504543D01*
X67092000Y-12462342D01*
X66834339Y-12335530D01*
X66692652Y-12176306D01*
X66649520Y-11961111D01*
X66654284Y-11870253D01*
X66732584Y-11676280D01*
X66902985Y-11536649D01*
X67132330Y-11459112D01*
X67387463Y-11451420D01*
X67635230Y-11521323D01*
G37*
G36*
X75392874Y-11984617D02*
G01*
X75605546Y-11917506D01*
X75849264Y-11932308D01*
X76068541Y-12033191D01*
X76236234Y-12194233D01*
X76325201Y-12389512D01*
X76309569Y-12589851D01*
X76251812Y-12646112D01*
X76116194Y-12677741D01*
X75878181Y-12689570D01*
X75801045Y-12690000D01*
X75530168Y-12698537D01*
X75381382Y-12729875D01*
X75343853Y-12792603D01*
X75406749Y-12895310D01*
X75464736Y-12956667D01*
X75629490Y-13070516D01*
X75801077Y-13067910D01*
X75967888Y-12982670D01*
X76123685Y-12918152D01*
X76245399Y-12918693D01*
X76310325Y-12959042D01*
X76289960Y-13022716D01*
X76195784Y-13124408D01*
X75947880Y-13284517D01*
X75662455Y-13323879D01*
X75415177Y-13260114D01*
X75188088Y-13097421D01*
X75055974Y-12875097D01*
X75014614Y-12622898D01*
X75059791Y-12370581D01*
X75084580Y-12327284D01*
X75407436Y-12327284D01*
X75439338Y-12391701D01*
X75596490Y-12420800D01*
X75696586Y-12423334D01*
X75881152Y-12414516D01*
X75958222Y-12381512D01*
X75956582Y-12322758D01*
X75855929Y-12221072D01*
X75693760Y-12175464D01*
X75535424Y-12199980D01*
X75497289Y-12224052D01*
X75407436Y-12327284D01*
X75084580Y-12327284D01*
X75187284Y-12147902D01*
X75392874Y-11984617D01*
G37*
G36*
X76796558Y-11984617D02*
G01*
X77009230Y-11917506D01*
X77252948Y-11932308D01*
X77472225Y-12033191D01*
X77639918Y-12194233D01*
X77728885Y-12389512D01*
X77713253Y-12589851D01*
X77655496Y-12646112D01*
X77519878Y-12677741D01*
X77281866Y-12689570D01*
X77204729Y-12690000D01*
X76933852Y-12698537D01*
X76785066Y-12729875D01*
X76747537Y-12792603D01*
X76810434Y-12895310D01*
X76868421Y-12956667D01*
X77033174Y-13070516D01*
X77204761Y-13067910D01*
X77371572Y-12982670D01*
X77527370Y-12918152D01*
X77649083Y-12918693D01*
X77714010Y-12959042D01*
X77693644Y-13022716D01*
X77599468Y-13124408D01*
X77351564Y-13284517D01*
X77066140Y-13323879D01*
X76818861Y-13260114D01*
X76591773Y-13097421D01*
X76459658Y-12875097D01*
X76418299Y-12622898D01*
X76463475Y-12370581D01*
X76488264Y-12327284D01*
X76811120Y-12327284D01*
X76843022Y-12391701D01*
X77000174Y-12420800D01*
X77100270Y-12423334D01*
X77284837Y-12414516D01*
X77361906Y-12381512D01*
X77360266Y-12322758D01*
X77259614Y-12221072D01*
X77097444Y-12175464D01*
X76939108Y-12199980D01*
X76900974Y-12224052D01*
X76811120Y-12327284D01*
X76488264Y-12327284D01*
X76590968Y-12147902D01*
X76796558Y-11984617D01*
G37*
G36*
X84230139Y-11483957D02*
G01*
X84405721Y-11554594D01*
X84507156Y-11645423D01*
X84514010Y-11719648D01*
X84481211Y-11790903D01*
X84430719Y-11816118D01*
X84324474Y-11798159D01*
X84148716Y-11747149D01*
X83928442Y-11704961D01*
X83738724Y-11736838D01*
X83681555Y-11758633D01*
X83477226Y-11908193D01*
X83350534Y-12132172D01*
X83307577Y-12392356D01*
X83354453Y-12650529D01*
X83497260Y-12868475D01*
X83503523Y-12874396D01*
X83707196Y-13011190D01*
X83915963Y-13068131D01*
X84100284Y-13049260D01*
X84230619Y-12958615D01*
X84277429Y-12800239D01*
X84275190Y-12768850D01*
X84235751Y-12639682D01*
X84129342Y-12582337D01*
X84037236Y-12569110D01*
X83871688Y-12524873D01*
X83820000Y-12449116D01*
X83847957Y-12392683D01*
X83949647Y-12367313D01*
X84151797Y-12367505D01*
X84204342Y-12370007D01*
X84588684Y-12390000D01*
X84608758Y-12736265D01*
X84612663Y-12949758D01*
X84583975Y-13075542D01*
X84509411Y-13157844D01*
X84475073Y-13181334D01*
X84177325Y-13299289D01*
X83838104Y-13315675D01*
X83586052Y-13258516D01*
X83289945Y-13093023D01*
X83090204Y-12862226D01*
X82984069Y-12590280D01*
X82968780Y-12301342D01*
X83041577Y-12019568D01*
X83199700Y-11769116D01*
X83440389Y-11574142D01*
X83760884Y-11458802D01*
X83792295Y-11453353D01*
X84014351Y-11446036D01*
X84230139Y-11483957D01*
G37*
G36*
X85766033Y-12135366D02*
G01*
X85981857Y-11975591D01*
X86258132Y-11909030D01*
X86383280Y-11914367D01*
X86656358Y-12002674D01*
X86855531Y-12173339D01*
X86976307Y-12397857D01*
X87014194Y-12647723D01*
X86964699Y-12894433D01*
X86823329Y-13109483D01*
X86595413Y-13260352D01*
X86389818Y-13334041D01*
X86233277Y-13344409D01*
X86057304Y-13291651D01*
X85987085Y-13262068D01*
X85793356Y-13116760D01*
X85661886Y-12921753D01*
X85587985Y-12633669D01*
X85593934Y-12594164D01*
X85899768Y-12594164D01*
X85930677Y-12762228D01*
X86030640Y-12914343D01*
X86200229Y-13059448D01*
X86374451Y-13071357D01*
X86552334Y-12950016D01*
X86557922Y-12944096D01*
X86672033Y-12737506D01*
X86678254Y-12509173D01*
X86576394Y-12306720D01*
X86560526Y-12290000D01*
X86370568Y-12168529D01*
X86186805Y-12177213D01*
X86024399Y-12313174D01*
X85968953Y-12402284D01*
X85899768Y-12594164D01*
X85593934Y-12594164D01*
X85628722Y-12363133D01*
X85766033Y-12135366D01*
G37*
G36*
X62211643Y-11509229D02*
G01*
X62245791Y-11527972D01*
X62239809Y-11601669D01*
X62196716Y-11776901D01*
X62123284Y-12029262D01*
X62026286Y-12334342D01*
X62000717Y-12411306D01*
X61878150Y-12766761D01*
X61783447Y-13012572D01*
X61707643Y-13167265D01*
X61641770Y-13249369D01*
X61581895Y-13276773D01*
X61495285Y-13264225D01*
X61418083Y-13181276D01*
X61330982Y-13003428D01*
X61292951Y-12910106D01*
X61204977Y-12698009D01*
X61130755Y-12536457D01*
X61092135Y-12468850D01*
X61046269Y-12497582D01*
X60970627Y-12624626D01*
X60881119Y-12822985D01*
X60876074Y-12835517D01*
X60758103Y-13093352D01*
X60653718Y-13235771D01*
X60573199Y-13277083D01*
X60512703Y-13270983D01*
X60455734Y-13220077D01*
X60392565Y-13105314D01*
X60313469Y-12907642D01*
X60208719Y-12608011D01*
X60164683Y-12476985D01*
X60061567Y-12161885D01*
X59976163Y-11888551D01*
X59916584Y-11683869D01*
X59890945Y-11574723D01*
X59890526Y-11568599D01*
X59945449Y-11505447D01*
X60035187Y-11502030D01*
X60115833Y-11537383D01*
X60190139Y-11632986D01*
X60271461Y-11812151D01*
X60368108Y-12083159D01*
X60454901Y-12335720D01*
X60527065Y-12535526D01*
X60573486Y-12652231D01*
X60582842Y-12669388D01*
X60618580Y-12626351D01*
X60687275Y-12488207D01*
X60774315Y-12284456D01*
X60777622Y-12276229D01*
X60900797Y-12009872D01*
X61010590Y-11874111D01*
X61116496Y-11869020D01*
X61228015Y-11994669D01*
X61354643Y-12251132D01*
X61367139Y-12280714D01*
X61458727Y-12481893D01*
X61533363Y-12613587D01*
X61575934Y-12649452D01*
X61577509Y-12647381D01*
X61612225Y-12561449D01*
X61676433Y-12381645D01*
X61758481Y-12140956D01*
X61792043Y-12040000D01*
X61894332Y-11753653D01*
X61977602Y-11579627D01*
X62051570Y-11500025D01*
X62090664Y-11490000D01*
X62211643Y-11509229D01*
G37*
G36*
X62549553Y-12290000D02*
G01*
X62713017Y-11909592D01*
X62843821Y-11651678D01*
X62954583Y-11516682D01*
X63057926Y-11505025D01*
X63166468Y-11617132D01*
X63292829Y-11853427D01*
X63449631Y-12214331D01*
X63494078Y-12321680D01*
X63617854Y-12633257D01*
X63715949Y-12902255D01*
X63780073Y-13104165D01*
X63801937Y-13214477D01*
X63799647Y-13225177D01*
X63702971Y-13290708D01*
X63585239Y-13241666D01*
X63469605Y-13089310D01*
X63453117Y-13056667D01*
X63377541Y-12918602D01*
X63292596Y-12849586D01*
X63152018Y-12825810D01*
X62999732Y-12823334D01*
X62796223Y-12828975D01*
X62683292Y-12861607D01*
X62617873Y-12944796D01*
X62573311Y-13056667D01*
X62486953Y-13205519D01*
X62379335Y-13287432D01*
X62283391Y-13291211D01*
X62232058Y-13205664D01*
X62230022Y-13173334D01*
X62254751Y-13069141D01*
X62322141Y-12870581D01*
X62422021Y-12605765D01*
X62441825Y-12556667D01*
X62771558Y-12556667D01*
X63002094Y-12556667D01*
X63155475Y-12550242D01*
X63230992Y-12534477D01*
X63232631Y-12531475D01*
X63208863Y-12448472D01*
X63152035Y-12310680D01*
X63083863Y-12165012D01*
X63026063Y-12058380D01*
X63001793Y-12032794D01*
X62964339Y-12103907D01*
X62898401Y-12252110D01*
X62875435Y-12306667D01*
X62771558Y-12556667D01*
X62441825Y-12556667D01*
X62544223Y-12302806D01*
X62549553Y-12290000D01*
G37*
G36*
X64118289Y-11502030D02*
G01*
X64183612Y-11517936D01*
X64227488Y-11559340D01*
X64255092Y-11649820D01*
X64271600Y-11812953D01*
X64282187Y-12072319D01*
X64287583Y-12273334D01*
X64306483Y-13023334D01*
X64655215Y-13024354D01*
X64934170Y-13042912D01*
X65104891Y-13094127D01*
X65157737Y-13174207D01*
X65142250Y-13215880D01*
X65052358Y-13254056D01*
X64851687Y-13279649D01*
X64562779Y-13289921D01*
X64532107Y-13290000D01*
X63967894Y-13290000D01*
X63967894Y-12385363D01*
X63968530Y-12023295D01*
X63972755Y-11774158D01*
X63984040Y-11617554D01*
X64005860Y-11533079D01*
X64041689Y-11500335D01*
X64094999Y-11498920D01*
X64118289Y-11502030D01*
G37*
G36*
X66199802Y-11493897D02*
G01*
X66382611Y-11508120D01*
X66477587Y-11536466D01*
X66507577Y-11582733D01*
X66507894Y-11590000D01*
X66478889Y-11646092D01*
X66375245Y-11677268D01*
X66172025Y-11689268D01*
X66073421Y-11690000D01*
X65638947Y-11690000D01*
X65638947Y-12216366D01*
X65989242Y-12236516D01*
X66208050Y-12259998D01*
X66322982Y-12305352D01*
X66361775Y-12373334D01*
X66356142Y-12440507D01*
X66287408Y-12475871D01*
X66127129Y-12488899D01*
X66011480Y-12490000D01*
X65638947Y-12490000D01*
X65638947Y-13023334D01*
X65967691Y-13023334D01*
X66257205Y-13037128D01*
X66430741Y-13081762D01*
X66503447Y-13162108D01*
X66507894Y-13197133D01*
X66478349Y-13243186D01*
X66375805Y-13271860D01*
X66179395Y-13286377D01*
X65906315Y-13290000D01*
X65304736Y-13290000D01*
X65304736Y-11490000D01*
X65906315Y-11490000D01*
X66199802Y-11493897D01*
G37*
G36*
X69675592Y-11493897D02*
G01*
X69858400Y-11508120D01*
X69953377Y-11536466D01*
X69983367Y-11582733D01*
X69983684Y-11590000D01*
X69954678Y-11646092D01*
X69851035Y-11677268D01*
X69647814Y-11689268D01*
X69549210Y-11690000D01*
X69114736Y-11690000D01*
X69114736Y-12223334D01*
X69482368Y-12223334D01*
X69694822Y-12229121D01*
X69805498Y-12254143D01*
X69846079Y-12309890D01*
X69850000Y-12356667D01*
X69834043Y-12433720D01*
X69765051Y-12473860D01*
X69611343Y-12488578D01*
X69482368Y-12490000D01*
X69114736Y-12490000D01*
X69114736Y-13023334D01*
X69443480Y-13023334D01*
X69732994Y-13037128D01*
X69906531Y-13081762D01*
X69979236Y-13162108D01*
X69983684Y-13197133D01*
X69954139Y-13243186D01*
X69851594Y-13271860D01*
X69655185Y-13286377D01*
X69382105Y-13290000D01*
X68780526Y-13290000D01*
X68780526Y-11490000D01*
X69382105Y-11490000D01*
X69675592Y-11493897D01*
G37*
G36*
X71059355Y-11950116D02*
G01*
X71208906Y-12014625D01*
X71298901Y-12151691D01*
X71342768Y-12381327D01*
X71353947Y-12708913D01*
X71351572Y-12978836D01*
X71339544Y-13143284D01*
X71310504Y-13230094D01*
X71257096Y-13267106D01*
X71203552Y-13277970D01*
X71126535Y-13281243D01*
X71081621Y-13245900D01*
X71060181Y-13144974D01*
X71053586Y-12951494D01*
X71053157Y-12807970D01*
X71040153Y-12495009D01*
X70995962Y-12294610D01*
X70912817Y-12188066D01*
X70782953Y-12156667D01*
X70782780Y-12156667D01*
X70617580Y-12212738D01*
X70509619Y-12383099D01*
X70457349Y-12670970D01*
X70451579Y-12845250D01*
X70447263Y-13084288D01*
X70428857Y-13218896D01*
X70388176Y-13277848D01*
X70325046Y-13290000D01*
X70199435Y-13240985D01*
X70157940Y-13184548D01*
X70134111Y-13052767D01*
X70121555Y-12840148D01*
X70119722Y-12589580D01*
X70128061Y-12343954D01*
X70146021Y-12146160D01*
X70172649Y-12039708D01*
X70275283Y-11972722D01*
X70388862Y-11951246D01*
X70561711Y-11946164D01*
X70784707Y-11939663D01*
X70836822Y-11938151D01*
X71059355Y-11950116D01*
G37*
G36*
X73275657Y-11968697D02*
G01*
X73345455Y-11985892D01*
X73389467Y-12030685D01*
X73413619Y-12128868D01*
X73423836Y-12306232D01*
X73426044Y-12588567D01*
X73426052Y-12623334D01*
X73424317Y-12917506D01*
X73415160Y-13104144D01*
X73392658Y-13209039D01*
X73350884Y-13257983D01*
X73283913Y-13276766D01*
X73275657Y-13277970D01*
X73207789Y-13282218D01*
X73164197Y-13256203D01*
X73139511Y-13176549D01*
X73128360Y-13019878D01*
X73125374Y-12762813D01*
X73125263Y-12623334D01*
X73126457Y-12318471D01*
X73133619Y-12123563D01*
X73152120Y-12015234D01*
X73187330Y-11970105D01*
X73244620Y-11964800D01*
X73275657Y-11968697D01*
G37*
G36*
X74636467Y-11990262D02*
G01*
X74681955Y-12024184D01*
X74773846Y-12103409D01*
X74827809Y-12185825D01*
X74852231Y-12306037D01*
X74855499Y-12498651D01*
X74849039Y-12713539D01*
X74836499Y-12982639D01*
X74817460Y-13144877D01*
X74784467Y-13226722D01*
X74730064Y-13254643D01*
X74696052Y-13256667D01*
X74628151Y-13244040D01*
X74585966Y-13188163D01*
X74561537Y-13062039D01*
X74546906Y-12838673D01*
X74542788Y-12736810D01*
X74520806Y-12433653D01*
X74475185Y-12248171D01*
X74394949Y-12165304D01*
X74269117Y-12169993D01*
X74160038Y-12211784D01*
X74076173Y-12262684D01*
X74025697Y-12342770D01*
X73998007Y-12485030D01*
X73982504Y-12722454D01*
X73980484Y-12770548D01*
X73966812Y-13022522D01*
X73944615Y-13170714D01*
X73903990Y-13244665D01*
X73835033Y-13273919D01*
X73810394Y-13277970D01*
X73742380Y-13282206D01*
X73698757Y-13256057D01*
X73674111Y-13176089D01*
X73663031Y-13018867D01*
X73660101Y-12760958D01*
X73660000Y-12626911D01*
X73660000Y-11954549D01*
X73843815Y-11961392D01*
X74041988Y-11953000D01*
X74260962Y-11923219D01*
X74261599Y-11923097D01*
X74465218Y-11912719D01*
X74636467Y-11990262D01*
G37*
G36*
X78729717Y-11951178D02*
G01*
X78859037Y-11986871D01*
X78905189Y-11959759D01*
X78992243Y-11923281D01*
X79042930Y-11933378D01*
X79089894Y-11980138D01*
X79119845Y-12091842D01*
X79135860Y-12290496D01*
X79141015Y-12598103D01*
X79141052Y-12635103D01*
X79139813Y-12936782D01*
X79132419Y-13128695D01*
X79113359Y-13234409D01*
X79077117Y-13277491D01*
X79018183Y-13281506D01*
X78990657Y-13277970D01*
X78917494Y-13258417D01*
X78871416Y-13206938D01*
X78844653Y-13096362D01*
X78829430Y-12899515D01*
X78821124Y-12685235D01*
X78801985Y-12113803D01*
X78606037Y-12142487D01*
X78431128Y-12194637D01*
X78315783Y-12305845D01*
X78245644Y-12500244D01*
X78206353Y-12801965D01*
X78205263Y-12816041D01*
X78179161Y-13063332D01*
X78141926Y-13204857D01*
X78084572Y-13268165D01*
X78054666Y-13277630D01*
X77938066Y-13252069D01*
X77901388Y-13206021D01*
X77886953Y-13098985D01*
X77880281Y-12896723D01*
X77882328Y-12637172D01*
X77884880Y-12551094D01*
X77896264Y-12278155D01*
X77912893Y-12111653D01*
X77943587Y-12024741D01*
X77997164Y-11990570D01*
X78071579Y-11982748D01*
X78271083Y-11958470D01*
X78416274Y-11927080D01*
X78606039Y-11916050D01*
X78729717Y-11951178D01*
G37*
G36*
X80283581Y-11950089D02*
G01*
X80433135Y-12014658D01*
X80523127Y-12151764D01*
X80566986Y-12381428D01*
X80578157Y-12708913D01*
X80575783Y-12978836D01*
X80563755Y-13143284D01*
X80534715Y-13230094D01*
X80481307Y-13267106D01*
X80427763Y-13277970D01*
X80350745Y-13281243D01*
X80305832Y-13245900D01*
X80284392Y-13144974D01*
X80277796Y-12951494D01*
X80277368Y-12807970D01*
X80264614Y-12496141D01*
X80220902Y-12296472D01*
X80138058Y-12189742D01*
X80007910Y-12156727D01*
X80000421Y-12156667D01*
X79847962Y-12218416D01*
X79740835Y-12396494D01*
X79683923Y-12680145D01*
X79675789Y-12871501D01*
X79671328Y-13101120D01*
X79651574Y-13227439D01*
X79606974Y-13280370D01*
X79542105Y-13290000D01*
X79481300Y-13280863D01*
X79442358Y-13237374D01*
X79420451Y-13135420D01*
X79410752Y-12950885D01*
X79408433Y-12659655D01*
X79408421Y-12622275D01*
X79408421Y-11954549D01*
X79592236Y-11950364D01*
X79780631Y-11945675D01*
X80012794Y-11939400D01*
X80061032Y-11938036D01*
X80283581Y-11950089D01*
G37*
G36*
X85545011Y-11952657D02*
G01*
X85609529Y-12032885D01*
X85611091Y-12040000D01*
X85592038Y-12130988D01*
X85472892Y-12156667D01*
X85292209Y-12200164D01*
X85170108Y-12338675D01*
X85099448Y-12584232D01*
X85076879Y-12823957D01*
X85056389Y-13075030D01*
X85020100Y-13216789D01*
X84961507Y-13272932D01*
X84953056Y-13274969D01*
X84834195Y-13266521D01*
X84802661Y-13247860D01*
X84782201Y-13164658D01*
X84766267Y-12980349D01*
X84757117Y-12727142D01*
X84755789Y-12578929D01*
X84755789Y-11956747D01*
X84973026Y-11958872D01*
X85200472Y-11954191D01*
X85388953Y-11942165D01*
X85545011Y-11952657D01*
G37*
G36*
X87312500Y-11968697D02*
G01*
X87390771Y-11991681D01*
X87439641Y-12052783D01*
X87469548Y-12181214D01*
X87490930Y-12406183D01*
X87496315Y-12483130D01*
X87537418Y-12811838D01*
X87609539Y-13014780D01*
X87715825Y-13096596D01*
X87859427Y-13061925D01*
X87880657Y-13049319D01*
X87944761Y-12978957D01*
X87985433Y-12846839D01*
X88009245Y-12624703D01*
X88017230Y-12462068D01*
X88029529Y-12203654D01*
X88047924Y-12052181D01*
X88081350Y-11981286D01*
X88138744Y-11964608D01*
X88184335Y-11969074D01*
X88262209Y-11992326D01*
X88308890Y-12054562D01*
X88334537Y-12185724D01*
X88349311Y-12415753D01*
X88351230Y-12460948D01*
X88355320Y-12727757D01*
X88335477Y-12904398D01*
X88283791Y-13033076D01*
X88229405Y-13110948D01*
X88116355Y-13224307D01*
X87978729Y-13277075D01*
X87763684Y-13290000D01*
X87547302Y-13276769D01*
X87409659Y-13223550D01*
X87300640Y-13114343D01*
X87224295Y-12989409D01*
X87181456Y-12831162D01*
X87163932Y-12599915D01*
X87162105Y-12443040D01*
X87164400Y-12190409D01*
X87176964Y-12044235D01*
X87208315Y-11977650D01*
X87266971Y-11963788D01*
X87312500Y-11968697D01*
G37*
G36*
X73420857Y-11594859D02*
G01*
X73450706Y-11679983D01*
X73390687Y-11767862D01*
X73274975Y-11811304D01*
X73157614Y-11798440D01*
X73125263Y-11695250D01*
X73125263Y-11694637D01*
X73160967Y-11588208D01*
X73288676Y-11556719D01*
X73297269Y-11556667D01*
X73420857Y-11594859D01*
G37*
G36*
X78990657Y-11568905D02*
G01*
X79131904Y-11617661D01*
X79174473Y-11690000D01*
X79114648Y-11773707D01*
X78990657Y-11811095D01*
X78855780Y-11807228D01*
X78809278Y-11734914D01*
X78806842Y-11690000D01*
X78831851Y-11588536D01*
X78932233Y-11564085D01*
X78990657Y-11568905D01*
G37*
G36*
X72066002Y-7430081D02*
G01*
X72065666Y-7078307D01*
X72071238Y-6823155D01*
X72083878Y-6646295D01*
X72104746Y-6529395D01*
X72135003Y-6454125D01*
X72164996Y-6413476D01*
X72204431Y-6378441D01*
X72261831Y-6350713D01*
X72351929Y-6329446D01*
X72489455Y-6313790D01*
X72689142Y-6302899D01*
X72965721Y-6295922D01*
X73333925Y-6292014D01*
X73808484Y-6290325D01*
X74309675Y-6290000D01*
X76342314Y-6290000D01*
X76511046Y-6490000D01*
X76645843Y-6619359D01*
X76766504Y-6687092D01*
X76787211Y-6690000D01*
X76825107Y-6659664D01*
X76764833Y-6562699D01*
X76667894Y-6456667D01*
X76441144Y-6223334D01*
X75785835Y-6223334D01*
X75464985Y-6218506D01*
X75260407Y-6202529D01*
X75154985Y-6173161D01*
X75130526Y-6137494D01*
X75175302Y-6049836D01*
X75292479Y-5903815D01*
X75450322Y-5737494D01*
X75634197Y-5566102D01*
X75773658Y-5471479D01*
X75913768Y-5431328D01*
X76085322Y-5423334D01*
X76400526Y-5423334D01*
X76400526Y-5104161D01*
X76408850Y-4924842D01*
X76448561Y-4789891D01*
X76541769Y-4656141D01*
X76710586Y-4480428D01*
X76729588Y-4461724D01*
X76935753Y-4272171D01*
X77082476Y-4178358D01*
X77179481Y-4187818D01*
X77236493Y-4308080D01*
X77263239Y-4546674D01*
X77269473Y-4879745D01*
X77264661Y-5205083D01*
X77247954Y-5421747D01*
X77215947Y-5554130D01*
X77165237Y-5626623D01*
X77165213Y-5626642D01*
X77133364Y-5672009D01*
X77144780Y-5736834D01*
X77211312Y-5837208D01*
X77344809Y-5989218D01*
X77557121Y-6208954D01*
X77699949Y-6352665D01*
X78338947Y-6992386D01*
X78338947Y-8326671D01*
X77852770Y-8808335D01*
X77366593Y-9290000D01*
X75838658Y-9290000D01*
X76086171Y-9542811D01*
X76225203Y-9693023D01*
X76314999Y-9805788D01*
X76333684Y-9842811D01*
X76272402Y-9865386D01*
X76110702Y-9881303D01*
X75881801Y-9887504D01*
X75849079Y-9887439D01*
X75594162Y-9882478D01*
X75423681Y-9858971D01*
X75288388Y-9799008D01*
X75139035Y-9684680D01*
X75030263Y-9589672D01*
X74696052Y-9294466D01*
X73392631Y-9275567D01*
X72089210Y-9256667D01*
X72086988Y-9090000D01*
X72256315Y-9090000D01*
X73390533Y-9090000D01*
X73807863Y-9088654D01*
X74108623Y-9083574D01*
X74309912Y-9073201D01*
X74428828Y-9055973D01*
X74482468Y-9030332D01*
X74487930Y-8994715D01*
X74486277Y-8990000D01*
X74472314Y-8900781D01*
X74538589Y-8912745D01*
X74686266Y-9026651D01*
X74916508Y-9243258D01*
X74996842Y-9323334D01*
X75204402Y-9528427D01*
X75351787Y-9655877D01*
X75471519Y-9724114D01*
X75596120Y-9751567D01*
X75758111Y-9756666D01*
X75761503Y-9756667D01*
X76095552Y-9756667D01*
X75700414Y-9358410D01*
X75525977Y-9172490D01*
X75402538Y-9021127D01*
X75349281Y-8928713D01*
X75351175Y-8914375D01*
X75428416Y-8918184D01*
X75519721Y-8979298D01*
X75596447Y-9027491D01*
X75716248Y-9059847D01*
X75903156Y-9079162D01*
X76181201Y-9088235D01*
X76470833Y-9090000D01*
X77299297Y-9090000D01*
X77718859Y-8675259D01*
X78138421Y-8260519D01*
X78138421Y-7058943D01*
X77467270Y-6387268D01*
X77204372Y-6123118D01*
X77024451Y-5936188D01*
X76915997Y-5809373D01*
X76867504Y-5725569D01*
X76867462Y-5667670D01*
X76904363Y-5618572D01*
X76932533Y-5592464D01*
X77002668Y-5509399D01*
X77044131Y-5394417D01*
X77063899Y-5213807D01*
X77068947Y-4933857D01*
X77068947Y-4397178D01*
X76835000Y-4623334D01*
X76694136Y-4775269D01*
X76624740Y-4914303D01*
X76602337Y-5101088D01*
X76601052Y-5203078D01*
X76601052Y-5556667D01*
X76246533Y-5556667D01*
X76022962Y-5567069D01*
X75871660Y-5614549D01*
X75731818Y-5723517D01*
X75665263Y-5790000D01*
X75438512Y-6023333D01*
X76475370Y-6023333D01*
X76839001Y-6366337D01*
X77058799Y-6586772D01*
X77172675Y-6739007D01*
X77182777Y-6833330D01*
X77091254Y-6880024D01*
X76948375Y-6890000D01*
X76756849Y-6865922D01*
X76594529Y-6775048D01*
X76467368Y-6656667D01*
X76240617Y-6423333D01*
X74328677Y-6423333D01*
X73719902Y-6425064D01*
X73235169Y-6430513D01*
X72864878Y-6440066D01*
X72599429Y-6454109D01*
X72429222Y-6473026D01*
X72344656Y-6497205D01*
X72336526Y-6503334D01*
X72304881Y-6585750D01*
X72281613Y-6767261D01*
X72266170Y-7057024D01*
X72258001Y-7464196D01*
X72256315Y-7836667D01*
X72256315Y-9090000D01*
X72086988Y-9090000D01*
X72071084Y-7896810D01*
X72066002Y-7430081D01*
G37*
G36*
X73947204Y-7411715D02*
G01*
X73991841Y-7390750D01*
X74171739Y-7387655D01*
X74312447Y-7475459D01*
X74389889Y-7617965D01*
X74379987Y-7778976D01*
X74315052Y-7876667D01*
X74161378Y-7948883D01*
X73981401Y-7934958D01*
X73861246Y-7857533D01*
X73809627Y-7706861D01*
X73819838Y-7656667D01*
X73994210Y-7656667D01*
X74047715Y-7745051D01*
X74094473Y-7756667D01*
X74183090Y-7703302D01*
X74194736Y-7656667D01*
X74141231Y-7568282D01*
X74094473Y-7556667D01*
X74005856Y-7610031D01*
X73994210Y-7656667D01*
X73819838Y-7656667D01*
X73844064Y-7537581D01*
X73947204Y-7411715D01*
G37*
D11*
%TO.C,J12*%
X76165000Y-34315000D02*
X76165000Y-47075000D01*
X77495000Y-31715000D02*
X78825000Y-31715000D01*
X76165000Y-34315000D02*
X78825000Y-34315000D01*
X78825000Y-31715000D02*
X78825000Y-33045000D01*
X76165000Y-47075000D02*
X78825000Y-47075000D01*
X78825000Y-34315000D02*
X78825000Y-47075000D01*
%TO.C,R1*%
X26135000Y-20837936D02*
X26135000Y-21292064D01*
X24665000Y-20837936D02*
X24665000Y-21292064D01*
%TO.C,JP1*%
X8662936Y-10370000D02*
X9117064Y-10370000D01*
X8662936Y-8900000D02*
X9117064Y-8900000D01*
%TO.C,J9*%
X10125000Y-34315000D02*
X12785000Y-34315000D01*
X12785000Y-31715000D02*
X12785000Y-33045000D01*
X10125000Y-34315000D02*
X10125000Y-47075000D01*
X11455000Y-31715000D02*
X12785000Y-31715000D01*
X12785000Y-34315000D02*
X12785000Y-47075000D01*
X10125000Y-47075000D02*
X12785000Y-47075000D01*
%TO.C,C5*%
X28270000Y-25210000D02*
X24360000Y-25210000D01*
X24360000Y-27080000D02*
X28270000Y-27080000D01*
X24360000Y-25210000D02*
X24360000Y-27080000D01*
%TO.C,TP1*%
X66990000Y-33020000D02*
G75*
G03*
X66990000Y-33020000I-950000J0D01*
G01*
%TO.C,R14*%
X62032936Y-9625000D02*
X62487064Y-9625000D01*
X62032936Y-8155000D02*
X62487064Y-8155000D01*
D10*
%TO.C,TP14*%
X16750000Y-47390000D02*
X16750000Y-46590000D01*
X21350000Y-47390000D02*
X20850000Y-47890000D01*
X17250000Y-47890000D02*
X16750000Y-47390000D01*
X16750000Y-46590000D02*
X17250000Y-46090000D01*
X17250000Y-46090000D02*
X20850000Y-46090000D01*
X20850000Y-47890000D02*
X17250000Y-47890000D01*
X21350000Y-46590000D02*
X21350000Y-47390000D01*
X20850000Y-46090000D02*
X21350000Y-46590000D01*
%TO.C,TP24*%
X70880000Y1670000D02*
X70880000Y870000D01*
X70380000Y2170000D02*
X70880000Y1670000D01*
X66780000Y2170000D02*
X70380000Y2170000D01*
X70380000Y370000D02*
X66780000Y370000D01*
X66280000Y870000D02*
X66280000Y1670000D01*
X66780000Y370000D02*
X66280000Y870000D01*
X70880000Y870000D02*
X70380000Y370000D01*
X66280000Y1670000D02*
X66780000Y2170000D01*
D11*
%TO.C,J8*%
X60925000Y-34290000D02*
X60925000Y-47050000D01*
X62255000Y-31690000D02*
X63585000Y-31690000D01*
X63585000Y-31690000D02*
X63585000Y-33020000D01*
X60925000Y-47050000D02*
X63585000Y-47050000D01*
X60925000Y-34290000D02*
X63585000Y-34290000D01*
X63585000Y-34290000D02*
X63585000Y-47050000D01*
%TO.C,J4*%
X29210000Y-65550000D02*
X22900000Y-65550000D01*
X24320000Y-53830000D02*
X24320000Y-58330000D01*
X25760000Y-55740000D02*
X25460000Y-56340000D01*
X32710000Y-64940000D02*
X33210000Y-64940000D01*
X30710000Y-64940000D02*
X30710000Y-59440000D01*
X29210000Y-65550000D02*
X35520000Y-65550000D01*
X35520000Y-65550000D02*
X35520000Y-53830000D01*
X33210000Y-64940000D02*
X33210000Y-59440000D01*
X28210000Y-59440000D02*
X27710000Y-59440000D01*
X25210000Y-64940000D02*
X25710000Y-64940000D01*
X35520000Y-53830000D02*
X34100000Y-53830000D01*
X33210000Y-59440000D02*
X32710000Y-59440000D01*
X25710000Y-59440000D02*
X25210000Y-59440000D01*
X25460000Y-56340000D02*
X25160000Y-55740000D01*
X27710000Y-59440000D02*
X27710000Y-64940000D01*
X30210000Y-64940000D02*
X30710000Y-64940000D01*
X22900000Y-65550000D02*
X22900000Y-53830000D01*
X25210000Y-59440000D02*
X25210000Y-64940000D01*
X25160000Y-55740000D02*
X25760000Y-55740000D01*
X22900000Y-53830000D02*
X24320000Y-53830000D01*
X34100000Y-53830000D02*
X34100000Y-58330000D01*
X30210000Y-59440000D02*
X30210000Y-64940000D01*
X30710000Y-59440000D02*
X30210000Y-59440000D01*
X32710000Y-59440000D02*
X32710000Y-64940000D01*
X27710000Y-64940000D02*
X28210000Y-64940000D01*
X28210000Y-64940000D02*
X28210000Y-59440000D01*
X25710000Y-64940000D02*
X25710000Y-59440000D01*
%TO.C,TP3*%
X66990000Y-38100000D02*
G75*
G03*
X66990000Y-38100000I-950000J0D01*
G01*
%TO.C,TP6*%
X16190000Y-35560000D02*
G75*
G03*
X16190000Y-35560000I-950000J0D01*
G01*
%TO.C,R8*%
X45492936Y-51535000D02*
X45947064Y-51535000D01*
X45492936Y-50065000D02*
X45947064Y-50065000D01*
D10*
%TO.C,TP26*%
X69610000Y-47860000D02*
X69610000Y-48660000D01*
X69610000Y-48660000D02*
X69110000Y-49160000D01*
X65010000Y-48660000D02*
X65010000Y-47860000D01*
X69110000Y-47360000D02*
X69610000Y-47860000D01*
X65510000Y-47360000D02*
X69110000Y-47360000D01*
X69110000Y-49160000D02*
X65510000Y-49160000D01*
X65510000Y-49160000D02*
X65010000Y-48660000D01*
X65010000Y-47860000D02*
X65510000Y-47360000D01*
D11*
%TO.C,D1*%
X60600000Y-5815000D02*
X63060000Y-5815000D01*
X63060000Y-4345000D02*
X60600000Y-4345000D01*
X60600000Y-4345000D02*
X60600000Y-5815000D01*
%TO.C,R3*%
X19277064Y-51535000D02*
X18822936Y-51535000D01*
X19277064Y-50065000D02*
X18822936Y-50065000D01*
%TO.C,R15*%
X68352936Y-8155000D02*
X68807064Y-8155000D01*
X68352936Y-9625000D02*
X68807064Y-9625000D01*
D10*
%TO.C,TP13*%
X1510000Y-54210000D02*
X2010000Y-53710000D01*
X6110000Y-54210000D02*
X6110000Y-55010000D01*
X1510000Y-55010000D02*
X1510000Y-54210000D01*
X2010000Y-53710000D02*
X5610000Y-53710000D01*
X6110000Y-55010000D02*
X5610000Y-55510000D01*
X2010000Y-55510000D02*
X1510000Y-55010000D01*
X5610000Y-55510000D02*
X2010000Y-55510000D01*
X5610000Y-53710000D02*
X6110000Y-54210000D01*
%TO.C,TP25*%
X59930000Y870000D02*
X59930000Y1670000D01*
X60430000Y370000D02*
X59930000Y870000D01*
X64530000Y1670000D02*
X64530000Y870000D01*
X64530000Y870000D02*
X64030000Y370000D01*
X64030000Y370000D02*
X60430000Y370000D01*
X64030000Y2170000D02*
X64530000Y1670000D01*
X60430000Y2170000D02*
X64030000Y2170000D01*
X59930000Y1670000D02*
X60430000Y2170000D01*
D11*
%TO.C,C4*%
X25730000Y-13780000D02*
X21820000Y-13780000D01*
X21820000Y-13780000D02*
X21820000Y-15650000D01*
X21820000Y-15650000D02*
X25730000Y-15650000D01*
%TO.C,J13*%
X28310000Y-34315000D02*
X28310000Y-47075000D01*
X25650000Y-34315000D02*
X28310000Y-34315000D01*
X28310000Y-31715000D02*
X28310000Y-33045000D01*
X25650000Y-34315000D02*
X25650000Y-47075000D01*
X25650000Y-47075000D02*
X28310000Y-47075000D01*
X26980000Y-31715000D02*
X28310000Y-31715000D01*
D10*
%TO.C,TP27*%
X70090000Y-47860000D02*
X70590000Y-47360000D01*
X70590000Y-47360000D02*
X74190000Y-47360000D01*
X74190000Y-47360000D02*
X74690000Y-47860000D01*
X74190000Y-49160000D02*
X70590000Y-49160000D01*
X70090000Y-48660000D02*
X70090000Y-47860000D01*
X74690000Y-47860000D02*
X74690000Y-48660000D01*
X74690000Y-48660000D02*
X74190000Y-49160000D01*
X70590000Y-49160000D02*
X70090000Y-48660000D01*
D11*
%TO.C,C3*%
X25730000Y-8700000D02*
X21820000Y-8700000D01*
X21820000Y-8700000D02*
X21820000Y-10570000D01*
X21820000Y-10570000D02*
X25730000Y-10570000D01*
%TO.C,R4*%
X14705000Y-25917936D02*
X14705000Y-26372064D01*
X13235000Y-25917936D02*
X13235000Y-26372064D01*
D10*
%TO.C,TP16*%
X78980000Y870000D02*
X78980000Y1670000D01*
X83580000Y1670000D02*
X83580000Y870000D01*
X83580000Y870000D02*
X83080000Y370000D01*
X83080000Y2170000D02*
X83580000Y1670000D01*
X83080000Y370000D02*
X79480000Y370000D01*
X78980000Y1670000D02*
X79480000Y2170000D01*
X79480000Y2170000D02*
X83080000Y2170000D01*
X79480000Y370000D02*
X78980000Y870000D01*
D11*
%TO.C,J1*%
X10410000Y-64940000D02*
X10410000Y-59440000D01*
X12910000Y-64940000D02*
X12910000Y-59440000D01*
X20220000Y-65550000D02*
X20220000Y-53830000D01*
X10410000Y-59440000D02*
X9910000Y-59440000D01*
X9910000Y-64940000D02*
X10410000Y-64940000D01*
X7600000Y-53830000D02*
X9020000Y-53830000D01*
X12410000Y-59440000D02*
X12410000Y-64940000D01*
X17410000Y-59440000D02*
X17410000Y-64940000D01*
X15410000Y-64940000D02*
X15410000Y-59440000D01*
X15410000Y-59440000D02*
X14910000Y-59440000D01*
X20220000Y-53830000D02*
X18800000Y-53830000D01*
X14910000Y-59440000D02*
X14910000Y-64940000D01*
X17410000Y-64940000D02*
X17910000Y-64940000D01*
X17910000Y-64940000D02*
X17910000Y-59440000D01*
X9020000Y-53830000D02*
X9020000Y-58330000D01*
X17910000Y-59440000D02*
X17410000Y-59440000D01*
X18800000Y-53830000D02*
X18800000Y-58330000D01*
X7600000Y-65550000D02*
X7600000Y-53830000D01*
X12910000Y-59440000D02*
X12410000Y-59440000D01*
X10460000Y-55740000D02*
X10160000Y-56340000D01*
X9860000Y-55740000D02*
X10460000Y-55740000D01*
X9910000Y-59440000D02*
X9910000Y-64940000D01*
X12410000Y-64940000D02*
X12910000Y-64940000D01*
X14910000Y-64940000D02*
X15410000Y-64940000D01*
X13910000Y-65550000D02*
X20220000Y-65550000D01*
X10160000Y-56340000D02*
X9860000Y-55740000D01*
X13910000Y-65550000D02*
X7600000Y-65550000D01*
%TO.C,TP2*%
X66990000Y-35560000D02*
G75*
G03*
X66990000Y-35560000I-950000J0D01*
G01*
%TO.C,J5*%
X40950000Y-64940000D02*
X40950000Y-59440000D01*
X43450000Y-64940000D02*
X43450000Y-59440000D01*
X48450000Y-64940000D02*
X48450000Y-59440000D01*
X40950000Y-59440000D02*
X40450000Y-59440000D01*
X39560000Y-53830000D02*
X39560000Y-58330000D01*
X42950000Y-64940000D02*
X43450000Y-64940000D01*
X40700000Y-56340000D02*
X40400000Y-55740000D01*
X38140000Y-53830000D02*
X39560000Y-53830000D01*
X45950000Y-64940000D02*
X45950000Y-59440000D01*
X43450000Y-59440000D02*
X42950000Y-59440000D01*
X50760000Y-53830000D02*
X49340000Y-53830000D01*
X45450000Y-64940000D02*
X45950000Y-64940000D01*
X40450000Y-64940000D02*
X40950000Y-64940000D01*
X42950000Y-59440000D02*
X42950000Y-64940000D01*
X50760000Y-65550000D02*
X50760000Y-53830000D01*
X47950000Y-59440000D02*
X47950000Y-64940000D01*
X47950000Y-64940000D02*
X48450000Y-64940000D01*
X48450000Y-59440000D02*
X47950000Y-59440000D01*
X45950000Y-59440000D02*
X45450000Y-59440000D01*
X49340000Y-53830000D02*
X49340000Y-58330000D01*
X44450000Y-65550000D02*
X50760000Y-65550000D01*
X40450000Y-59440000D02*
X40450000Y-64940000D01*
X44450000Y-65550000D02*
X38140000Y-65550000D01*
X45450000Y-59440000D02*
X45450000Y-64940000D01*
X41000000Y-55740000D02*
X40700000Y-56340000D01*
X38140000Y-65550000D02*
X38140000Y-53830000D01*
X40400000Y-55740000D02*
X41000000Y-55740000D01*
D10*
%TO.C,TP19*%
X39610000Y-48660000D02*
X39610000Y-47860000D01*
X40110000Y-49160000D02*
X39610000Y-48660000D01*
X40110000Y-47360000D02*
X43710000Y-47360000D01*
X44210000Y-48660000D02*
X43710000Y-49160000D01*
X44210000Y-47860000D02*
X44210000Y-48660000D01*
X43710000Y-47360000D02*
X44210000Y-47860000D01*
X39610000Y-47860000D02*
X40110000Y-47360000D01*
X43710000Y-49160000D02*
X40110000Y-49160000D01*
%TO.C,TP29*%
X91840000Y-31990000D02*
X92340000Y-32490000D01*
X91840000Y-36590000D02*
X91040000Y-36590000D01*
X91040000Y-31990000D02*
X91840000Y-31990000D01*
X90540000Y-32490000D02*
X91040000Y-31990000D01*
X92340000Y-36090000D02*
X91840000Y-36590000D01*
X90540000Y-36090000D02*
X90540000Y-32490000D01*
X92340000Y-32490000D02*
X92340000Y-36090000D01*
X91040000Y-36590000D02*
X90540000Y-36090000D01*
D11*
%TO.C,R13*%
X80237064Y-51535000D02*
X79782936Y-51535000D01*
X80237064Y-50065000D02*
X79782936Y-50065000D01*
D10*
%TO.C,TP23*%
X5610000Y-13600000D02*
X2010000Y-13600000D01*
X6110000Y-12300000D02*
X6110000Y-13100000D01*
X2010000Y-13600000D02*
X1510000Y-13100000D01*
X1510000Y-13100000D02*
X1510000Y-12300000D01*
X6110000Y-13100000D02*
X5610000Y-13600000D01*
X2010000Y-11800000D02*
X5610000Y-11800000D01*
X1510000Y-12300000D02*
X2010000Y-11800000D01*
X5610000Y-11800000D02*
X6110000Y-12300000D01*
D11*
%TO.C,TP9*%
X74610000Y-40640000D02*
G75*
G03*
X74610000Y-40640000I-950000J0D01*
G01*
D10*
%TO.C,TP15*%
X76730000Y2170000D02*
X77230000Y1670000D01*
X73130000Y370000D02*
X72630000Y870000D01*
X72630000Y1670000D02*
X73130000Y2170000D01*
X73130000Y2170000D02*
X76730000Y2170000D01*
X77230000Y1670000D02*
X77230000Y870000D01*
X77230000Y870000D02*
X76730000Y370000D01*
X76730000Y370000D02*
X73130000Y370000D01*
X72630000Y870000D02*
X72630000Y1670000D01*
D11*
%TO.C,R6*%
X30252936Y-51535000D02*
X30707064Y-51535000D01*
X30252936Y-50065000D02*
X30707064Y-50065000D01*
%TO.C,TP8*%
X16190000Y-43180000D02*
G75*
G03*
X16190000Y-43180000I-950000J0D01*
G01*
%TO.C,TP10*%
X73340000Y-43180000D02*
G75*
G03*
X73340000Y-43180000I-950000J0D01*
G01*
D10*
%TO.C,TP17*%
X19790000Y-44080000D02*
X19290000Y-43580000D01*
X23390000Y-42280000D02*
X23890000Y-42780000D01*
X23390000Y-44080000D02*
X19790000Y-44080000D01*
X19290000Y-42780000D02*
X19790000Y-42280000D01*
X23890000Y-43580000D02*
X23390000Y-44080000D01*
X19290000Y-43580000D02*
X19290000Y-42780000D01*
X23890000Y-42780000D02*
X23890000Y-43580000D01*
X19790000Y-42280000D02*
X23390000Y-42280000D01*
%TO.C,TP32*%
X84850000Y-48660000D02*
X84350000Y-49160000D01*
X84350000Y-47360000D02*
X84850000Y-47860000D01*
X84850000Y-47860000D02*
X84850000Y-48660000D01*
X80250000Y-47860000D02*
X80750000Y-47360000D01*
X80250000Y-48660000D02*
X80250000Y-47860000D01*
X80750000Y-47360000D02*
X84350000Y-47360000D01*
X84350000Y-49160000D02*
X80750000Y-49160000D01*
X80750000Y-49160000D02*
X80250000Y-48660000D01*
%TO.C,TP20*%
X53870000Y-49160000D02*
X50270000Y-49160000D01*
X54370000Y-47860000D02*
X54370000Y-48660000D01*
X49770000Y-48660000D02*
X49770000Y-47860000D01*
X50270000Y-47360000D02*
X53870000Y-47360000D01*
X49770000Y-47860000D02*
X50270000Y-47360000D01*
X54370000Y-48660000D02*
X53870000Y-49160000D01*
X50270000Y-49160000D02*
X49770000Y-48660000D01*
X53870000Y-47360000D02*
X54370000Y-47860000D01*
%TO.C,TP36*%
X-3440000Y-31010000D02*
X-3440000Y-27410000D01*
X-2940000Y-26910000D02*
X-2140000Y-26910000D01*
X-2140000Y-31510000D02*
X-2940000Y-31510000D01*
X-1640000Y-27410000D02*
X-1640000Y-31010000D01*
X-3440000Y-27410000D02*
X-2940000Y-26910000D01*
X-1640000Y-31010000D02*
X-2140000Y-31510000D01*
X-2140000Y-26910000D02*
X-1640000Y-27410000D01*
X-2940000Y-31510000D02*
X-3440000Y-31010000D01*
D11*
%TO.C,TP5*%
X16190000Y-33020000D02*
G75*
G03*
X16190000Y-33020000I-950000J0D01*
G01*
%TO.C,R12*%
X75972936Y-51535000D02*
X76427064Y-51535000D01*
X75972936Y-50065000D02*
X76427064Y-50065000D01*
D10*
%TO.C,TP30*%
X90540000Y-37570000D02*
X91040000Y-37070000D01*
X91840000Y-37070000D02*
X92340000Y-37570000D01*
X91040000Y-37070000D02*
X91840000Y-37070000D01*
X91040000Y-41670000D02*
X90540000Y-41170000D01*
X92340000Y-37570000D02*
X92340000Y-41170000D01*
X92340000Y-41170000D02*
X91840000Y-41670000D01*
X90540000Y-41170000D02*
X90540000Y-37570000D01*
X91840000Y-41670000D02*
X91040000Y-41670000D01*
%TO.C,TP31*%
X90540000Y-46250000D02*
X90540000Y-42650000D01*
X92340000Y-42650000D02*
X92340000Y-46250000D01*
X91040000Y-42150000D02*
X91840000Y-42150000D01*
X90540000Y-42650000D02*
X91040000Y-42150000D01*
X91840000Y-42150000D02*
X92340000Y-42650000D01*
X91040000Y-46750000D02*
X90540000Y-46250000D01*
X92340000Y-46250000D02*
X91840000Y-46750000D01*
X91840000Y-46750000D02*
X91040000Y-46750000D01*
D11*
%TO.C,C2*%
X22112500Y-25907742D02*
X22112500Y-26382258D01*
X21067500Y-25907742D02*
X21067500Y-26382258D01*
%TO.C,TP4*%
X66990000Y-44450000D02*
G75*
G03*
X66990000Y-44450000I-950000J0D01*
G01*
%TO.C,C1*%
X16200000Y-20130000D02*
X12290000Y-20130000D01*
X16200000Y-22000000D02*
X16200000Y-20130000D01*
X12290000Y-22000000D02*
X16200000Y-22000000D01*
%TO.C,R11*%
X64997064Y-50065000D02*
X64542936Y-50065000D01*
X64997064Y-51535000D02*
X64542936Y-51535000D01*
%TO.C,J6*%
X60690000Y-59440000D02*
X60690000Y-64940000D01*
X66000000Y-65550000D02*
X66000000Y-53830000D01*
X56190000Y-59440000D02*
X55690000Y-59440000D01*
X58190000Y-64940000D02*
X58690000Y-64940000D01*
X61190000Y-59440000D02*
X60690000Y-59440000D01*
X63690000Y-59440000D02*
X63190000Y-59440000D01*
X55690000Y-64940000D02*
X56190000Y-64940000D01*
X60690000Y-64940000D02*
X61190000Y-64940000D01*
X56240000Y-55740000D02*
X55940000Y-56340000D01*
X64580000Y-53830000D02*
X64580000Y-58330000D01*
X55640000Y-55740000D02*
X56240000Y-55740000D01*
X56190000Y-64940000D02*
X56190000Y-59440000D01*
X59690000Y-65550000D02*
X66000000Y-65550000D01*
X55690000Y-59440000D02*
X55690000Y-64940000D01*
X63190000Y-64940000D02*
X63690000Y-64940000D01*
X61190000Y-64940000D02*
X61190000Y-59440000D01*
X53380000Y-65550000D02*
X53380000Y-53830000D01*
X59690000Y-65550000D02*
X53380000Y-65550000D01*
X58190000Y-59440000D02*
X58190000Y-64940000D01*
X66000000Y-53830000D02*
X64580000Y-53830000D01*
X58690000Y-64940000D02*
X58690000Y-59440000D01*
X63690000Y-64940000D02*
X63690000Y-59440000D01*
X53380000Y-53830000D02*
X54800000Y-53830000D01*
X55940000Y-56340000D02*
X55640000Y-55740000D01*
X58690000Y-59440000D02*
X58190000Y-59440000D01*
X54800000Y-53830000D02*
X54800000Y-58330000D01*
X63190000Y-59440000D02*
X63190000Y-64940000D01*
%TO.C,TP11*%
X23810000Y-33020000D02*
G75*
G03*
X23810000Y-33020000I-950000J0D01*
G01*
D10*
%TO.C,TP18*%
X38630000Y-47360000D02*
X39130000Y-47860000D01*
X39130000Y-48660000D02*
X38630000Y-49160000D01*
X35030000Y-47360000D02*
X38630000Y-47360000D01*
X34530000Y-48660000D02*
X34530000Y-47860000D01*
X34530000Y-47860000D02*
X35030000Y-47360000D01*
X35030000Y-49160000D02*
X34530000Y-48660000D01*
X38630000Y-49160000D02*
X35030000Y-49160000D01*
X39130000Y-47860000D02*
X39130000Y-48660000D01*
D11*
%TO.C,D2*%
X66920000Y-5815000D02*
X69380000Y-5815000D01*
X66920000Y-4345000D02*
X66920000Y-5815000D01*
X69380000Y-4345000D02*
X66920000Y-4345000D01*
%TO.C,TP7*%
X16190000Y-40640000D02*
G75*
G03*
X16190000Y-40640000I-950000J0D01*
G01*
%TO.C,TP12*%
X22540000Y-35560000D02*
G75*
G03*
X22540000Y-35560000I-950000J0D01*
G01*
%TO.C,A1*%
X53447500Y3920000D02*
X35667500Y3920000D01*
X56097500Y1270000D02*
X56097500Y-44450000D01*
X53447500Y-47100000D02*
X35667500Y-47100000D01*
X32697500Y-3540000D02*
X32697500Y-1540000D01*
X33017500Y1270000D02*
X33017500Y-44450000D01*
X56097500Y1270000D02*
G75*
G03*
X53447500Y3920000I-2650000J0D01*
G01*
X33017500Y-44450000D02*
G75*
G03*
X35667500Y-47100000I2650000J0D01*
G01*
X53447500Y-47100000D02*
G75*
G03*
X56097500Y-44450000I0J2650000D01*
G01*
X35667500Y3920000D02*
G75*
G03*
X33017500Y1270000I0J-2650000D01*
G01*
D10*
%TO.C,TP34*%
X-1640000Y-41170000D02*
X-2140000Y-41670000D01*
X-2140000Y-37070000D02*
X-1640000Y-37570000D01*
X-1640000Y-37570000D02*
X-1640000Y-41170000D01*
X-2940000Y-41670000D02*
X-3440000Y-41170000D01*
X-3440000Y-37570000D02*
X-2940000Y-37070000D01*
X-3440000Y-41170000D02*
X-3440000Y-37570000D01*
X-2940000Y-37070000D02*
X-2140000Y-37070000D01*
X-2140000Y-41670000D02*
X-2940000Y-41670000D01*
%TO.C,TP22*%
X2010000Y-7990000D02*
X5610000Y-7990000D01*
X1510000Y-8490000D02*
X2010000Y-7990000D01*
X5610000Y-9790000D02*
X2010000Y-9790000D01*
X6110000Y-8490000D02*
X6110000Y-9290000D01*
X2010000Y-9790000D02*
X1510000Y-9290000D01*
X5610000Y-7990000D02*
X6110000Y-8490000D01*
X6110000Y-9290000D02*
X5610000Y-9790000D01*
X1510000Y-9290000D02*
X1510000Y-8490000D01*
D11*
%TO.C,R7*%
X34517064Y-51535000D02*
X34062936Y-51535000D01*
X34517064Y-50065000D02*
X34062936Y-50065000D01*
D12*
%TO.C,VR1*%
X21820000Y-19065000D02*
X21820000Y-19370000D01*
X21515000Y-23065000D02*
X21820000Y-23065000D01*
X21820000Y-23065000D02*
X21820000Y-22760000D01*
X18820000Y-19065000D02*
X18820000Y-19370000D01*
X21515000Y-19065000D02*
X21820000Y-19065000D01*
X18820000Y-23065000D02*
X18820000Y-22760000D01*
X19125000Y-19065000D02*
X18820000Y-19065000D01*
X19125000Y-23065000D02*
X18820000Y-23065000D01*
D13*
X18120000Y-19665000D02*
G75*
G03*
X18120000Y-19665000I-100000J0D01*
G01*
D11*
%TO.C,R9*%
X49757064Y-50065000D02*
X49302936Y-50065000D01*
X49757064Y-51535000D02*
X49302936Y-51535000D01*
%TO.C,J10*%
X73430000Y-64940000D02*
X73930000Y-64940000D01*
X71180000Y-56340000D02*
X70880000Y-55740000D01*
X73930000Y-64940000D02*
X73930000Y-59440000D01*
X73930000Y-59440000D02*
X73430000Y-59440000D01*
X73430000Y-59440000D02*
X73430000Y-64940000D01*
X78930000Y-59440000D02*
X78430000Y-59440000D01*
X68620000Y-65550000D02*
X68620000Y-53830000D01*
X74930000Y-65550000D02*
X68620000Y-65550000D01*
X70040000Y-53830000D02*
X70040000Y-58330000D01*
X71430000Y-64940000D02*
X71430000Y-59440000D01*
X74930000Y-65550000D02*
X81240000Y-65550000D01*
X78430000Y-59440000D02*
X78430000Y-64940000D01*
X70930000Y-64940000D02*
X71430000Y-64940000D01*
X71480000Y-55740000D02*
X71180000Y-56340000D01*
X71430000Y-59440000D02*
X70930000Y-59440000D01*
X68620000Y-53830000D02*
X70040000Y-53830000D01*
X81240000Y-53830000D02*
X79820000Y-53830000D01*
X79820000Y-53830000D02*
X79820000Y-58330000D01*
X78930000Y-64940000D02*
X78930000Y-59440000D01*
X75930000Y-64940000D02*
X76430000Y-64940000D01*
X76430000Y-59440000D02*
X75930000Y-59440000D01*
X81240000Y-65550000D02*
X81240000Y-53830000D01*
X70930000Y-59440000D02*
X70930000Y-64940000D01*
X78430000Y-64940000D02*
X78930000Y-64940000D01*
X75930000Y-59440000D02*
X75930000Y-64940000D01*
X76430000Y-64940000D02*
X76430000Y-59440000D01*
X70880000Y-55740000D02*
X71480000Y-55740000D01*
%TO.C,R10*%
X60732936Y-50065000D02*
X61187064Y-50065000D01*
X60732936Y-51535000D02*
X61187064Y-51535000D01*
D10*
%TO.C,TP33*%
X-1640000Y-46250000D02*
X-2140000Y-46750000D01*
X-2140000Y-46750000D02*
X-2940000Y-46750000D01*
X-2140000Y-42150000D02*
X-1640000Y-42650000D01*
X-3440000Y-42650000D02*
X-2940000Y-42150000D01*
X-2940000Y-42150000D02*
X-2140000Y-42150000D01*
X-2940000Y-46750000D02*
X-3440000Y-46250000D01*
X-3440000Y-46250000D02*
X-3440000Y-42650000D01*
X-1640000Y-42650000D02*
X-1640000Y-46250000D01*
D11*
%TO.C,R2*%
X15012936Y-51535000D02*
X15467064Y-51535000D01*
X15012936Y-50065000D02*
X15467064Y-50065000D01*
%TO.C,R5*%
X17045000Y-25917936D02*
X17045000Y-26372064D01*
X18515000Y-25917936D02*
X18515000Y-26372064D01*
%TO.C,U1*%
X14600000Y-15585000D02*
X14600000Y-14325000D01*
X20610000Y-15585000D02*
X14600000Y-15585000D01*
X18360000Y-8765000D02*
X14600000Y-8765000D01*
X14600000Y-8765000D02*
X14600000Y-10025000D01*
D10*
%TO.C,TP21*%
X58950000Y-49160000D02*
X55350000Y-49160000D01*
X59450000Y-48660000D02*
X58950000Y-49160000D01*
X55350000Y-47360000D02*
X58950000Y-47360000D01*
X54850000Y-48660000D02*
X54850000Y-47860000D01*
X54850000Y-47860000D02*
X55350000Y-47360000D01*
X58950000Y-47360000D02*
X59450000Y-47860000D01*
X55350000Y-49160000D02*
X54850000Y-48660000D01*
X59450000Y-47860000D02*
X59450000Y-48660000D01*
%TO.C,TP28*%
X92340000Y-27410000D02*
X92340000Y-31010000D01*
X91840000Y-26910000D02*
X92340000Y-27410000D01*
X90540000Y-31010000D02*
X90540000Y-27410000D01*
X92340000Y-31010000D02*
X91840000Y-31510000D01*
X91040000Y-31510000D02*
X90540000Y-31010000D01*
X90540000Y-27410000D02*
X91040000Y-26910000D01*
X91840000Y-31510000D02*
X91040000Y-31510000D01*
X91040000Y-26910000D02*
X91840000Y-26910000D01*
%TO.C,TP35*%
X-2140000Y-36590000D02*
X-2940000Y-36590000D01*
X-2940000Y-31990000D02*
X-2140000Y-31990000D01*
X-3440000Y-32490000D02*
X-2940000Y-31990000D01*
X-1640000Y-32490000D02*
X-1640000Y-36090000D01*
X-2940000Y-36590000D02*
X-3440000Y-36090000D01*
X-1640000Y-36090000D02*
X-2140000Y-36590000D01*
X-3440000Y-36090000D02*
X-3440000Y-32490000D01*
X-2140000Y-31990000D02*
X-1640000Y-32490000D01*
D11*
%TO.C,J3*%
X1060000Y-24440000D02*
X2310000Y-24440000D01*
X7320000Y-24150000D02*
X7320000Y-16530000D01*
X6560000Y-23390000D02*
X6560000Y-20340000D01*
X2110000Y-24140000D02*
X2110000Y-22340000D01*
X1360000Y-24140000D02*
X2110000Y-24140000D01*
X2110000Y-16540000D02*
X1360000Y-16540000D01*
X1350000Y-24150000D02*
X7320000Y-24150000D01*
X1360000Y-16540000D02*
X1360000Y-18340000D01*
X2110000Y-22340000D02*
X1360000Y-22340000D01*
X2110000Y-19840000D02*
X1360000Y-19840000D01*
X3610000Y-16540000D02*
X3610000Y-17290000D01*
X1350000Y-16530000D02*
X1350000Y-24150000D01*
X7320000Y-16530000D02*
X1350000Y-16530000D01*
X1360000Y-20840000D02*
X2110000Y-20840000D01*
X2110000Y-18340000D02*
X2110000Y-16540000D01*
X3610000Y-23390000D02*
X6560000Y-23390000D01*
X1360000Y-22340000D02*
X1360000Y-24140000D01*
X6560000Y-17290000D02*
X6560000Y-20340000D01*
X1360000Y-19840000D02*
X1360000Y-20840000D01*
X3610000Y-24140000D02*
X3610000Y-23390000D01*
X3610000Y-17290000D02*
X6560000Y-17290000D01*
X2110000Y-20840000D02*
X2110000Y-19840000D01*
X1060000Y-23190000D02*
X1060000Y-24440000D01*
X1360000Y-18340000D02*
X2110000Y-18340000D01*
%TD*%
M02*
