%TF.GenerationSoftware,KiCad,Pcbnew,(6.0.6)*%
%TF.CreationDate,2024-02-28T23:36:51-08:00*%
%TF.ProjectId,Interface-PCBA,496e7465-7266-4616-9365-2d504342412e,rev?*%
%TF.SameCoordinates,PX43d3480PY49e1930*%
%TF.FileFunction,Legend,Bot*%
%TF.FilePolarity,Positive*%
%FSLAX46Y46*%
G04 Gerber Fmt 4.6, Leading zero omitted, Abs format (unit mm)*
G04 Created by KiCad (PCBNEW (6.0.6)) date 2024-02-28 23:36:51*
%MOMM*%
%LPD*%
G01*
G04 APERTURE LIST*
%ADD10C,0.150000*%
%ADD11C,0.127000*%
%ADD12C,0.120000*%
G04 APERTURE END LIST*
D10*
%TO.C,J2*%
X29543333Y3087620D02*
X29543333Y2373334D01*
X29590952Y2230477D01*
X29686190Y2135239D01*
X29829047Y2087620D01*
X29924285Y2087620D01*
X29114761Y2992381D02*
X29067142Y3040000D01*
X28971904Y3087620D01*
X28733809Y3087620D01*
X28638571Y3040000D01*
X28590952Y2992381D01*
X28543333Y2897143D01*
X28543333Y2801905D01*
X28590952Y2659048D01*
X29162380Y2087620D01*
X28543333Y2087620D01*
%TO.C,J7*%
X81517380Y-37766666D02*
X82231666Y-37766666D01*
X82374523Y-37719047D01*
X82469761Y-37623809D01*
X82517380Y-37480952D01*
X82517380Y-37385714D01*
X81517380Y-38147619D02*
X81517380Y-38814285D01*
X82517380Y-38385714D01*
%TO.C,J11*%
X6287380Y-37290476D02*
X7001666Y-37290476D01*
X7144523Y-37242857D01*
X7239761Y-37147619D01*
X7287380Y-37004761D01*
X7287380Y-36909523D01*
X7287380Y-38290476D02*
X7287380Y-37719047D01*
X7287380Y-38004761D02*
X6287380Y-38004761D01*
X6430238Y-37909523D01*
X6525476Y-37814285D01*
X6573095Y-37719047D01*
X7287380Y-39242857D02*
X7287380Y-38671428D01*
X7287380Y-38957142D02*
X6287380Y-38957142D01*
X6430238Y-38861904D01*
X6525476Y-38766666D01*
X6573095Y-38671428D01*
%TO.C,JP6*%
X71953333Y-48452380D02*
X71953333Y-49166666D01*
X72000952Y-49309523D01*
X72096190Y-49404761D01*
X72239047Y-49452380D01*
X72334285Y-49452380D01*
X71477142Y-49452380D02*
X71477142Y-48452380D01*
X71096190Y-48452380D01*
X71000952Y-48500000D01*
X70953333Y-48547619D01*
X70905714Y-48642857D01*
X70905714Y-48785714D01*
X70953333Y-48880952D01*
X71000952Y-48928571D01*
X71096190Y-48976190D01*
X71477142Y-48976190D01*
X70048571Y-48452380D02*
X70239047Y-48452380D01*
X70334285Y-48500000D01*
X70381904Y-48547619D01*
X70477142Y-48690476D01*
X70524761Y-48880952D01*
X70524761Y-49261904D01*
X70477142Y-49357142D01*
X70429523Y-49404761D01*
X70334285Y-49452380D01*
X70143809Y-49452380D01*
X70048571Y-49404761D01*
X70000952Y-49357142D01*
X69953333Y-49261904D01*
X69953333Y-49023809D01*
X70000952Y-48928571D01*
X70048571Y-48880952D01*
X70143809Y-48833333D01*
X70334285Y-48833333D01*
X70429523Y-48880952D01*
X70477142Y-48928571D01*
X70524761Y-49023809D01*
X68853333Y-50252380D02*
X68234285Y-50252380D01*
X68567619Y-50633333D01*
X68424761Y-50633333D01*
X68329523Y-50680952D01*
X68281904Y-50728571D01*
X68234285Y-50823809D01*
X68234285Y-51061904D01*
X68281904Y-51157142D01*
X68329523Y-51204761D01*
X68424761Y-51252380D01*
X68710476Y-51252380D01*
X68805714Y-51204761D01*
X68853333Y-51157142D01*
X73434285Y-51252380D02*
X74005714Y-51252380D01*
X73720000Y-51252380D02*
X73720000Y-50252380D01*
X73815238Y-50395238D01*
X73910476Y-50490476D01*
X74005714Y-50538095D01*
%TO.C,JP4*%
X41473333Y-48452380D02*
X41473333Y-49166666D01*
X41520952Y-49309523D01*
X41616190Y-49404761D01*
X41759047Y-49452380D01*
X41854285Y-49452380D01*
X40997142Y-49452380D02*
X40997142Y-48452380D01*
X40616190Y-48452380D01*
X40520952Y-48500000D01*
X40473333Y-48547619D01*
X40425714Y-48642857D01*
X40425714Y-48785714D01*
X40473333Y-48880952D01*
X40520952Y-48928571D01*
X40616190Y-48976190D01*
X40997142Y-48976190D01*
X39568571Y-48785714D02*
X39568571Y-49452380D01*
X39806666Y-48404761D02*
X40044761Y-49119047D01*
X39425714Y-49119047D01*
X42954285Y-51252380D02*
X43525714Y-51252380D01*
X43240000Y-51252380D02*
X43240000Y-50252380D01*
X43335238Y-50395238D01*
X43430476Y-50490476D01*
X43525714Y-50538095D01*
X38373333Y-50252380D02*
X37754285Y-50252380D01*
X38087619Y-50633333D01*
X37944761Y-50633333D01*
X37849523Y-50680952D01*
X37801904Y-50728571D01*
X37754285Y-50823809D01*
X37754285Y-51061904D01*
X37801904Y-51157142D01*
X37849523Y-51204761D01*
X37944761Y-51252380D01*
X38230476Y-51252380D01*
X38325714Y-51204761D01*
X38373333Y-51157142D01*
%TO.C,JP2*%
X10993333Y-48452380D02*
X10993333Y-49166666D01*
X11040952Y-49309523D01*
X11136190Y-49404761D01*
X11279047Y-49452380D01*
X11374285Y-49452380D01*
X10517142Y-49452380D02*
X10517142Y-48452380D01*
X10136190Y-48452380D01*
X10040952Y-48500000D01*
X9993333Y-48547619D01*
X9945714Y-48642857D01*
X9945714Y-48785714D01*
X9993333Y-48880952D01*
X10040952Y-48928571D01*
X10136190Y-48976190D01*
X10517142Y-48976190D01*
X9564761Y-48547619D02*
X9517142Y-48500000D01*
X9421904Y-48452380D01*
X9183809Y-48452380D01*
X9088571Y-48500000D01*
X9040952Y-48547619D01*
X8993333Y-48642857D01*
X8993333Y-48738095D01*
X9040952Y-48880952D01*
X9612380Y-49452380D01*
X8993333Y-49452380D01*
X7893333Y-50252380D02*
X7274285Y-50252380D01*
X7607619Y-50633333D01*
X7464761Y-50633333D01*
X7369523Y-50680952D01*
X7321904Y-50728571D01*
X7274285Y-50823809D01*
X7274285Y-51061904D01*
X7321904Y-51157142D01*
X7369523Y-51204761D01*
X7464761Y-51252380D01*
X7750476Y-51252380D01*
X7845714Y-51204761D01*
X7893333Y-51157142D01*
X12474285Y-51252380D02*
X13045714Y-51252380D01*
X12760000Y-51252380D02*
X12760000Y-50252380D01*
X12855238Y-50395238D01*
X12950476Y-50490476D01*
X13045714Y-50538095D01*
%TO.C,JP3*%
X26233333Y-48452380D02*
X26233333Y-49166666D01*
X26280952Y-49309523D01*
X26376190Y-49404761D01*
X26519047Y-49452380D01*
X26614285Y-49452380D01*
X25757142Y-49452380D02*
X25757142Y-48452380D01*
X25376190Y-48452380D01*
X25280952Y-48500000D01*
X25233333Y-48547619D01*
X25185714Y-48642857D01*
X25185714Y-48785714D01*
X25233333Y-48880952D01*
X25280952Y-48928571D01*
X25376190Y-48976190D01*
X25757142Y-48976190D01*
X24852380Y-48452380D02*
X24233333Y-48452380D01*
X24566666Y-48833333D01*
X24423809Y-48833333D01*
X24328571Y-48880952D01*
X24280952Y-48928571D01*
X24233333Y-49023809D01*
X24233333Y-49261904D01*
X24280952Y-49357142D01*
X24328571Y-49404761D01*
X24423809Y-49452380D01*
X24709523Y-49452380D01*
X24804761Y-49404761D01*
X24852380Y-49357142D01*
X27714285Y-51252380D02*
X28285714Y-51252380D01*
X28000000Y-51252380D02*
X28000000Y-50252380D01*
X28095238Y-50395238D01*
X28190476Y-50490476D01*
X28285714Y-50538095D01*
X23133333Y-50252380D02*
X22514285Y-50252380D01*
X22847619Y-50633333D01*
X22704761Y-50633333D01*
X22609523Y-50680952D01*
X22561904Y-50728571D01*
X22514285Y-50823809D01*
X22514285Y-51061904D01*
X22561904Y-51157142D01*
X22609523Y-51204761D01*
X22704761Y-51252380D01*
X22990476Y-51252380D01*
X23085714Y-51204761D01*
X23133333Y-51157142D01*
%TO.C,JP5*%
X56713333Y-48452380D02*
X56713333Y-49166666D01*
X56760952Y-49309523D01*
X56856190Y-49404761D01*
X56999047Y-49452380D01*
X57094285Y-49452380D01*
X56237142Y-49452380D02*
X56237142Y-48452380D01*
X55856190Y-48452380D01*
X55760952Y-48500000D01*
X55713333Y-48547619D01*
X55665714Y-48642857D01*
X55665714Y-48785714D01*
X55713333Y-48880952D01*
X55760952Y-48928571D01*
X55856190Y-48976190D01*
X56237142Y-48976190D01*
X54760952Y-48452380D02*
X55237142Y-48452380D01*
X55284761Y-48928571D01*
X55237142Y-48880952D01*
X55141904Y-48833333D01*
X54903809Y-48833333D01*
X54808571Y-48880952D01*
X54760952Y-48928571D01*
X54713333Y-49023809D01*
X54713333Y-49261904D01*
X54760952Y-49357142D01*
X54808571Y-49404761D01*
X54903809Y-49452380D01*
X55141904Y-49452380D01*
X55237142Y-49404761D01*
X55284761Y-49357142D01*
X58194285Y-51252380D02*
X58765714Y-51252380D01*
X58480000Y-51252380D02*
X58480000Y-50252380D01*
X58575238Y-50395238D01*
X58670476Y-50490476D01*
X58765714Y-50538095D01*
X53613333Y-50252380D02*
X52994285Y-50252380D01*
X53327619Y-50633333D01*
X53184761Y-50633333D01*
X53089523Y-50680952D01*
X53041904Y-50728571D01*
X52994285Y-50823809D01*
X52994285Y-51061904D01*
X53041904Y-51157142D01*
X53089523Y-51204761D01*
X53184761Y-51252380D01*
X53470476Y-51252380D01*
X53565714Y-51204761D01*
X53613333Y-51157142D01*
%TO.C,J14*%
X45259523Y-45342380D02*
X45259523Y-46056666D01*
X45307142Y-46199523D01*
X45402380Y-46294761D01*
X45545238Y-46342380D01*
X45640476Y-46342380D01*
X44259523Y-46342380D02*
X44830952Y-46342380D01*
X44545238Y-46342380D02*
X44545238Y-45342380D01*
X44640476Y-45485238D01*
X44735714Y-45580476D01*
X44830952Y-45628095D01*
X43402380Y-45675714D02*
X43402380Y-46342380D01*
X43640476Y-45294761D02*
X43878571Y-46009047D01*
X43259523Y-46009047D01*
D11*
%TO.C,J2*%
X15370000Y-5246000D02*
X28070000Y-5246000D01*
X29820000Y-1196000D02*
X28820000Y-1196000D01*
X28070000Y2854000D02*
X15370000Y2854000D01*
X11820000Y-1196000D02*
X10820000Y-1196000D01*
X29320000Y-696000D02*
X29320000Y-1696000D01*
X15370000Y2854000D02*
X12570000Y404000D01*
X28070000Y-5246000D02*
X28070000Y2854000D01*
X12570000Y404000D02*
X12570000Y-2796000D01*
X12570000Y-2796000D02*
X15370000Y-5246000D01*
D12*
%TO.C,JP11*%
X52120000Y-24400000D02*
X50720000Y-24400000D01*
X52820000Y-25700000D02*
X52820000Y-25100000D01*
X50720000Y-26400000D02*
X52120000Y-26400000D01*
X50020000Y-25100000D02*
X50020000Y-25700000D01*
X52120000Y-26400000D02*
G75*
G03*
X52820000Y-25700000I0J700000D01*
G01*
X50720000Y-24400000D02*
G75*
G03*
X50020000Y-25100000I-1J-699999D01*
G01*
X50020000Y-25700000D02*
G75*
G03*
X50720000Y-26400000I699999J-1D01*
G01*
X52820000Y-25100000D02*
G75*
G03*
X52120000Y-24400000I-700000J0D01*
G01*
%TO.C,JP12*%
X50020000Y-22560000D02*
X50020000Y-23160000D01*
X50720000Y-23860000D02*
X52120000Y-23860000D01*
X52120000Y-21860000D02*
X50720000Y-21860000D01*
X52820000Y-23160000D02*
X52820000Y-22560000D01*
X50720000Y-21860000D02*
G75*
G03*
X50020000Y-22560000I-1J-699999D01*
G01*
X52820000Y-22560000D02*
G75*
G03*
X52120000Y-21860000I-700000J0D01*
G01*
X52120000Y-23860000D02*
G75*
G03*
X52820000Y-23160000I0J700000D01*
G01*
X50020000Y-23160000D02*
G75*
G03*
X50720000Y-23860000I699999J-1D01*
G01*
%TO.C,J7*%
X83165000Y-45100000D02*
X83915000Y-45100000D01*
X83915000Y-46900000D02*
X83165000Y-46900000D01*
X83915000Y-43600000D02*
X83165000Y-43600000D01*
X85415000Y-46900000D02*
X85415000Y-46150000D01*
X89125000Y-46910000D02*
X83155000Y-46910000D01*
X83165000Y-29300000D02*
X83915000Y-29300000D01*
X88365000Y-30050000D02*
X88365000Y-38100000D01*
X83155000Y-29290000D02*
X89125000Y-29290000D01*
X83165000Y-43600000D02*
X83165000Y-32600000D01*
X85415000Y-29300000D02*
X85415000Y-30050000D01*
X83915000Y-31100000D02*
X83165000Y-31100000D01*
X85415000Y-46150000D02*
X88365000Y-46150000D01*
X85415000Y-30050000D02*
X88365000Y-30050000D01*
X83915000Y-29300000D02*
X83915000Y-31100000D01*
X83155000Y-46910000D02*
X83155000Y-29290000D01*
X89125000Y-29290000D02*
X89125000Y-46910000D01*
X83165000Y-46900000D02*
X83165000Y-45100000D01*
X83165000Y-31100000D02*
X83165000Y-29300000D01*
X82865000Y-30250000D02*
X82865000Y-29000000D01*
X83165000Y-32600000D02*
X83915000Y-32600000D01*
X83915000Y-32600000D02*
X83915000Y-43600000D01*
X82865000Y-29000000D02*
X84115000Y-29000000D01*
X83915000Y-45100000D02*
X83915000Y-46900000D01*
X88365000Y-46150000D02*
X88365000Y-38100000D01*
%TO.C,JP13*%
X52120000Y-19320000D02*
X50720000Y-19320000D01*
X50720000Y-21320000D02*
X52120000Y-21320000D01*
X52820000Y-20620000D02*
X52820000Y-20020000D01*
X50020000Y-20020000D02*
X50020000Y-20620000D01*
X50020000Y-20620000D02*
G75*
G03*
X50720000Y-21320000I699999J-1D01*
G01*
X52820000Y-20020000D02*
G75*
G03*
X52120000Y-19320000I-700000J0D01*
G01*
X52120000Y-21320000D02*
G75*
G03*
X52820000Y-20620000I0J700000D01*
G01*
X50720000Y-19320000D02*
G75*
G03*
X50020000Y-20020000I-1J-699999D01*
G01*
%TO.C,JP19*%
X36780000Y-13700000D02*
X38180000Y-13700000D01*
X36080000Y-12400000D02*
X36080000Y-13000000D01*
X38180000Y-11700000D02*
X36780000Y-11700000D01*
X38880000Y-13000000D02*
X38880000Y-12400000D01*
X38180000Y-13700000D02*
G75*
G03*
X38880000Y-13000000I0J700000D01*
G01*
X36080000Y-13000000D02*
G75*
G03*
X36780000Y-13700000I699999J-1D01*
G01*
X36780000Y-11700000D02*
G75*
G03*
X36080000Y-12400000I-1J-699999D01*
G01*
X38880000Y-12400000D02*
G75*
G03*
X38180000Y-11700000I-700000J0D01*
G01*
%TO.C,JP24*%
X36780000Y-26400000D02*
X38180000Y-26400000D01*
X38880000Y-25700000D02*
X38880000Y-25100000D01*
X36080000Y-25100000D02*
X36080000Y-25700000D01*
X38180000Y-24400000D02*
X36780000Y-24400000D01*
X38180000Y-26400000D02*
G75*
G03*
X38880000Y-25700000I0J700000D01*
G01*
X36780000Y-24400000D02*
G75*
G03*
X36080000Y-25100000I-1J-699999D01*
G01*
X38880000Y-25100000D02*
G75*
G03*
X38180000Y-24400000I-700000J0D01*
G01*
X36080000Y-25700000D02*
G75*
G03*
X36780000Y-26400000I699999J-1D01*
G01*
%TO.C,JP8*%
X50020000Y-32720000D02*
X50020000Y-33320000D01*
X50720000Y-34020000D02*
X52120000Y-34020000D01*
X52120000Y-32020000D02*
X50720000Y-32020000D01*
X52820000Y-33320000D02*
X52820000Y-32720000D01*
X50720000Y-32020000D02*
G75*
G03*
X50020000Y-32720000I-1J-699999D01*
G01*
X50020000Y-33320000D02*
G75*
G03*
X50720000Y-34020000I699999J-1D01*
G01*
X52820000Y-32720000D02*
G75*
G03*
X52120000Y-32020000I-700000J0D01*
G01*
X52120000Y-34020000D02*
G75*
G03*
X52820000Y-33320000I0J700000D01*
G01*
%TO.C,J11*%
X4985000Y-45100000D02*
X5735000Y-45100000D01*
X-225000Y-46910000D02*
X-225000Y-29290000D01*
X3485000Y-30050000D02*
X535000Y-30050000D01*
X4985000Y-29300000D02*
X5735000Y-29300000D01*
X4985000Y-43600000D02*
X4985000Y-32600000D01*
X4985000Y-31100000D02*
X4985000Y-29300000D01*
X5745000Y-29290000D02*
X5745000Y-46910000D01*
X3485000Y-29300000D02*
X3485000Y-30050000D01*
X-225000Y-29290000D02*
X5745000Y-29290000D01*
X5735000Y-29300000D02*
X5735000Y-31100000D01*
X5735000Y-45100000D02*
X5735000Y-46900000D01*
X4985000Y-46900000D02*
X4985000Y-45100000D01*
X535000Y-46150000D02*
X535000Y-38100000D01*
X5735000Y-31100000D02*
X4985000Y-31100000D01*
X3485000Y-46900000D02*
X3485000Y-46150000D01*
X5745000Y-46910000D02*
X-225000Y-46910000D01*
X5735000Y-43600000D02*
X4985000Y-43600000D01*
X5735000Y-46900000D02*
X4985000Y-46900000D01*
X4985000Y-32600000D02*
X5735000Y-32600000D01*
X6035000Y-47200000D02*
X4785000Y-47200000D01*
X535000Y-30050000D02*
X535000Y-38100000D01*
X6035000Y-45950000D02*
X6035000Y-47200000D01*
X5735000Y-32600000D02*
X5735000Y-43600000D01*
X3485000Y-46150000D02*
X535000Y-46150000D01*
%TO.C,JP14*%
X38880000Y-28240000D02*
X38880000Y-27640000D01*
X38180000Y-26940000D02*
X36780000Y-26940000D01*
X36780000Y-28940000D02*
X38180000Y-28940000D01*
X36080000Y-27640000D02*
X36080000Y-28240000D01*
X38180000Y-28940000D02*
G75*
G03*
X38880000Y-28240000I1J699999D01*
G01*
X36080000Y-28240000D02*
G75*
G03*
X36780000Y-28940000I700000J0D01*
G01*
X36780000Y-26940000D02*
G75*
G03*
X36080000Y-27640000I0J-700000D01*
G01*
X38880000Y-27640000D02*
G75*
G03*
X38180000Y-26940000I-699999J1D01*
G01*
%TO.C,JP18*%
X36080000Y-37800000D02*
X36080000Y-38400000D01*
X38180000Y-37100000D02*
X36780000Y-37100000D01*
X38880000Y-38400000D02*
X38880000Y-37800000D01*
X36780000Y-39100000D02*
X38180000Y-39100000D01*
X36080000Y-38400000D02*
G75*
G03*
X36780000Y-39100000I700000J0D01*
G01*
X38180000Y-39100000D02*
G75*
G03*
X38880000Y-38400000I1J699999D01*
G01*
X36780000Y-37100000D02*
G75*
G03*
X36080000Y-37800000I0J-700000D01*
G01*
X38880000Y-37800000D02*
G75*
G03*
X38180000Y-37100000I-699999J1D01*
G01*
%TO.C,JP10*%
X50020000Y-27640000D02*
X50020000Y-28240000D01*
X50720000Y-28940000D02*
X52120000Y-28940000D01*
X52120000Y-26940000D02*
X50720000Y-26940000D01*
X52820000Y-28240000D02*
X52820000Y-27640000D01*
X52820000Y-27640000D02*
G75*
G03*
X52120000Y-26940000I-700000J0D01*
G01*
X50020000Y-28240000D02*
G75*
G03*
X50720000Y-28940000I699999J-1D01*
G01*
X52120000Y-28940000D02*
G75*
G03*
X52820000Y-28240000I0J700000D01*
G01*
X50720000Y-26940000D02*
G75*
G03*
X50020000Y-27640000I-1J-699999D01*
G01*
%TO.C,JP16*%
X36780000Y-34020000D02*
X38180000Y-34020000D01*
X38180000Y-32020000D02*
X36780000Y-32020000D01*
X36080000Y-32720000D02*
X36080000Y-33320000D01*
X38880000Y-33320000D02*
X38880000Y-32720000D01*
X36780000Y-32020000D02*
G75*
G03*
X36080000Y-32720000I0J-700000D01*
G01*
X36080000Y-33320000D02*
G75*
G03*
X36780000Y-34020000I700000J0D01*
G01*
X38180000Y-34020000D02*
G75*
G03*
X38880000Y-33320000I1J699999D01*
G01*
X38880000Y-32720000D02*
G75*
G03*
X38180000Y-32020000I-699999J1D01*
G01*
%TO.C,JP17*%
X38880000Y-35860000D02*
X38880000Y-35260000D01*
X36080000Y-35260000D02*
X36080000Y-35860000D01*
X38180000Y-34560000D02*
X36780000Y-34560000D01*
X36780000Y-36560000D02*
X38180000Y-36560000D01*
X38880000Y-35260000D02*
G75*
G03*
X38180000Y-34560000I-699999J1D01*
G01*
X38180000Y-36560000D02*
G75*
G03*
X38880000Y-35860000I1J699999D01*
G01*
X36080000Y-35860000D02*
G75*
G03*
X36780000Y-36560000I700000J0D01*
G01*
X36780000Y-34560000D02*
G75*
G03*
X36080000Y-35260000I0J-700000D01*
G01*
%TO.C,JP7*%
X52120000Y-34560000D02*
X50720000Y-34560000D01*
X50020000Y-35260000D02*
X50020000Y-35860000D01*
X50720000Y-36560000D02*
X52120000Y-36560000D01*
X52820000Y-35860000D02*
X52820000Y-35260000D01*
X52120000Y-36560000D02*
G75*
G03*
X52820000Y-35860000I0J700000D01*
G01*
X50720000Y-34560000D02*
G75*
G03*
X50020000Y-35260000I-1J-699999D01*
G01*
X50020000Y-35860000D02*
G75*
G03*
X50720000Y-36560000I699999J-1D01*
G01*
X52820000Y-35260000D02*
G75*
G03*
X52120000Y-34560000I-700000J0D01*
G01*
%TO.C,JP21*%
X38880000Y-18080000D02*
X38880000Y-17480000D01*
X36780000Y-18780000D02*
X38180000Y-18780000D01*
X36080000Y-17480000D02*
X36080000Y-18080000D01*
X38180000Y-16780000D02*
X36780000Y-16780000D01*
X36080000Y-18080000D02*
G75*
G03*
X36780000Y-18780000I699999J-1D01*
G01*
X38180000Y-18780000D02*
G75*
G03*
X38880000Y-18080000I0J700000D01*
G01*
X36780000Y-16780000D02*
G75*
G03*
X36080000Y-17480000I-1J-699999D01*
G01*
X38880000Y-17480000D02*
G75*
G03*
X38180000Y-16780000I-700000J0D01*
G01*
%TO.C,JP6*%
X69070000Y-51800000D02*
X73170000Y-51800000D01*
X69070000Y-49800000D02*
X69070000Y-51800000D01*
X73170000Y-51800000D02*
X73170000Y-49800000D01*
X73170000Y-49800000D02*
X69070000Y-49800000D01*
%TO.C,JP4*%
X38590000Y-51800000D02*
X42690000Y-51800000D01*
X42690000Y-51800000D02*
X42690000Y-49800000D01*
X42690000Y-49800000D02*
X38590000Y-49800000D01*
X38590000Y-49800000D02*
X38590000Y-51800000D01*
%TO.C,JP9*%
X50720000Y-31480000D02*
X52120000Y-31480000D01*
X52120000Y-29480000D02*
X50720000Y-29480000D01*
X52820000Y-30780000D02*
X52820000Y-30180000D01*
X50020000Y-30180000D02*
X50020000Y-30780000D01*
X50020000Y-30780000D02*
G75*
G03*
X50720000Y-31480000I699999J-1D01*
G01*
X52820000Y-30180000D02*
G75*
G03*
X52120000Y-29480000I-700000J0D01*
G01*
X50720000Y-29480000D02*
G75*
G03*
X50020000Y-30180000I-1J-699999D01*
G01*
X52120000Y-31480000D02*
G75*
G03*
X52820000Y-30780000I0J700000D01*
G01*
%TO.C,JP2*%
X12210000Y-51800000D02*
X12210000Y-49800000D01*
X8110000Y-49800000D02*
X8110000Y-51800000D01*
X12210000Y-49800000D02*
X8110000Y-49800000D01*
X8110000Y-51800000D02*
X12210000Y-51800000D01*
%TO.C,JP3*%
X27450000Y-51800000D02*
X27450000Y-49800000D01*
X27450000Y-49800000D02*
X23350000Y-49800000D01*
X23350000Y-49800000D02*
X23350000Y-51800000D01*
X23350000Y-51800000D02*
X27450000Y-51800000D01*
%TO.C,JP5*%
X53830000Y-51800000D02*
X57930000Y-51800000D01*
X57930000Y-51800000D02*
X57930000Y-49800000D01*
X57930000Y-49800000D02*
X53830000Y-49800000D01*
X53830000Y-49800000D02*
X53830000Y-51800000D01*
%TO.C,JP22*%
X38880000Y-20620000D02*
X38880000Y-20020000D01*
X36780000Y-21320000D02*
X38180000Y-21320000D01*
X38180000Y-19320000D02*
X36780000Y-19320000D01*
X36080000Y-20020000D02*
X36080000Y-20620000D01*
X38880000Y-20020000D02*
G75*
G03*
X38180000Y-19320000I-700000J0D01*
G01*
X36780000Y-19320000D02*
G75*
G03*
X36080000Y-20020000I-1J-699999D01*
G01*
X38180000Y-21320000D02*
G75*
G03*
X38880000Y-20620000I0J700000D01*
G01*
X36080000Y-20620000D02*
G75*
G03*
X36780000Y-21320000I699999J-1D01*
G01*
%TO.C,J14*%
X41340000Y-43695000D02*
X42390000Y-43695000D01*
X47560000Y-41195000D02*
X47560000Y-43695000D01*
X42390000Y-43695000D02*
X42390000Y-44685000D01*
X47560000Y-43695000D02*
X46510000Y-43695000D01*
X41340000Y-41195000D02*
X41340000Y-43695000D01*
X42510000Y-39225000D02*
X46390000Y-39225000D01*
%TO.C,JP15*%
X38180000Y-29480000D02*
X36780000Y-29480000D01*
X38880000Y-30780000D02*
X38880000Y-30180000D01*
X36080000Y-30180000D02*
X36080000Y-30780000D01*
X36780000Y-31480000D02*
X38180000Y-31480000D01*
X36780000Y-29480000D02*
G75*
G03*
X36080000Y-30180000I0J-700000D01*
G01*
X38880000Y-30180000D02*
G75*
G03*
X38180000Y-29480000I-699999J1D01*
G01*
X36080000Y-30780000D02*
G75*
G03*
X36780000Y-31480000I700000J0D01*
G01*
X38180000Y-31480000D02*
G75*
G03*
X38880000Y-30780000I1J699999D01*
G01*
%TO.C,JP23*%
X36780000Y-23860000D02*
X38180000Y-23860000D01*
X38880000Y-23160000D02*
X38880000Y-22560000D01*
X36080000Y-22560000D02*
X36080000Y-23160000D01*
X38180000Y-21860000D02*
X36780000Y-21860000D01*
X38880000Y-22560000D02*
G75*
G03*
X38180000Y-21860000I-700000J0D01*
G01*
X36080000Y-23160000D02*
G75*
G03*
X36780000Y-23860000I699999J-1D01*
G01*
X36780000Y-21860000D02*
G75*
G03*
X36080000Y-22560000I-1J-699999D01*
G01*
X38180000Y-23860000D02*
G75*
G03*
X38880000Y-23160000I0J700000D01*
G01*
%TO.C,JP20*%
X36780000Y-16240000D02*
X38180000Y-16240000D01*
X38880000Y-15540000D02*
X38880000Y-14940000D01*
X38180000Y-14240000D02*
X36780000Y-14240000D01*
X36080000Y-14940000D02*
X36080000Y-15540000D01*
X38180000Y-16240000D02*
G75*
G03*
X38880000Y-15540000I0J700000D01*
G01*
X36080000Y-15540000D02*
G75*
G03*
X36780000Y-16240000I699999J-1D01*
G01*
X36780000Y-14240000D02*
G75*
G03*
X36080000Y-14940000I-1J-699999D01*
G01*
X38880000Y-14940000D02*
G75*
G03*
X38180000Y-14240000I-700000J0D01*
G01*
%TD*%
M02*
