M48
; DRILL file {KiCad (6.0.6)} date Wed Feb 28 23:36:44 2024
; FORMAT={-:-/ absolute / metric / decimal}
; #@! TF.CreationDate,2024-02-28T23:36:44-08:00
; #@! TF.GenerationSoftware,Kicad,Pcbnew,(6.0.6)
; #@! TF.FileFunction,Plated,1,2,PTH
FMAT,2
METRIC
; #@! TA.AperFunction,Plated,PTH,ViaDrill
T1C0.400
; #@! TA.AperFunction,Plated,PTH,ComponentDrill
T2C0.800
; #@! TA.AperFunction,Plated,PTH,ComponentDrill
T3C0.950
; #@! TA.AperFunction,Plated,PTH,ComponentDrill
T4C1.000
; #@! TA.AperFunction,Plated,PTH,ComponentDrill
T5C3.200
; #@! TA.AperFunction,Plated,PTH,ComponentDrill
T6C4.550
%
G90
G05
T1
X7.62Y-38.1
X7.62Y-41.91
X8.89Y-11.43
X8.89Y-25.4
X8.89Y-39.37
X8.89Y-52.07
X11.43Y-15.24
X11.43Y-16.51
X11.43Y-53.34
X15.24Y-7.62
X16.49Y-19.815
X16.566Y-49.586
X17.78Y-22.86
X17.78Y-49.53
X19.05Y-17.78
X19.05Y-24.13
X20.32Y-21.59
X20.32Y-25.4
X21.59Y-17.78
X21.59Y-24.13
X21.59Y-52.07
X22.86Y-16.51
X22.86Y-24.13
X22.86Y-29.21
X26.67Y-53.34
X29.21Y-7.62
X29.21Y-45.72
X30.0Y-43.176
X30.48Y-24.13
X30.699Y-12.175
X30.96Y-26.67
X30.96Y-44.893
X31.75Y-49.53
X32.794Y-49.522
X34.29Y-44.45
X36.83Y-40.64
X39.37Y-11.43
X39.37Y-17.78
X39.37Y-20.32
X39.37Y-22.86
X39.37Y-25.4
X39.37Y-33.02
X39.37Y-34.29
X39.37Y-46.51
X39.37Y-52.07
X40.418Y-46.51
X40.64Y-12.7
X40.64Y-31.75
X41.364Y-33.02
X41.868Y-44.567
X41.91Y-38.1
X41.91Y-45.72
X41.91Y-53.34
X45.72Y-38.1
X45.72Y-41.91
X46.99Y-35.56
X46.99Y-41.91
X46.99Y-44.45
X46.99Y-45.72
X46.99Y-48.26
X46.99Y-49.53
X47.535Y-38.1
X48.26Y-54.61
X49.445Y-49.394
X49.53Y-46.96
X49.53Y-55.88
X50.8Y-39.37
X50.8Y-45.72
X50.8Y-46.96
X52.07Y-59.69
X53.34Y-44.45
X54.064Y-41.91
X54.61Y-44.45
X54.61Y-52.07
X57.15Y-53.34
X58.42Y-1.27
X58.42Y-40.64
X59.69Y-2.54
X59.69Y-5.08
X59.69Y-8.89
X60.96Y-30.48
X62.23Y-49.53
X63.761Y-49.165
X64.77Y-5.08
X66.04Y-5.08
X66.04Y-8.89
X69.85Y-16.51
X69.85Y-26.67
X69.85Y-38.1
X69.85Y-52.07
X71.12Y-5.08
X72.39Y-2.54
X72.39Y-27.94
X72.39Y-38.1
X72.39Y-53.34
X73.66Y-30.48
X74.93Y-13.97
X77.47Y-15.24
X77.526Y-49.586
X78.74Y-22.86
X79.167Y-49.22
X80.01Y-21.59
X80.01Y-43.18
X80.236Y-38.114
X81.28Y-29.21
X81.28Y-40.64
X82.55Y-34.915
X82.55Y-52.07
X83.82Y-27.94
T2
X-2.54Y-27.94
X-2.54Y-30.48
X-2.54Y-33.02
X-2.54Y-35.56
X-2.54Y-38.1
X-2.54Y-40.64
X-2.54Y-43.18
X-2.54Y-45.72
X2.54Y-8.89
X2.54Y-12.7
X2.54Y-54.61
X5.08Y-8.89
X5.08Y-12.7
X5.08Y-54.61
X17.78Y-46.99
X20.32Y-43.18
X20.32Y-46.99
X22.86Y-43.18
X34.398Y-2.54
X34.398Y-5.08
X34.398Y-7.62
X34.398Y-10.16
X34.398Y-12.7
X34.398Y-15.24
X34.398Y-17.78
X34.398Y-20.32
X34.398Y-22.86
X34.398Y-25.4
X34.398Y-27.94
X34.398Y-30.48
X34.398Y-33.02
X34.398Y-35.56
X34.398Y-38.1
X34.398Y-40.64
X35.56Y-48.26
X38.1Y-48.26
X40.64Y-48.26
X43.18Y-48.26
X50.8Y-48.26
X53.34Y-48.26
X54.717Y-12.7
X54.717Y-15.24
X54.717Y-17.78
X54.717Y-20.32
X54.717Y-22.86
X54.717Y-25.4
X54.717Y-27.94
X54.717Y-30.48
X54.717Y-33.02
X54.717Y-35.56
X54.717Y-38.1
X54.717Y-40.64
X55.88Y-48.26
X58.42Y-48.26
X60.96Y1.27
X63.5Y1.27
X66.04Y-48.26
X67.31Y1.27
X68.58Y-48.26
X69.85Y1.27
X71.12Y-48.26
X73.66Y1.27
X73.66Y-48.26
X76.2Y1.27
X80.01Y1.27
X81.28Y-48.26
X82.55Y1.27
X83.82Y-48.26
X91.44Y-27.94
X91.44Y-30.48
X91.44Y-33.02
X91.44Y-35.56
X91.44Y-38.1
X91.44Y-40.64
X91.44Y-43.18
X91.44Y-45.72
T3
X3.285Y-31.85
X3.285Y-34.35
X3.285Y-36.85
X3.285Y-39.35
X3.285Y-41.85
X3.285Y-44.35
X10.16Y-57.84
X12.66Y-57.84
X15.16Y-57.84
X17.66Y-57.84
X25.46Y-57.84
X27.96Y-57.84
X30.46Y-57.84
X32.96Y-57.84
X40.7Y-57.84
X43.2Y-57.84
X45.7Y-57.84
X48.2Y-57.84
X55.94Y-57.84
X58.44Y-57.84
X60.94Y-57.84
X63.44Y-57.84
X71.18Y-57.84
X73.68Y-57.84
X76.18Y-57.84
X78.68Y-57.84
X85.615Y-31.85
X85.615Y-34.35
X85.615Y-36.85
X85.615Y-39.35
X85.615Y-41.85
X85.615Y-44.35
T4
X3.81Y-19.09
X3.81Y-21.59
X11.455Y-33.045
X11.455Y-35.585
X11.455Y-38.125
X11.455Y-40.665
X11.455Y-43.205
X11.455Y-45.745
X26.98Y-33.045
X26.98Y-35.585
X26.98Y-38.125
X26.98Y-40.665
X26.98Y-43.205
X26.98Y-45.745
X62.255Y-33.02
X62.255Y-35.56
X62.255Y-38.1
X62.255Y-40.64
X62.255Y-43.18
X62.255Y-45.72
X77.495Y-33.045
X77.495Y-35.585
X77.495Y-38.125
X77.495Y-40.665
X77.495Y-43.205
X77.495Y-45.745
T5
X0.0Y0.0
X0.0Y-63.5
X88.9Y0.0
X88.9Y-63.5
T6
X16.72Y-1.196
X23.92Y-1.196
T0
M30
